G75*
%MOIN*%
%OFA0B0*%
%FSLAX24Y24*%
%IPPOS*%
%LPD*%
%AMOC8*
5,1,8,0,0,1.08239X$1,22.5*
%
%ADD10R,0.0177X0.0453*%
%ADD11R,0.0600X0.1600*%
%ADD12C,0.0433*%
%ADD13R,0.0250X0.0500*%
%ADD14C,0.0886*%
%ADD15C,0.0709*%
%ADD16C,0.0100*%
%ADD17C,0.0120*%
%ADD18C,0.0238*%
%ADD19C,0.0240*%
D10*
X008171Y002886D03*
X008427Y002886D03*
X008683Y002886D03*
X008959Y002886D03*
X009214Y002886D03*
D11*
X009705Y015869D03*
X010705Y015869D03*
X011705Y015869D03*
D12*
X010681Y012896D03*
X011685Y011892D03*
X011685Y010888D03*
X011685Y009884D03*
X011685Y008900D03*
X011685Y007877D03*
X011685Y006873D03*
X011685Y005888D03*
X010681Y004865D03*
X009677Y004865D03*
X008693Y004865D03*
X007709Y004865D03*
X006685Y004865D03*
X005642Y005888D03*
X005622Y006892D03*
X005622Y007896D03*
X005642Y008880D03*
X005642Y009884D03*
X005642Y010888D03*
X005661Y011892D03*
X006685Y012896D03*
X007669Y012896D03*
X008673Y012896D03*
X009677Y012896D03*
D13*
X005779Y003408D03*
X005425Y003408D03*
D14*
X006744Y001105D03*
X010642Y001105D03*
D15*
X010642Y002680D03*
X006744Y002680D03*
D16*
X011685Y008900D02*
X011685Y009058D01*
X011685Y009884D02*
X011646Y010042D01*
X011744Y010042D01*
D17*
X004808Y001255D02*
X004884Y001022D01*
X005027Y000825D01*
X005224Y000682D01*
X005457Y000606D01*
X005579Y000597D01*
X006500Y000597D01*
X006425Y000628D01*
X006267Y000786D01*
X006181Y000993D01*
X006181Y001217D01*
X006267Y001424D01*
X006425Y001582D01*
X006632Y001668D01*
X006856Y001668D01*
X006878Y001659D01*
X006878Y002222D01*
X006838Y002205D01*
X006650Y002205D01*
X006475Y002278D01*
X006342Y002411D01*
X006270Y002585D01*
X006270Y002774D01*
X006342Y002948D01*
X006475Y003082D01*
X006650Y003154D01*
X006838Y003154D01*
X007013Y003082D01*
X007146Y002948D01*
X007207Y002801D01*
X007963Y002801D01*
X007963Y003162D01*
X008033Y003233D01*
X008513Y003233D01*
X008513Y003241D01*
X008509Y003245D01*
X008513Y003314D01*
X008513Y003321D01*
X008511Y003324D01*
X008508Y003326D01*
X008507Y003326D01*
X007492Y003326D01*
X007310Y003402D01*
X007310Y003402D01*
X007171Y003541D01*
X007171Y003541D01*
X007138Y003621D01*
X007073Y003686D01*
X007036Y003774D01*
X007036Y003869D01*
X007073Y003957D01*
X007140Y004024D01*
X007228Y004060D01*
X007323Y004060D01*
X007411Y004024D01*
X007478Y003957D01*
X007514Y003869D01*
X007514Y003774D01*
X007496Y003729D01*
X007515Y003709D01*
X007564Y003689D01*
X007590Y003686D01*
X007880Y003686D01*
X007843Y003774D01*
X007843Y003869D01*
X007880Y003957D01*
X007947Y004024D01*
X008035Y004060D01*
X008130Y004060D01*
X008218Y004024D01*
X008241Y004001D01*
X008500Y004001D01*
X008502Y004003D01*
X008574Y004001D01*
X008646Y004001D01*
X008648Y004000D01*
X008692Y003999D01*
X008692Y003999D01*
X008905Y003904D01*
X008905Y003904D01*
X009065Y003736D01*
X009065Y003736D01*
X009148Y003520D01*
X009148Y003520D01*
X009146Y003406D01*
X009146Y003233D01*
X009353Y003233D01*
X009423Y003162D01*
X009423Y003156D01*
X009666Y003156D01*
X009754Y003119D01*
X009821Y003052D01*
X009858Y002964D01*
X009858Y002868D01*
X009830Y002801D01*
X010026Y002801D01*
X010031Y002806D01*
X010116Y002801D01*
X010179Y002801D01*
X010239Y002948D01*
X010373Y003082D01*
X010547Y003154D01*
X010736Y003154D01*
X010910Y003082D01*
X011044Y002948D01*
X011116Y002774D01*
X011116Y002585D01*
X011044Y002411D01*
X010910Y002278D01*
X010736Y002205D01*
X010547Y002205D01*
X010507Y002222D01*
X010507Y001659D01*
X010530Y001668D01*
X010754Y001668D01*
X010960Y001582D01*
X011119Y001424D01*
X011204Y001217D01*
X011204Y000993D01*
X011119Y000786D01*
X010960Y000628D01*
X010885Y000597D01*
X011768Y000597D01*
X011890Y000606D01*
X012122Y000682D01*
X012319Y000825D01*
X012463Y001022D01*
X012538Y001255D01*
X012548Y001377D01*
X012548Y015636D01*
X012538Y015758D01*
X012463Y015990D01*
X012319Y016188D01*
X012165Y016300D01*
X012165Y015929D01*
X011765Y015929D01*
X011765Y015809D01*
X012165Y015809D01*
X012165Y015048D01*
X012154Y015007D01*
X012133Y014970D01*
X012103Y014941D01*
X012066Y014920D01*
X012026Y014909D01*
X011765Y014909D01*
X011765Y015809D01*
X011645Y015809D01*
X011645Y014909D01*
X011384Y014909D01*
X011343Y014920D01*
X011306Y014941D01*
X011277Y014970D01*
X011255Y015007D01*
X011245Y015048D01*
X011245Y015809D01*
X011645Y015809D01*
X011645Y015929D01*
X011245Y015929D01*
X011245Y016416D01*
X011125Y016416D01*
X011125Y015019D01*
X011054Y014949D01*
X010938Y014949D01*
X010926Y013127D01*
X010966Y013087D01*
X011017Y012963D01*
X011017Y012829D01*
X010966Y012706D01*
X010872Y012611D01*
X010748Y012560D01*
X010614Y012560D01*
X010490Y012611D01*
X010396Y012706D01*
X010344Y012829D01*
X010344Y012963D01*
X010396Y013087D01*
X010446Y013138D01*
X010458Y014949D01*
X010355Y014949D01*
X010285Y015019D01*
X010285Y016416D01*
X010165Y016416D01*
X010165Y015929D01*
X009765Y015929D01*
X009765Y015809D01*
X010165Y015809D01*
X010165Y015048D01*
X010154Y015007D01*
X010133Y014970D01*
X010103Y014941D01*
X010066Y014920D01*
X010026Y014909D01*
X009765Y014909D01*
X009765Y015809D01*
X009645Y015809D01*
X009645Y014909D01*
X009384Y014909D01*
X009343Y014920D01*
X009306Y014941D01*
X009277Y014970D01*
X009255Y015007D01*
X009245Y015048D01*
X009245Y015809D01*
X009645Y015809D01*
X009645Y015929D01*
X009245Y015929D01*
X009245Y016416D01*
X005579Y016416D01*
X005457Y016407D01*
X005224Y016331D01*
X005027Y016188D01*
X004884Y015990D01*
X004808Y015758D01*
X004799Y015636D01*
X004799Y013691D01*
X004857Y013748D01*
X004944Y013785D01*
X005040Y013785D01*
X005127Y013748D01*
X005195Y013681D01*
X005231Y013593D01*
X005231Y013563D01*
X006269Y012542D01*
X006270Y012542D01*
X006322Y012490D01*
X006375Y012438D01*
X006375Y012437D01*
X006414Y012398D01*
X006414Y012398D01*
X006542Y012175D01*
X006542Y012175D01*
X006607Y011925D01*
X006607Y011925D01*
X006606Y011798D01*
X006589Y009994D01*
X006594Y009915D01*
X006636Y009762D01*
X006715Y009624D01*
X006767Y009565D01*
X006820Y009512D01*
X006820Y009512D01*
X008018Y008313D01*
X008052Y008313D01*
X008140Y008277D01*
X008375Y008042D01*
X008375Y008121D01*
X008411Y008209D01*
X008479Y008276D01*
X008566Y008312D01*
X008662Y008312D01*
X008749Y008276D01*
X008817Y008209D01*
X008849Y008132D01*
X009017Y008066D01*
X009123Y008057D01*
X011395Y008057D01*
X011400Y008067D01*
X011494Y008162D01*
X011618Y008213D01*
X011752Y008213D01*
X011876Y008162D01*
X011970Y008067D01*
X012021Y007943D01*
X012021Y007810D01*
X011970Y007686D01*
X011876Y007591D01*
X011752Y007540D01*
X011618Y007540D01*
X011494Y007591D01*
X011400Y007686D01*
X011395Y007697D01*
X008948Y007697D01*
X008622Y007823D01*
X008622Y007823D01*
X008609Y007834D01*
X008582Y007834D01*
X009110Y007307D01*
X009110Y007307D01*
X009144Y007273D01*
X009197Y007226D01*
X009197Y007226D01*
X009321Y007154D01*
X009459Y007117D01*
X009531Y007113D01*
X011449Y007113D01*
X011494Y007158D01*
X011618Y007209D01*
X011752Y007209D01*
X011876Y007158D01*
X011970Y007063D01*
X012021Y006940D01*
X012021Y006806D01*
X011970Y006682D01*
X011876Y006587D01*
X011752Y006536D01*
X011618Y006536D01*
X011494Y006587D01*
X011449Y006633D01*
X009395Y006633D01*
X009134Y006703D01*
X009134Y006703D01*
X008900Y006838D01*
X008804Y006934D01*
X008770Y006967D01*
X008770Y006967D01*
X007800Y007937D01*
X007764Y008026D01*
X007764Y008059D01*
X006565Y009257D01*
X006565Y009257D01*
X006513Y009310D01*
X006513Y009310D01*
X006423Y009400D01*
X006423Y009400D01*
X006295Y009621D01*
X006295Y009621D01*
X006229Y009867D01*
X006229Y009920D01*
X006229Y009921D01*
X006229Y009995D01*
X006229Y010069D01*
X006230Y010069D01*
X006245Y011725D01*
X006245Y011725D01*
X006246Y011800D01*
X006241Y011880D01*
X006201Y012035D01*
X006121Y012174D01*
X006068Y012235D01*
X004978Y013307D01*
X004944Y013307D01*
X004857Y013343D01*
X004799Y013401D01*
X004799Y001377D01*
X004808Y001255D01*
X004804Y001311D02*
X006220Y001311D01*
X006181Y001193D02*
X004828Y001193D01*
X004867Y001074D02*
X006181Y001074D01*
X006196Y000956D02*
X004932Y000956D01*
X005018Y000837D02*
X006245Y000837D01*
X006334Y000719D02*
X005173Y000719D01*
X005528Y000600D02*
X006491Y000600D01*
X006273Y001430D02*
X004799Y001430D01*
X004799Y001548D02*
X006391Y001548D01*
X006630Y001667D02*
X004799Y001667D01*
X004799Y001785D02*
X006878Y001785D01*
X006878Y001667D02*
X006858Y001667D01*
X006878Y001904D02*
X004799Y001904D01*
X004799Y002022D02*
X006878Y002022D01*
X006878Y002141D02*
X004799Y002141D01*
X004799Y002259D02*
X006519Y002259D01*
X006375Y002378D02*
X004799Y002378D01*
X004799Y002496D02*
X006306Y002496D01*
X006270Y002615D02*
X004799Y002615D01*
X004799Y002733D02*
X006270Y002733D01*
X006302Y002852D02*
X004799Y002852D01*
X004799Y002970D02*
X006364Y002970D01*
X006493Y003089D02*
X006049Y003089D01*
X006053Y003096D02*
X006064Y003137D01*
X006064Y003406D01*
X005782Y003406D01*
X005782Y003411D01*
X005777Y003411D01*
X005777Y003818D01*
X005718Y003818D01*
X006037Y004122D01*
X006044Y004123D01*
X006091Y004173D01*
X006140Y004221D01*
X006140Y004227D01*
X006182Y004273D01*
X006302Y004502D01*
X006358Y004754D01*
X006358Y004754D01*
X006357Y004776D01*
X006400Y004674D01*
X006494Y004579D01*
X006618Y004528D01*
X006752Y004528D01*
X006876Y004579D01*
X006970Y004674D01*
X007021Y004798D01*
X007021Y004932D01*
X006970Y005055D01*
X006876Y005150D01*
X006752Y005201D01*
X006618Y005201D01*
X006494Y005150D01*
X006400Y005055D01*
X006353Y004943D01*
X006353Y005961D01*
X006354Y005962D01*
X006353Y006036D01*
X006353Y006109D01*
X006352Y006110D01*
X006351Y006161D01*
X006284Y006400D01*
X006284Y006400D01*
X006157Y006614D01*
X006069Y006700D01*
X005954Y006815D01*
X005958Y006825D01*
X005958Y006959D01*
X005907Y007083D01*
X005813Y007178D01*
X005689Y007229D01*
X005555Y007229D01*
X005431Y007178D01*
X005337Y007083D01*
X005285Y006959D01*
X005285Y006825D01*
X005337Y006702D01*
X005431Y006607D01*
X005555Y006556D01*
X005689Y006556D01*
X005699Y006560D01*
X005763Y006496D01*
X005763Y006495D01*
X005816Y006444D01*
X005817Y006443D01*
X005868Y006386D01*
X005946Y006255D01*
X005987Y006108D01*
X005993Y006033D01*
X005993Y004946D01*
X005990Y004943D01*
X005993Y004872D01*
X005993Y004862D01*
X005991Y004787D01*
X005956Y004629D01*
X005881Y004485D01*
X005832Y004424D01*
X005468Y004077D01*
X005466Y004077D01*
X005415Y004026D01*
X005362Y003976D01*
X005362Y003974D01*
X005332Y003944D01*
X005264Y003778D01*
X005250Y003778D01*
X005180Y003708D01*
X005180Y003108D01*
X005250Y003038D01*
X005548Y003038D01*
X005556Y003030D01*
X005593Y003009D01*
X005633Y002998D01*
X005777Y002998D01*
X005777Y003406D01*
X005782Y003406D01*
X005782Y002998D01*
X005925Y002998D01*
X005966Y003009D01*
X006003Y003030D01*
X006032Y003060D01*
X006053Y003096D01*
X006064Y003207D02*
X008008Y003207D01*
X007963Y003089D02*
X006995Y003089D01*
X007124Y002970D02*
X007963Y002970D01*
X007905Y002896D02*
X008181Y002896D01*
X008181Y002916D02*
X008181Y003290D01*
X008516Y003506D02*
X008542Y003502D01*
X008568Y003495D01*
X008593Y003485D01*
X008615Y003471D01*
X008636Y003454D01*
X008654Y003434D01*
X008668Y003412D01*
X008680Y003388D01*
X008688Y003362D01*
X008692Y003336D01*
X008693Y003309D01*
X008693Y003310D02*
X008693Y002936D01*
X008968Y002916D02*
X008968Y003028D01*
X008966Y003051D02*
X008966Y003408D01*
X009146Y003444D02*
X012548Y003444D01*
X012548Y003326D02*
X009146Y003326D01*
X009132Y003563D02*
X012548Y003563D01*
X012548Y003681D02*
X009086Y003681D01*
X009004Y003800D02*
X012548Y003800D01*
X012548Y003918D02*
X008873Y003918D01*
X008572Y003821D02*
X008083Y003821D01*
X007864Y003918D02*
X007494Y003918D01*
X007514Y003800D02*
X007843Y003800D01*
X007590Y003506D02*
X007557Y003508D01*
X007525Y003513D01*
X007493Y003521D01*
X007462Y003533D01*
X007433Y003548D01*
X007405Y003566D01*
X007379Y003587D01*
X007356Y003610D01*
X007335Y003636D01*
X007317Y003664D01*
X007302Y003693D01*
X007290Y003724D01*
X007282Y003756D01*
X007277Y003788D01*
X007275Y003821D01*
X007057Y003918D02*
X005823Y003918D01*
X005782Y003818D02*
X005925Y003818D01*
X005966Y003807D01*
X006003Y003786D01*
X006032Y003756D01*
X006053Y003720D01*
X006064Y003679D01*
X006064Y003411D01*
X005782Y003411D01*
X005782Y003818D01*
X005777Y003800D02*
X005782Y003800D01*
X005777Y003681D02*
X005782Y003681D01*
X005540Y003898D02*
X005514Y003869D01*
X005491Y003838D01*
X005472Y003805D01*
X005455Y003770D01*
X005442Y003733D01*
X005433Y003696D01*
X005427Y003658D01*
X005425Y003619D01*
X005425Y003408D01*
X005180Y003444D02*
X004799Y003444D01*
X004799Y003326D02*
X005180Y003326D01*
X005180Y003207D02*
X004799Y003207D01*
X004799Y003089D02*
X005199Y003089D01*
X005180Y003563D02*
X004799Y003563D01*
X004799Y003681D02*
X005180Y003681D01*
X005273Y003800D02*
X004799Y003800D01*
X004799Y003918D02*
X005322Y003918D01*
X005332Y003944D02*
X005332Y003944D01*
X005425Y004037D02*
X004799Y004037D01*
X004799Y004155D02*
X005550Y004155D01*
X005675Y004274D02*
X004799Y004274D01*
X004799Y004392D02*
X005799Y004392D01*
X005894Y004511D02*
X004799Y004511D01*
X004799Y004629D02*
X005956Y004629D01*
X005983Y004748D02*
X004799Y004748D01*
X004799Y004866D02*
X005993Y004866D01*
X005993Y004985D02*
X004799Y004985D01*
X004799Y005103D02*
X005993Y005103D01*
X005993Y005222D02*
X004799Y005222D01*
X004799Y005340D02*
X005993Y005340D01*
X005993Y005459D02*
X004799Y005459D01*
X004799Y005577D02*
X005513Y005577D01*
X005575Y005552D02*
X005709Y005552D01*
X005832Y005603D01*
X005927Y005698D01*
X005978Y005821D01*
X005978Y005955D01*
X005927Y006079D01*
X005832Y006174D01*
X005709Y006225D01*
X005575Y006225D01*
X005451Y006174D01*
X005356Y006079D01*
X005305Y005955D01*
X005305Y005821D01*
X005356Y005698D01*
X005451Y005603D01*
X005575Y005552D01*
X005358Y005696D02*
X004799Y005696D01*
X004799Y005814D02*
X005308Y005814D01*
X005305Y005933D02*
X004799Y005933D01*
X004799Y006051D02*
X005345Y006051D01*
X005942Y006572D02*
X005980Y006533D01*
X006015Y006491D01*
X006046Y006446D01*
X006075Y006400D01*
X006100Y006351D01*
X006121Y006301D01*
X006139Y006250D01*
X006153Y006197D01*
X006164Y006143D01*
X006170Y006089D01*
X006173Y006035D01*
X006173Y004876D01*
X006353Y004985D02*
X006370Y004985D01*
X006353Y005103D02*
X006448Y005103D01*
X006353Y005222D02*
X012548Y005222D01*
X012548Y005340D02*
X006353Y005340D01*
X006353Y005459D02*
X012548Y005459D01*
X012548Y005577D02*
X011897Y005577D01*
X011925Y005596D02*
X011977Y005648D01*
X012019Y005710D01*
X012047Y005779D01*
X012059Y005840D01*
X011733Y005840D01*
X011733Y005514D01*
X011795Y005526D01*
X011863Y005555D01*
X011925Y005596D01*
X012009Y005696D02*
X012548Y005696D01*
X012548Y005814D02*
X012054Y005814D01*
X012059Y005937D02*
X012047Y005998D01*
X012019Y006067D01*
X011977Y006128D01*
X011925Y006181D01*
X011863Y006222D01*
X011795Y006250D01*
X011733Y006263D01*
X011733Y005937D01*
X011637Y005937D01*
X011637Y006263D01*
X011575Y006250D01*
X011507Y006222D01*
X011445Y006181D01*
X011392Y006128D01*
X011351Y006067D01*
X011323Y005998D01*
X011311Y005937D01*
X011637Y005937D01*
X011637Y005840D01*
X011733Y005840D01*
X011733Y005937D01*
X012059Y005937D01*
X012025Y006051D02*
X012548Y006051D01*
X012548Y005933D02*
X011733Y005933D01*
X011637Y005933D02*
X008429Y005933D01*
X008440Y005959D02*
X008440Y006054D01*
X008403Y006142D01*
X008336Y006209D01*
X008248Y006246D01*
X008153Y006246D01*
X008065Y006209D01*
X008043Y006186D01*
X007917Y006186D01*
X007837Y006192D01*
X007684Y006233D01*
X007547Y006312D01*
X007487Y006364D01*
X006511Y007341D01*
X006511Y007373D01*
X006474Y007461D01*
X006407Y007528D01*
X006319Y007564D01*
X006224Y007564D01*
X006136Y007528D01*
X006069Y007461D01*
X006032Y007373D01*
X006032Y007278D01*
X006069Y007190D01*
X006136Y007123D01*
X006224Y007086D01*
X006256Y007086D01*
X007285Y006057D01*
X007285Y006057D01*
X007323Y006020D01*
X007543Y005892D01*
X007789Y005826D01*
X008043Y005826D01*
X008065Y005804D01*
X008153Y005767D01*
X008248Y005767D01*
X008336Y005804D01*
X008403Y005871D01*
X008440Y005959D01*
X008440Y006051D02*
X011345Y006051D01*
X011434Y006170D02*
X008375Y006170D01*
X008201Y006006D02*
X007917Y006006D01*
X008055Y005814D02*
X006353Y005814D01*
X006353Y005696D02*
X011361Y005696D01*
X011351Y005710D02*
X011392Y005648D01*
X011445Y005596D01*
X011507Y005555D01*
X011575Y005526D01*
X011637Y005514D01*
X011637Y005840D01*
X011311Y005840D01*
X011323Y005779D01*
X011351Y005710D01*
X011316Y005814D02*
X008347Y005814D01*
X008626Y005201D02*
X008502Y005150D01*
X008407Y005055D01*
X008356Y004932D01*
X008356Y004798D01*
X008407Y004674D01*
X008502Y004579D01*
X008626Y004528D01*
X008760Y004528D01*
X008883Y004579D01*
X008978Y004674D01*
X009029Y004798D01*
X009029Y004932D01*
X008978Y005055D01*
X008883Y005150D01*
X008760Y005201D01*
X008626Y005201D01*
X008456Y005103D02*
X007946Y005103D01*
X007899Y005150D02*
X007775Y005201D01*
X007642Y005201D01*
X007518Y005150D01*
X007423Y005055D01*
X007372Y004932D01*
X007372Y004798D01*
X007423Y004674D01*
X007518Y004579D01*
X007642Y004528D01*
X007775Y004528D01*
X007899Y004579D01*
X007994Y004674D01*
X008045Y004798D01*
X008045Y004932D01*
X007994Y005055D01*
X007899Y005150D01*
X008023Y004985D02*
X008378Y004985D01*
X008356Y004866D02*
X008045Y004866D01*
X008024Y004748D02*
X008377Y004748D01*
X008452Y004629D02*
X007949Y004629D01*
X007468Y004629D02*
X006926Y004629D01*
X007001Y004748D02*
X007393Y004748D01*
X007372Y004866D02*
X007021Y004866D01*
X006999Y004985D02*
X007394Y004985D01*
X007471Y005103D02*
X006922Y005103D01*
X006444Y004629D02*
X006330Y004629D01*
X006304Y004511D02*
X012548Y004511D01*
X012548Y004629D02*
X010922Y004629D01*
X010966Y004674D02*
X011017Y004798D01*
X011017Y004932D01*
X010966Y005055D01*
X010872Y005150D01*
X010748Y005201D01*
X010614Y005201D01*
X010490Y005150D01*
X010396Y005055D01*
X010344Y004932D01*
X010344Y004798D01*
X010396Y004674D01*
X010490Y004579D01*
X010614Y004528D01*
X010748Y004528D01*
X010872Y004579D01*
X010966Y004674D01*
X010997Y004748D02*
X012548Y004748D01*
X012548Y004866D02*
X011017Y004866D01*
X010995Y004985D02*
X012548Y004985D01*
X012548Y005103D02*
X010918Y005103D01*
X010444Y005103D02*
X009914Y005103D01*
X009868Y005150D02*
X009744Y005201D01*
X009610Y005201D01*
X009486Y005150D01*
X009392Y005055D01*
X009340Y004932D01*
X009340Y004798D01*
X009392Y004674D01*
X009486Y004579D01*
X009610Y004528D01*
X009744Y004528D01*
X009868Y004579D01*
X009962Y004674D01*
X010014Y004798D01*
X010014Y004932D01*
X009962Y005055D01*
X009868Y005150D01*
X009991Y004985D02*
X010367Y004985D01*
X010344Y004866D02*
X010014Y004866D01*
X009993Y004748D02*
X010365Y004748D01*
X010440Y004629D02*
X009918Y004629D01*
X009436Y004629D02*
X008933Y004629D01*
X009009Y004748D02*
X009361Y004748D01*
X009340Y004866D02*
X009029Y004866D01*
X009007Y004985D02*
X009363Y004985D01*
X009440Y005103D02*
X008930Y005103D01*
X008187Y004037D02*
X012548Y004037D01*
X012548Y004155D02*
X006074Y004155D01*
X006182Y004273D02*
X006182Y004273D01*
X006183Y004274D02*
X012548Y004274D01*
X012548Y004392D02*
X006245Y004392D01*
X006302Y004502D02*
X006302Y004502D01*
X006357Y004748D02*
X006369Y004748D01*
X005962Y004299D02*
X005540Y003897D01*
X005777Y003563D02*
X005782Y003563D01*
X005777Y003444D02*
X005782Y003444D01*
X005777Y003326D02*
X005782Y003326D01*
X005777Y003207D02*
X005782Y003207D01*
X005777Y003089D02*
X005782Y003089D01*
X006064Y003326D02*
X008509Y003326D01*
X008966Y003408D02*
X008965Y003445D01*
X008961Y003483D01*
X008953Y003519D01*
X008942Y003555D01*
X008928Y003589D01*
X008911Y003622D01*
X008890Y003654D01*
X008867Y003683D01*
X008841Y003710D01*
X008813Y003734D01*
X008783Y003756D01*
X008751Y003775D01*
X008717Y003791D01*
X008682Y003804D01*
X008646Y003813D01*
X008609Y003819D01*
X008572Y003822D01*
X008516Y003506D02*
X007590Y003506D01*
X007267Y003444D02*
X006064Y003444D01*
X006064Y003563D02*
X007162Y003563D01*
X007077Y003681D02*
X006064Y003681D01*
X005979Y003800D02*
X007036Y003800D01*
X007171Y004037D02*
X005948Y004037D01*
X005962Y004299D02*
X005997Y004339D01*
X006028Y004381D01*
X006057Y004425D01*
X006083Y004470D01*
X006106Y004518D01*
X006125Y004566D01*
X006142Y004616D01*
X006155Y004667D01*
X006164Y004719D01*
X006171Y004771D01*
X006174Y004823D01*
X006173Y004876D01*
X005993Y005577D02*
X005771Y005577D01*
X005925Y005696D02*
X005993Y005696D01*
X005993Y005814D02*
X005975Y005814D01*
X005978Y005933D02*
X005993Y005933D01*
X005992Y006051D02*
X005938Y006051D01*
X005970Y006170D02*
X005836Y006170D01*
X005926Y006288D02*
X004799Y006288D01*
X004799Y006170D02*
X005447Y006170D01*
X005734Y006525D02*
X004799Y006525D01*
X004799Y006407D02*
X005849Y006407D01*
X005942Y006572D02*
X005622Y006892D01*
X005958Y006881D02*
X006461Y006881D01*
X006343Y006999D02*
X005942Y006999D01*
X005872Y007118D02*
X006147Y007118D01*
X006050Y007236D02*
X004799Y007236D01*
X004799Y007118D02*
X005372Y007118D01*
X005302Y006999D02*
X004799Y006999D01*
X004799Y006881D02*
X005285Y006881D01*
X005311Y006762D02*
X004799Y006762D01*
X004799Y006644D02*
X005394Y006644D01*
X004799Y007355D02*
X006032Y007355D01*
X006082Y007473D02*
X004799Y007473D01*
X004799Y007592D02*
X005477Y007592D01*
X005431Y007611D02*
X005555Y007560D01*
X005689Y007560D01*
X005813Y007611D01*
X005907Y007706D01*
X005958Y007829D01*
X007909Y007829D01*
X007796Y007947D02*
X005958Y007947D01*
X005958Y007963D02*
X005907Y008087D01*
X005813Y008182D01*
X005689Y008233D01*
X005555Y008233D01*
X005431Y008182D01*
X005337Y008087D01*
X005285Y007963D01*
X005285Y007829D01*
X005337Y007706D01*
X005431Y007611D01*
X005335Y007710D02*
X004799Y007710D01*
X004799Y007829D02*
X005285Y007829D01*
X005285Y007947D02*
X004799Y007947D01*
X004799Y008066D02*
X005328Y008066D01*
X005438Y008184D02*
X004799Y008184D01*
X004799Y008303D02*
X007520Y008303D01*
X007638Y008184D02*
X005805Y008184D01*
X005916Y008066D02*
X007757Y008066D01*
X008004Y008073D02*
X006640Y009437D01*
X006730Y009606D02*
X008010Y009606D01*
X008018Y009626D02*
X007981Y009538D01*
X007981Y009443D01*
X008018Y009355D01*
X008085Y009288D01*
X008173Y009252D01*
X008268Y009252D01*
X008356Y009288D01*
X008378Y009311D01*
X010883Y009311D01*
X011008Y009305D01*
X011260Y009362D01*
X011260Y009362D01*
X011489Y009482D01*
X011489Y009482D01*
X011579Y009564D01*
X011618Y009548D01*
X011752Y009548D01*
X011876Y009599D01*
X011970Y009694D01*
X012021Y009817D01*
X012021Y009951D01*
X011970Y010075D01*
X011876Y010170D01*
X011843Y010183D01*
X011814Y010212D01*
X011774Y010212D01*
X011752Y010221D01*
X011678Y010221D01*
X011673Y010224D01*
X011661Y010221D01*
X011618Y010221D01*
X011596Y010212D01*
X011575Y010212D01*
X011560Y010197D01*
X011553Y010194D01*
X011536Y010190D01*
X011534Y010186D01*
X011494Y010170D01*
X011400Y010075D01*
X011348Y009951D01*
X011348Y009841D01*
X011345Y009837D01*
X011321Y009818D01*
X011278Y009783D01*
X011134Y009708D01*
X010975Y009672D01*
X010901Y009671D01*
X010890Y009671D01*
X010819Y009674D01*
X010816Y009671D01*
X008378Y009671D01*
X008356Y009693D01*
X008268Y009730D01*
X008173Y009730D01*
X008085Y009693D01*
X008018Y009626D01*
X007981Y009488D02*
X006844Y009488D01*
X006962Y009369D02*
X008012Y009369D01*
X008220Y009491D02*
X010886Y009491D01*
X011008Y009305D02*
X011008Y009305D01*
X011275Y009369D02*
X012548Y009369D01*
X012548Y009251D02*
X007081Y009251D01*
X007199Y009132D02*
X011441Y009132D01*
X011400Y009091D02*
X011494Y009185D01*
X011618Y009237D01*
X011752Y009237D01*
X011876Y009185D01*
X011970Y009091D01*
X012021Y008967D01*
X012021Y008833D01*
X011970Y008710D01*
X011876Y008615D01*
X011752Y008564D01*
X011618Y008564D01*
X011494Y008615D01*
X011484Y008625D01*
X011386Y008595D01*
X011386Y008595D01*
X011313Y008589D01*
X011307Y008582D01*
X011240Y008582D01*
X011173Y008577D01*
X011167Y008582D01*
X009284Y008582D01*
X009261Y008560D01*
X009173Y008523D01*
X009078Y008523D01*
X008990Y008560D01*
X008923Y008627D01*
X008887Y008715D01*
X008887Y008810D01*
X008923Y008898D01*
X008990Y008965D01*
X009078Y009001D01*
X009173Y009001D01*
X009261Y008965D01*
X009284Y008942D01*
X011221Y008942D01*
X011316Y008956D01*
X011348Y008965D01*
X011348Y008967D01*
X011400Y009091D01*
X011368Y009014D02*
X007318Y009014D01*
X007436Y008895D02*
X008922Y008895D01*
X008887Y008777D02*
X007555Y008777D01*
X007673Y008658D02*
X008910Y008658D01*
X009038Y008540D02*
X007792Y008540D01*
X007910Y008421D02*
X012548Y008421D01*
X012548Y008303D02*
X008684Y008303D01*
X008544Y008303D02*
X008077Y008303D01*
X008232Y008184D02*
X008401Y008184D01*
X008375Y008066D02*
X008351Y008066D01*
X008588Y007829D02*
X008615Y007829D01*
X008706Y007710D02*
X008912Y007710D01*
X008825Y007592D02*
X011493Y007592D01*
X011685Y007877D02*
X009123Y007877D01*
X009021Y008066D02*
X011399Y008066D01*
X011549Y008184D02*
X008827Y008184D01*
X009214Y008540D02*
X012548Y008540D01*
X012548Y008658D02*
X011919Y008658D01*
X011998Y008777D02*
X012548Y008777D01*
X012548Y008895D02*
X012021Y008895D01*
X012002Y009014D02*
X012548Y009014D01*
X012548Y009132D02*
X011928Y009132D01*
X011883Y009606D02*
X012548Y009606D01*
X012548Y009488D02*
X011496Y009488D01*
X011463Y009702D02*
X011685Y009884D01*
X011562Y010199D02*
X011223Y010199D01*
X011210Y010187D02*
X011279Y010252D01*
X011281Y010252D01*
X011334Y010302D01*
X011387Y010352D01*
X011387Y010354D01*
X011601Y010559D01*
X011618Y010552D01*
X011752Y010552D01*
X011876Y010603D01*
X011970Y010698D01*
X012021Y010821D01*
X012021Y010955D01*
X011970Y011079D01*
X011876Y011174D01*
X011752Y011225D01*
X011618Y011225D01*
X011494Y011174D01*
X011400Y011079D01*
X011348Y010955D01*
X011348Y010821D01*
X011350Y010817D01*
X011087Y010565D01*
X010995Y010489D01*
X010783Y010377D01*
X010550Y010324D01*
X010435Y010320D01*
X010427Y010320D01*
X010356Y010323D01*
X010353Y010320D01*
X008378Y010320D01*
X008356Y010343D01*
X008268Y010379D01*
X008173Y010379D01*
X008085Y010343D01*
X008018Y010276D01*
X007981Y010188D01*
X007981Y010093D01*
X008018Y010005D01*
X008085Y009938D01*
X008173Y009901D01*
X008268Y009901D01*
X008356Y009938D01*
X008378Y009960D01*
X010421Y009960D01*
X010586Y009954D01*
X010913Y010030D01*
X011210Y010187D01*
X011210Y010187D01*
X011350Y010318D02*
X012548Y010318D01*
X012548Y010436D02*
X011473Y010436D01*
X011597Y010555D02*
X011611Y010555D01*
X011758Y010555D02*
X012548Y010555D01*
X012548Y010673D02*
X011945Y010673D01*
X012009Y010792D02*
X012548Y010792D01*
X012548Y010910D02*
X012021Y010910D01*
X011991Y011029D02*
X012548Y011029D01*
X012548Y011147D02*
X011902Y011147D01*
X011685Y010888D02*
X011210Y010433D01*
X011075Y010555D02*
X006594Y010555D01*
X006596Y010673D02*
X011200Y010673D01*
X011324Y010792D02*
X006597Y010792D01*
X006598Y010910D02*
X011348Y010910D01*
X011379Y011029D02*
X006599Y011029D01*
X006600Y011147D02*
X011468Y011147D01*
X011618Y011556D02*
X011494Y011607D01*
X011400Y011702D01*
X011348Y011825D01*
X011348Y011959D01*
X011400Y012083D01*
X011494Y012178D01*
X011618Y012229D01*
X011752Y012229D01*
X011876Y012178D01*
X011970Y012083D01*
X012021Y011959D01*
X012021Y011825D01*
X011970Y011702D01*
X011876Y011607D01*
X011752Y011556D01*
X011618Y011556D01*
X011480Y011621D02*
X006604Y011621D01*
X006603Y011503D02*
X012548Y011503D01*
X012548Y011621D02*
X011890Y011621D01*
X011986Y011740D02*
X012548Y011740D01*
X012548Y011858D02*
X012021Y011858D01*
X012014Y011977D02*
X012548Y011977D01*
X012548Y012095D02*
X011958Y012095D01*
X011789Y012214D02*
X012548Y012214D01*
X012548Y012332D02*
X006452Y012332D01*
X006520Y012214D02*
X011581Y012214D01*
X011412Y012095D02*
X006563Y012095D01*
X006594Y011977D02*
X011356Y011977D01*
X011348Y011858D02*
X006606Y011858D01*
X006605Y011740D02*
X011384Y011740D01*
X010770Y012569D02*
X012548Y012569D01*
X012548Y012451D02*
X006362Y012451D01*
X006242Y012569D02*
X006595Y012569D01*
X006618Y012560D02*
X006752Y012560D01*
X006876Y012611D01*
X006970Y012706D01*
X007021Y012829D01*
X007021Y012963D01*
X006970Y013087D01*
X006876Y013182D01*
X006752Y013233D01*
X006618Y013233D01*
X006494Y013182D01*
X006400Y013087D01*
X006348Y012963D01*
X006348Y012829D01*
X006400Y012706D01*
X006494Y012611D01*
X006618Y012560D01*
X006774Y012569D02*
X007580Y012569D01*
X007602Y012560D02*
X007479Y012611D01*
X007384Y012706D01*
X007333Y012829D01*
X007333Y012963D01*
X007384Y013087D01*
X007479Y013182D01*
X007602Y013233D01*
X007736Y013233D01*
X007860Y013182D01*
X007954Y013087D01*
X008006Y012963D01*
X008006Y012829D01*
X007954Y012706D01*
X007860Y012611D01*
X007736Y012560D01*
X007602Y012560D01*
X007759Y012569D02*
X008584Y012569D01*
X008606Y012560D02*
X008740Y012560D01*
X008864Y012611D01*
X008958Y012706D01*
X009010Y012829D01*
X009010Y012963D01*
X008958Y013087D01*
X008864Y013182D01*
X008740Y013233D01*
X008606Y013233D01*
X008482Y013182D01*
X008388Y013087D01*
X008337Y012963D01*
X008337Y012829D01*
X008388Y012706D01*
X008482Y012611D01*
X008606Y012560D01*
X008763Y012569D02*
X009489Y012569D01*
X009499Y012563D02*
X009567Y012534D01*
X009629Y012522D01*
X009629Y012848D01*
X009725Y012848D01*
X009725Y012522D01*
X009787Y012534D01*
X009855Y012563D01*
X009917Y012604D01*
X009969Y012656D01*
X010011Y012718D01*
X010039Y012786D01*
X010051Y012848D01*
X009725Y012848D01*
X009725Y012944D01*
X010051Y012944D01*
X010039Y013006D01*
X010011Y013075D01*
X009969Y013136D01*
X009917Y013189D01*
X009855Y013230D01*
X009787Y013258D01*
X009725Y013271D01*
X009725Y012944D01*
X009629Y012944D01*
X009629Y012848D01*
X009303Y012848D01*
X009315Y012786D01*
X009343Y012718D01*
X009385Y012656D01*
X009437Y012604D01*
X009499Y012563D01*
X009629Y012569D02*
X009725Y012569D01*
X009725Y012688D02*
X009629Y012688D01*
X009629Y012806D02*
X009725Y012806D01*
X009725Y012925D02*
X010344Y012925D01*
X010354Y012806D02*
X010043Y012806D01*
X009990Y012688D02*
X010414Y012688D01*
X010592Y012569D02*
X009865Y012569D01*
X009629Y012925D02*
X009010Y012925D01*
X009000Y012806D02*
X009311Y012806D01*
X009364Y012688D02*
X008940Y012688D01*
X008977Y013043D02*
X009330Y013043D01*
X009343Y013075D02*
X009315Y013006D01*
X009303Y012944D01*
X009629Y012944D01*
X009629Y013271D01*
X009567Y013258D01*
X009499Y013230D01*
X009437Y013189D01*
X009385Y013136D01*
X009343Y013075D01*
X009410Y013162D02*
X008884Y013162D01*
X008462Y013162D02*
X007880Y013162D01*
X007973Y013043D02*
X008370Y013043D01*
X008337Y012925D02*
X008006Y012925D01*
X007996Y012806D02*
X008346Y012806D01*
X008406Y012688D02*
X007936Y012688D01*
X007458Y013162D02*
X006896Y013162D01*
X006988Y013043D02*
X007366Y013043D01*
X007333Y012925D02*
X007021Y012925D01*
X007012Y012806D02*
X007342Y012806D01*
X007402Y012688D02*
X006952Y012688D01*
X006418Y012688D02*
X006121Y012688D01*
X006001Y012806D02*
X006358Y012806D01*
X006348Y012925D02*
X005880Y012925D01*
X005760Y013043D02*
X006381Y013043D01*
X006474Y013162D02*
X005639Y013162D01*
X005519Y013280D02*
X010447Y013280D01*
X010447Y013162D02*
X009944Y013162D01*
X010024Y013043D02*
X010377Y013043D01*
X010448Y013399D02*
X005398Y013399D01*
X005278Y013517D02*
X010449Y013517D01*
X010450Y013636D02*
X005214Y013636D01*
X005114Y013754D02*
X010451Y013754D01*
X010451Y013873D02*
X004799Y013873D01*
X004799Y013991D02*
X010452Y013991D01*
X010453Y014110D02*
X004799Y014110D01*
X004799Y014228D02*
X010454Y014228D01*
X010454Y014347D02*
X004799Y014347D01*
X004799Y014465D02*
X005359Y014465D01*
X005368Y014456D02*
X005622Y014350D01*
X005897Y014350D01*
X006151Y014456D01*
X006346Y014650D01*
X006409Y014803D01*
X006473Y014650D01*
X006667Y014456D01*
X006921Y014350D01*
X007196Y014350D01*
X007451Y014456D01*
X007645Y014650D01*
X007750Y014904D01*
X007750Y015179D01*
X007645Y015434D01*
X007451Y015628D01*
X007196Y015733D01*
X006921Y015733D01*
X006667Y015628D01*
X006473Y015434D01*
X006409Y015281D01*
X006346Y015434D01*
X006151Y015628D01*
X005897Y015733D01*
X005622Y015733D01*
X005368Y015628D01*
X005173Y015434D01*
X005068Y015179D01*
X005068Y014904D01*
X005173Y014650D01*
X005368Y014456D01*
X005240Y014584D02*
X004799Y014584D01*
X004799Y014702D02*
X005152Y014702D01*
X005103Y014821D02*
X004799Y014821D01*
X004799Y014939D02*
X005068Y014939D01*
X005068Y015058D02*
X004799Y015058D01*
X004799Y015176D02*
X005068Y015176D01*
X005116Y015295D02*
X004799Y015295D01*
X004799Y015413D02*
X005165Y015413D01*
X005271Y015532D02*
X004799Y015532D01*
X004800Y015650D02*
X005421Y015650D01*
X004981Y016124D02*
X009245Y016124D01*
X009245Y016006D02*
X004895Y016006D01*
X004850Y015887D02*
X009645Y015887D01*
X009645Y015769D02*
X009765Y015769D01*
X009765Y015887D02*
X010285Y015887D01*
X010285Y015769D02*
X010165Y015769D01*
X010165Y015650D02*
X010285Y015650D01*
X010285Y015532D02*
X010165Y015532D01*
X010165Y015413D02*
X010285Y015413D01*
X010285Y015295D02*
X010165Y015295D01*
X010165Y015176D02*
X010285Y015176D01*
X010285Y015058D02*
X010165Y015058D01*
X010100Y014939D02*
X010458Y014939D01*
X010458Y014821D02*
X007716Y014821D01*
X007750Y014939D02*
X009309Y014939D01*
X009245Y015058D02*
X007750Y015058D01*
X007750Y015176D02*
X009245Y015176D01*
X009245Y015295D02*
X007703Y015295D01*
X007654Y015413D02*
X009245Y015413D01*
X009245Y015532D02*
X007547Y015532D01*
X007398Y015650D02*
X009245Y015650D01*
X009245Y015769D02*
X004811Y015769D01*
X005102Y016243D02*
X009245Y016243D01*
X009245Y016361D02*
X005316Y016361D01*
X006099Y015650D02*
X006720Y015650D01*
X006571Y015532D02*
X006248Y015532D01*
X006354Y015413D02*
X006464Y015413D01*
X006415Y015295D02*
X006404Y015295D01*
X006367Y014702D02*
X006451Y014702D01*
X006539Y014584D02*
X006279Y014584D01*
X006161Y014465D02*
X006658Y014465D01*
X007460Y014465D02*
X010455Y014465D01*
X010456Y014584D02*
X007578Y014584D01*
X007667Y014702D02*
X010457Y014702D01*
X010937Y014702D02*
X012548Y014702D01*
X012548Y014584D02*
X010936Y014584D01*
X010935Y014465D02*
X012548Y014465D01*
X012548Y014347D02*
X010934Y014347D01*
X010934Y014228D02*
X012548Y014228D01*
X012548Y014110D02*
X010933Y014110D01*
X010932Y013991D02*
X012548Y013991D01*
X012548Y013873D02*
X010931Y013873D01*
X010931Y013754D02*
X012548Y013754D01*
X012548Y013636D02*
X010930Y013636D01*
X010929Y013517D02*
X012548Y013517D01*
X012548Y013399D02*
X010928Y013399D01*
X010927Y013280D02*
X012548Y013280D01*
X012548Y013162D02*
X010927Y013162D01*
X010984Y013043D02*
X012548Y013043D01*
X012548Y012925D02*
X011017Y012925D01*
X011008Y012806D02*
X012548Y012806D01*
X012548Y012688D02*
X010948Y012688D01*
X011211Y010433D02*
X011164Y010392D01*
X011116Y010354D01*
X011066Y010319D01*
X011013Y010287D01*
X010959Y010257D01*
X010904Y010231D01*
X010847Y010208D01*
X010789Y010188D01*
X010729Y010172D01*
X010669Y010158D01*
X010609Y010149D01*
X010548Y010142D01*
X010486Y010139D01*
X010425Y010140D01*
X010424Y010140D02*
X008220Y010140D01*
X008061Y009962D02*
X006591Y009962D01*
X006590Y010081D02*
X007986Y010081D01*
X007986Y010199D02*
X006591Y010199D01*
X006592Y010318D02*
X008059Y010318D01*
X008161Y009725D02*
X006657Y009725D01*
X006614Y009844D02*
X011348Y009844D01*
X011353Y009962D02*
X010619Y009962D01*
X010586Y009954D02*
X010586Y009954D01*
X010894Y010436D02*
X006593Y010436D01*
X006409Y009994D02*
X006426Y011798D01*
X006245Y011740D02*
X005962Y011740D01*
X005947Y011702D02*
X005998Y011825D01*
X005998Y011959D01*
X005947Y012083D01*
X005852Y012178D01*
X005728Y012229D01*
X005594Y012229D01*
X005471Y012178D01*
X005376Y012083D01*
X005325Y011959D01*
X005325Y011825D01*
X005376Y011702D01*
X005471Y011607D01*
X005594Y011556D01*
X005728Y011556D01*
X005852Y011607D01*
X005947Y011702D01*
X005866Y011621D02*
X006244Y011621D01*
X006243Y011503D02*
X004799Y011503D01*
X004799Y011621D02*
X005457Y011621D01*
X005360Y011740D02*
X004799Y011740D01*
X004799Y011858D02*
X005325Y011858D01*
X005332Y011977D02*
X004799Y011977D01*
X004799Y012095D02*
X005388Y012095D01*
X005557Y012214D02*
X004799Y012214D01*
X004799Y012332D02*
X005969Y012332D01*
X006087Y012214D02*
X005765Y012214D01*
X005934Y012095D02*
X006167Y012095D01*
X006216Y011977D02*
X005991Y011977D01*
X005998Y011858D02*
X006243Y011858D01*
X006195Y012362D02*
X004992Y013546D01*
X004801Y013399D02*
X004799Y013399D01*
X004799Y013280D02*
X005006Y013280D01*
X005126Y013162D02*
X004799Y013162D01*
X004799Y013043D02*
X005246Y013043D01*
X005367Y012925D02*
X004799Y012925D01*
X004799Y012806D02*
X005487Y012806D01*
X005608Y012688D02*
X004799Y012688D01*
X004799Y012569D02*
X005728Y012569D01*
X005849Y012451D02*
X004799Y012451D01*
X006195Y012361D02*
X006231Y012323D01*
X006264Y012283D01*
X006294Y012241D01*
X006322Y012196D01*
X006346Y012150D01*
X006367Y012103D01*
X006386Y012054D01*
X006400Y012004D01*
X006412Y011953D01*
X006420Y011902D01*
X006425Y011850D01*
X006426Y011798D01*
X006602Y011384D02*
X012548Y011384D01*
X012548Y011266D02*
X006601Y011266D01*
X006241Y011266D02*
X004799Y011266D01*
X004799Y011384D02*
X006242Y011384D01*
X006240Y011147D02*
X005859Y011147D01*
X005832Y011174D02*
X005927Y011079D01*
X005978Y010955D01*
X005978Y010821D01*
X005927Y010698D01*
X005832Y010603D01*
X005709Y010552D01*
X005575Y010552D01*
X005451Y010603D01*
X005356Y010698D01*
X005305Y010821D01*
X005305Y010955D01*
X005356Y011079D01*
X005451Y011174D01*
X005575Y011225D01*
X005709Y011225D01*
X005832Y011174D01*
X005948Y011029D02*
X006239Y011029D01*
X006238Y010910D02*
X005978Y010910D01*
X005966Y010792D02*
X006237Y010792D01*
X006236Y010673D02*
X005902Y010673D01*
X005715Y010555D02*
X006234Y010555D01*
X006233Y010436D02*
X004799Y010436D01*
X004799Y010318D02*
X006232Y010318D01*
X006231Y010199D02*
X005761Y010199D01*
X005709Y010221D02*
X005832Y010170D01*
X005927Y010075D01*
X005978Y009951D01*
X005978Y009817D01*
X005927Y009694D01*
X005832Y009599D01*
X005709Y009548D01*
X005575Y009548D01*
X005451Y009599D01*
X005356Y009694D01*
X005305Y009817D01*
X005305Y009951D01*
X005356Y010075D01*
X005451Y010170D01*
X005575Y010221D01*
X005709Y010221D01*
X005522Y010199D02*
X004799Y010199D01*
X004799Y010081D02*
X005362Y010081D01*
X005309Y009962D02*
X004799Y009962D01*
X004799Y009844D02*
X005305Y009844D01*
X005343Y009725D02*
X004799Y009725D01*
X004799Y009606D02*
X005444Y009606D01*
X005840Y009606D02*
X006303Y009606D01*
X006267Y009725D02*
X005940Y009725D01*
X005978Y009844D02*
X006236Y009844D01*
X006229Y009962D02*
X005974Y009962D01*
X005921Y010081D02*
X006230Y010081D01*
X006372Y009488D02*
X004799Y009488D01*
X004799Y009369D02*
X006453Y009369D01*
X006572Y009251D02*
X004799Y009251D01*
X004799Y009132D02*
X005418Y009132D01*
X005451Y009166D02*
X005356Y009071D01*
X005305Y008947D01*
X005305Y008814D01*
X005356Y008690D01*
X005451Y008595D01*
X005575Y008544D01*
X005709Y008544D01*
X005832Y008595D01*
X005927Y008690D01*
X005978Y008814D01*
X005978Y008947D01*
X005927Y009071D01*
X005832Y009166D01*
X005709Y009217D01*
X005575Y009217D01*
X005451Y009166D01*
X005333Y009014D02*
X004799Y009014D01*
X004799Y008895D02*
X005305Y008895D01*
X005320Y008777D02*
X004799Y008777D01*
X004799Y008658D02*
X005388Y008658D01*
X005896Y008658D02*
X007164Y008658D01*
X007283Y008540D02*
X004799Y008540D01*
X004799Y008421D02*
X007401Y008421D01*
X007046Y008777D02*
X005963Y008777D01*
X005978Y008895D02*
X006927Y008895D01*
X006809Y009014D02*
X005951Y009014D01*
X005865Y009132D02*
X006690Y009132D01*
X006641Y009438D02*
X006605Y009475D01*
X006573Y009515D01*
X006543Y009557D01*
X006515Y009600D01*
X006491Y009646D01*
X006470Y009693D01*
X006452Y009741D01*
X006437Y009790D01*
X006425Y009840D01*
X006417Y009891D01*
X006412Y009943D01*
X006410Y009994D01*
X005568Y010555D02*
X004799Y010555D01*
X004799Y010673D02*
X005381Y010673D01*
X005317Y010792D02*
X004799Y010792D01*
X004799Y010910D02*
X005305Y010910D01*
X005335Y011029D02*
X004799Y011029D01*
X004799Y011147D02*
X005424Y011147D01*
X004870Y013754D02*
X004799Y013754D01*
X008279Y009725D02*
X011166Y009725D01*
X011232Y008762D02*
X011292Y008769D01*
X011350Y008779D01*
X011409Y008792D01*
X011466Y008807D01*
X011522Y008826D01*
X011578Y008848D01*
X011632Y008873D01*
X011685Y008900D01*
X011232Y008762D02*
X009126Y008762D01*
X008614Y008073D02*
X008652Y008040D01*
X008693Y008010D01*
X008736Y007982D01*
X008780Y007958D01*
X008827Y007936D01*
X008874Y007918D01*
X008922Y007903D01*
X008972Y007891D01*
X009022Y007883D01*
X009072Y007878D01*
X009123Y007876D01*
X008943Y007473D02*
X012548Y007473D01*
X012548Y007355D02*
X009062Y007355D01*
X009185Y007236D02*
X012548Y007236D01*
X012548Y007118D02*
X011915Y007118D01*
X011997Y006999D02*
X012548Y006999D01*
X012548Y006881D02*
X012021Y006881D01*
X012004Y006762D02*
X012548Y006762D01*
X012548Y006644D02*
X011932Y006644D01*
X011936Y006170D02*
X012548Y006170D01*
X012548Y006288D02*
X007587Y006288D01*
X007444Y006407D02*
X012548Y006407D01*
X012548Y006525D02*
X007326Y006525D01*
X007207Y006644D02*
X009353Y006644D01*
X009457Y007118D02*
X011454Y007118D01*
X011876Y007592D02*
X012548Y007592D01*
X012548Y007710D02*
X011980Y007710D01*
X012021Y007829D02*
X012548Y007829D01*
X012548Y007947D02*
X012020Y007947D01*
X011971Y008066D02*
X012548Y008066D01*
X012548Y008184D02*
X011821Y008184D01*
X011983Y009725D02*
X012548Y009725D01*
X012548Y009844D02*
X012021Y009844D01*
X012017Y009962D02*
X012548Y009962D01*
X012548Y010081D02*
X011965Y010081D01*
X011827Y010199D02*
X012548Y010199D01*
X011405Y010081D02*
X011009Y010081D01*
X010913Y010030D02*
X010913Y010030D01*
X010886Y009491D02*
X010939Y009490D01*
X010991Y009493D01*
X011043Y009500D01*
X011095Y009509D01*
X011146Y009522D01*
X011196Y009539D01*
X011244Y009558D01*
X011292Y009581D01*
X011337Y009607D01*
X011381Y009636D01*
X011423Y009667D01*
X011463Y009702D01*
X009725Y013043D02*
X009629Y013043D01*
X009629Y013162D02*
X009725Y013162D01*
X009765Y014939D02*
X009645Y014939D01*
X009645Y015058D02*
X009765Y015058D01*
X009765Y015176D02*
X009645Y015176D01*
X009645Y015295D02*
X009765Y015295D01*
X009765Y015413D02*
X009645Y015413D01*
X009645Y015532D02*
X009765Y015532D01*
X009765Y015650D02*
X009645Y015650D01*
X010165Y016006D02*
X010285Y016006D01*
X010285Y016124D02*
X010165Y016124D01*
X010165Y016243D02*
X010285Y016243D01*
X010285Y016361D02*
X010165Y016361D01*
X011125Y016361D02*
X011245Y016361D01*
X011245Y016243D02*
X011125Y016243D01*
X011125Y016124D02*
X011245Y016124D01*
X011245Y016006D02*
X011125Y016006D01*
X011125Y015887D02*
X011645Y015887D01*
X011645Y015769D02*
X011765Y015769D01*
X011765Y015887D02*
X012496Y015887D01*
X012535Y015769D02*
X012165Y015769D01*
X012165Y015650D02*
X012546Y015650D01*
X012548Y015532D02*
X012165Y015532D01*
X012165Y015413D02*
X012548Y015413D01*
X012548Y015295D02*
X012165Y015295D01*
X012165Y015176D02*
X012548Y015176D01*
X012548Y015058D02*
X012165Y015058D01*
X012100Y014939D02*
X012548Y014939D01*
X012548Y014821D02*
X010938Y014821D01*
X010938Y014939D02*
X011309Y014939D01*
X011245Y015058D02*
X011125Y015058D01*
X011125Y015176D02*
X011245Y015176D01*
X011245Y015295D02*
X011125Y015295D01*
X011125Y015413D02*
X011245Y015413D01*
X011245Y015532D02*
X011125Y015532D01*
X011125Y015650D02*
X011245Y015650D01*
X011245Y015769D02*
X011125Y015769D01*
X011645Y015650D02*
X011765Y015650D01*
X011765Y015532D02*
X011645Y015532D01*
X011645Y015413D02*
X011765Y015413D01*
X011765Y015295D02*
X011645Y015295D01*
X011645Y015176D02*
X011765Y015176D01*
X011765Y015058D02*
X011645Y015058D01*
X011645Y014939D02*
X011765Y014939D01*
X012165Y016006D02*
X012452Y016006D01*
X012366Y016124D02*
X012165Y016124D01*
X012165Y016243D02*
X012244Y016243D01*
X005958Y007963D02*
X005958Y007829D01*
X005909Y007710D02*
X008027Y007710D01*
X008146Y007592D02*
X005767Y007592D01*
X006272Y007325D02*
X007360Y006237D01*
X007291Y006051D02*
X006353Y006051D01*
X006351Y006161D02*
X006351Y006161D01*
X006349Y006170D02*
X007172Y006170D01*
X007054Y006288D02*
X006316Y006288D01*
X006280Y006407D02*
X006935Y006407D01*
X006817Y006525D02*
X006210Y006525D01*
X006157Y006614D02*
X006157Y006614D01*
X006126Y006644D02*
X006698Y006644D01*
X006580Y006762D02*
X006006Y006762D01*
X006615Y007236D02*
X008501Y007236D01*
X008620Y007118D02*
X006733Y007118D01*
X006852Y006999D02*
X008738Y006999D01*
X008857Y006881D02*
X006970Y006881D01*
X007089Y006762D02*
X009030Y006762D01*
X008383Y007355D02*
X006511Y007355D01*
X006461Y007473D02*
X008264Y007473D01*
X007917Y006007D02*
X007866Y006009D01*
X007814Y006014D01*
X007763Y006022D01*
X007713Y006034D01*
X007664Y006049D01*
X007616Y006067D01*
X007569Y006088D01*
X007523Y006112D01*
X007480Y006140D01*
X007438Y006170D01*
X007398Y006202D01*
X007361Y006238D01*
X007323Y006020D02*
X007323Y006020D01*
X007473Y005933D02*
X006353Y005933D01*
X006353Y005577D02*
X011472Y005577D01*
X011637Y005577D02*
X011733Y005577D01*
X011733Y005696D02*
X011637Y005696D01*
X011637Y005814D02*
X011733Y005814D01*
X011733Y006051D02*
X011637Y006051D01*
X011637Y006170D02*
X011733Y006170D01*
X012548Y003207D02*
X009378Y003207D01*
X008965Y003051D02*
X008964Y003043D01*
X008965Y003035D01*
X008968Y003028D01*
X009784Y003089D02*
X010390Y003089D01*
X010262Y002970D02*
X009855Y002970D01*
X009851Y002852D02*
X010200Y002852D01*
X010507Y002141D02*
X012548Y002141D01*
X012548Y002259D02*
X010867Y002259D01*
X011011Y002378D02*
X012548Y002378D01*
X012548Y002496D02*
X011079Y002496D01*
X011116Y002615D02*
X012548Y002615D01*
X012548Y002733D02*
X011116Y002733D01*
X011084Y002852D02*
X012548Y002852D01*
X012548Y002970D02*
X011022Y002970D01*
X010893Y003089D02*
X012548Y003089D01*
X012548Y002022D02*
X010507Y002022D01*
X010507Y001904D02*
X012548Y001904D01*
X012548Y001785D02*
X010507Y001785D01*
X010507Y001667D02*
X010528Y001667D01*
X010756Y001667D02*
X012548Y001667D01*
X012548Y001548D02*
X010994Y001548D01*
X011113Y001430D02*
X012548Y001430D01*
X012542Y001311D02*
X011165Y001311D01*
X011204Y001193D02*
X012518Y001193D01*
X012479Y001074D02*
X011204Y001074D01*
X011189Y000956D02*
X012414Y000956D01*
X012328Y000837D02*
X011140Y000837D01*
X011052Y000719D02*
X012173Y000719D01*
X011818Y000600D02*
X010895Y000600D01*
X007963Y002852D02*
X007186Y002852D01*
X007380Y004037D02*
X007978Y004037D01*
X007543Y005892D02*
X007543Y005892D01*
D18*
X008201Y006006D03*
X008004Y008073D03*
X008614Y008073D03*
X009126Y008762D03*
X008220Y009491D03*
X008220Y010140D03*
X006272Y008369D03*
X006272Y007325D03*
X007275Y003821D03*
X008083Y003821D03*
X009618Y002916D03*
X011055Y003132D03*
X006311Y003113D03*
X004992Y013546D03*
X010071Y013428D03*
X010071Y013900D03*
X010071Y014373D03*
X011272Y014373D03*
X011272Y013900D03*
X011272Y013428D03*
D19*
X010685Y012896D02*
X010705Y015869D01*
X010681Y012896D02*
X010685Y012896D01*
X008004Y008073D02*
X008974Y007103D01*
X009531Y006873D02*
X011685Y006873D01*
X009531Y006873D02*
X009480Y006875D01*
X009428Y006880D01*
X009377Y006888D01*
X009327Y006900D01*
X009278Y006915D01*
X009230Y006933D01*
X009183Y006954D01*
X009137Y006978D01*
X009094Y007006D01*
X009052Y007036D01*
X009012Y007068D01*
X008975Y007104D01*
X009283Y002916D02*
X009618Y002916D01*
M02*
