G75*
%MOIN*%
%OFA0B0*%
%FSLAX25Y25*%
%IPPOS*%
%LPD*%
%AMOC8*
5,1,8,0,0,1.08239X$1,22.5*
%
%ADD10C,0.01200*%
%ADD11C,0.01000*%
%ADD12C,0.00800*%
%ADD13C,0.00400*%
%ADD14R,0.01378X0.01378*%
%ADD15R,0.03937X0.01575*%
%ADD16R,0.03937X0.01378*%
%ADD17C,0.00000*%
%ADD18C,0.00600*%
D10*
X0045786Y0013765D02*
X0045786Y0156364D01*
X0045789Y0156606D01*
X0045798Y0156847D01*
X0045812Y0157088D01*
X0045833Y0157329D01*
X0045859Y0157569D01*
X0045891Y0157809D01*
X0045929Y0158048D01*
X0045972Y0158285D01*
X0046022Y0158522D01*
X0046077Y0158757D01*
X0046137Y0158991D01*
X0046204Y0159223D01*
X0046275Y0159454D01*
X0046353Y0159683D01*
X0046436Y0159910D01*
X0046524Y0160135D01*
X0046618Y0160358D01*
X0046717Y0160578D01*
X0046822Y0160796D01*
X0046931Y0161011D01*
X0047046Y0161224D01*
X0047166Y0161434D01*
X0047291Y0161640D01*
X0047421Y0161844D01*
X0047556Y0162045D01*
X0047696Y0162242D01*
X0047840Y0162436D01*
X0047989Y0162626D01*
X0048143Y0162812D01*
X0048301Y0162995D01*
X0048463Y0163174D01*
X0048630Y0163349D01*
X0048801Y0163520D01*
X0048976Y0163687D01*
X0049155Y0163849D01*
X0049338Y0164007D01*
X0049524Y0164161D01*
X0049714Y0164310D01*
X0049908Y0164454D01*
X0050105Y0164594D01*
X0050306Y0164729D01*
X0050510Y0164859D01*
X0050716Y0164984D01*
X0050926Y0165104D01*
X0051139Y0165219D01*
X0051354Y0165328D01*
X0051572Y0165433D01*
X0051792Y0165532D01*
X0052015Y0165626D01*
X0052240Y0165714D01*
X0052467Y0165797D01*
X0052696Y0165875D01*
X0052927Y0165946D01*
X0053159Y0166013D01*
X0053393Y0166073D01*
X0053628Y0166128D01*
X0053865Y0166178D01*
X0054102Y0166221D01*
X0054341Y0166259D01*
X0054581Y0166291D01*
X0054821Y0166317D01*
X0055062Y0166338D01*
X0055303Y0166352D01*
X0055544Y0166361D01*
X0055786Y0166364D01*
X0117676Y0166364D01*
X0117918Y0166361D01*
X0118159Y0166352D01*
X0118400Y0166338D01*
X0118641Y0166317D01*
X0118881Y0166291D01*
X0119121Y0166259D01*
X0119360Y0166221D01*
X0119597Y0166178D01*
X0119834Y0166128D01*
X0120069Y0166073D01*
X0120303Y0166013D01*
X0120535Y0165946D01*
X0120766Y0165875D01*
X0120995Y0165797D01*
X0121222Y0165714D01*
X0121447Y0165626D01*
X0121670Y0165532D01*
X0121890Y0165433D01*
X0122108Y0165328D01*
X0122323Y0165219D01*
X0122536Y0165104D01*
X0122746Y0164984D01*
X0122952Y0164859D01*
X0123156Y0164729D01*
X0123357Y0164594D01*
X0123554Y0164454D01*
X0123748Y0164310D01*
X0123938Y0164161D01*
X0124124Y0164007D01*
X0124307Y0163849D01*
X0124486Y0163687D01*
X0124661Y0163520D01*
X0124832Y0163349D01*
X0124999Y0163174D01*
X0125161Y0162995D01*
X0125319Y0162812D01*
X0125473Y0162626D01*
X0125622Y0162436D01*
X0125766Y0162242D01*
X0125906Y0162045D01*
X0126041Y0161844D01*
X0126171Y0161640D01*
X0126296Y0161434D01*
X0126416Y0161224D01*
X0126531Y0161011D01*
X0126640Y0160796D01*
X0126745Y0160578D01*
X0126844Y0160358D01*
X0126938Y0160135D01*
X0127026Y0159910D01*
X0127109Y0159683D01*
X0127187Y0159454D01*
X0127258Y0159223D01*
X0127325Y0158991D01*
X0127385Y0158757D01*
X0127440Y0158522D01*
X0127490Y0158285D01*
X0127533Y0158048D01*
X0127571Y0157809D01*
X0127603Y0157569D01*
X0127629Y0157329D01*
X0127650Y0157088D01*
X0127664Y0156847D01*
X0127673Y0156606D01*
X0127676Y0156364D01*
X0127676Y0013765D01*
X0127673Y0013523D01*
X0127664Y0013282D01*
X0127650Y0013041D01*
X0127629Y0012800D01*
X0127603Y0012560D01*
X0127571Y0012320D01*
X0127533Y0012081D01*
X0127490Y0011844D01*
X0127440Y0011607D01*
X0127385Y0011372D01*
X0127325Y0011138D01*
X0127258Y0010906D01*
X0127187Y0010675D01*
X0127109Y0010446D01*
X0127026Y0010219D01*
X0126938Y0009994D01*
X0126844Y0009771D01*
X0126745Y0009551D01*
X0126640Y0009333D01*
X0126531Y0009118D01*
X0126416Y0008905D01*
X0126296Y0008695D01*
X0126171Y0008489D01*
X0126041Y0008285D01*
X0125906Y0008084D01*
X0125766Y0007887D01*
X0125622Y0007693D01*
X0125473Y0007503D01*
X0125319Y0007317D01*
X0125161Y0007134D01*
X0124999Y0006955D01*
X0124832Y0006780D01*
X0124661Y0006609D01*
X0124486Y0006442D01*
X0124307Y0006280D01*
X0124124Y0006122D01*
X0123938Y0005968D01*
X0123748Y0005819D01*
X0123554Y0005675D01*
X0123357Y0005535D01*
X0123156Y0005400D01*
X0122952Y0005270D01*
X0122746Y0005145D01*
X0122536Y0005025D01*
X0122323Y0004910D01*
X0122108Y0004801D01*
X0121890Y0004696D01*
X0121670Y0004597D01*
X0121447Y0004503D01*
X0121222Y0004415D01*
X0120995Y0004332D01*
X0120766Y0004254D01*
X0120535Y0004183D01*
X0120303Y0004116D01*
X0120069Y0004056D01*
X0119834Y0004001D01*
X0119597Y0003951D01*
X0119360Y0003908D01*
X0119121Y0003870D01*
X0118881Y0003838D01*
X0118641Y0003812D01*
X0118400Y0003791D01*
X0118159Y0003777D01*
X0117918Y0003768D01*
X0117676Y0003765D01*
X0102873Y0003765D01*
X0102873Y0023844D01*
X0101101Y0025813D02*
X0072951Y0025813D01*
X0072865Y0025811D01*
X0072779Y0025806D01*
X0072694Y0025796D01*
X0072609Y0025783D01*
X0072525Y0025766D01*
X0072441Y0025746D01*
X0072359Y0025722D01*
X0072278Y0025694D01*
X0072197Y0025663D01*
X0072119Y0025629D01*
X0072042Y0025591D01*
X0071967Y0025549D01*
X0071893Y0025505D01*
X0071822Y0025457D01*
X0071752Y0025406D01*
X0071685Y0025352D01*
X0071621Y0025296D01*
X0071559Y0025236D01*
X0071499Y0025174D01*
X0071443Y0025110D01*
X0071389Y0025043D01*
X0071338Y0024973D01*
X0071290Y0024902D01*
X0071246Y0024829D01*
X0071204Y0024753D01*
X0071166Y0024676D01*
X0071132Y0024598D01*
X0071101Y0024517D01*
X0071073Y0024436D01*
X0071049Y0024354D01*
X0071029Y0024270D01*
X0071012Y0024186D01*
X0070999Y0024101D01*
X0070989Y0024016D01*
X0070984Y0023930D01*
X0070982Y0023844D01*
X0070983Y0023844D02*
X0070983Y0003765D01*
X0055786Y0003765D01*
X0055544Y0003768D01*
X0055303Y0003777D01*
X0055062Y0003791D01*
X0054821Y0003812D01*
X0054581Y0003838D01*
X0054341Y0003870D01*
X0054102Y0003908D01*
X0053865Y0003951D01*
X0053628Y0004001D01*
X0053393Y0004056D01*
X0053159Y0004116D01*
X0052927Y0004183D01*
X0052696Y0004254D01*
X0052467Y0004332D01*
X0052240Y0004415D01*
X0052015Y0004503D01*
X0051792Y0004597D01*
X0051572Y0004696D01*
X0051354Y0004801D01*
X0051139Y0004910D01*
X0050926Y0005025D01*
X0050716Y0005145D01*
X0050510Y0005270D01*
X0050306Y0005400D01*
X0050105Y0005535D01*
X0049908Y0005675D01*
X0049714Y0005819D01*
X0049524Y0005968D01*
X0049338Y0006122D01*
X0049155Y0006280D01*
X0048976Y0006442D01*
X0048801Y0006609D01*
X0048630Y0006780D01*
X0048463Y0006955D01*
X0048301Y0007134D01*
X0048143Y0007317D01*
X0047989Y0007503D01*
X0047840Y0007693D01*
X0047696Y0007887D01*
X0047556Y0008084D01*
X0047421Y0008285D01*
X0047291Y0008489D01*
X0047166Y0008695D01*
X0047046Y0008905D01*
X0046931Y0009118D01*
X0046822Y0009333D01*
X0046717Y0009551D01*
X0046618Y0009771D01*
X0046524Y0009994D01*
X0046436Y0010219D01*
X0046353Y0010446D01*
X0046275Y0010675D01*
X0046204Y0010906D01*
X0046137Y0011138D01*
X0046077Y0011372D01*
X0046022Y0011607D01*
X0045972Y0011844D01*
X0045929Y0012081D01*
X0045891Y0012320D01*
X0045859Y0012560D01*
X0045833Y0012800D01*
X0045812Y0013041D01*
X0045798Y0013282D01*
X0045789Y0013523D01*
X0045786Y0013765D01*
X0101100Y0025813D02*
X0101184Y0025807D01*
X0101268Y0025797D01*
X0101351Y0025783D01*
X0101433Y0025766D01*
X0101514Y0025745D01*
X0101594Y0025720D01*
X0101674Y0025691D01*
X0101751Y0025660D01*
X0101828Y0025624D01*
X0101902Y0025585D01*
X0101975Y0025543D01*
X0102046Y0025498D01*
X0102115Y0025450D01*
X0102181Y0025398D01*
X0102245Y0025344D01*
X0102307Y0025287D01*
X0102366Y0025227D01*
X0102422Y0025164D01*
X0102475Y0025099D01*
X0102526Y0025032D01*
X0102573Y0024963D01*
X0102617Y0024891D01*
X0102658Y0024818D01*
X0102696Y0024743D01*
X0102730Y0024666D01*
X0102761Y0024588D01*
X0102788Y0024508D01*
X0102811Y0024427D01*
X0102831Y0024346D01*
X0102847Y0024263D01*
X0102860Y0024180D01*
X0102869Y0024097D01*
X0102874Y0024013D01*
X0102875Y0023929D01*
X0102872Y0023845D01*
D11*
X0061687Y0064771D02*
X0056082Y0064771D01*
X0056082Y0061969D01*
X0057017Y0061034D01*
X0058885Y0061034D01*
X0059819Y0061969D01*
X0059819Y0064771D01*
X0058885Y0067112D02*
X0059819Y0068046D01*
X0059819Y0070848D01*
X0056082Y0070848D01*
X0056082Y0073189D02*
X0056082Y0074123D01*
X0059819Y0074123D01*
X0059819Y0073189D02*
X0059819Y0075057D01*
X0059819Y0077240D02*
X0059819Y0079109D01*
X0059819Y0078174D02*
X0054214Y0078174D01*
X0054214Y0077240D01*
X0054214Y0074123D02*
X0053280Y0074123D01*
X0056082Y0067112D02*
X0058885Y0067112D01*
X0059819Y0081292D02*
X0059819Y0083160D01*
X0059819Y0082226D02*
X0056082Y0082226D01*
X0056082Y0081292D01*
X0054214Y0082226D02*
X0053280Y0082226D01*
X0056082Y0085343D02*
X0059819Y0089080D01*
X0059819Y0091420D02*
X0059819Y0092354D01*
X0058885Y0092354D01*
X0058885Y0091420D01*
X0059819Y0091420D01*
X0058885Y0094459D02*
X0057017Y0094459D01*
X0056082Y0095393D01*
X0056082Y0098195D01*
X0057017Y0100536D02*
X0058885Y0100536D01*
X0059819Y0101470D01*
X0059819Y0103339D01*
X0058885Y0104273D01*
X0057017Y0104273D01*
X0056082Y0103339D01*
X0056082Y0101470D01*
X0057017Y0100536D01*
X0059819Y0098195D02*
X0059819Y0095393D01*
X0058885Y0094459D01*
X0056082Y0089080D02*
X0059819Y0085343D01*
X0059819Y0106613D02*
X0056082Y0106613D01*
X0056082Y0107547D01*
X0057017Y0108482D01*
X0056082Y0109416D01*
X0057017Y0110350D01*
X0059819Y0110350D01*
X0059819Y0108482D02*
X0057017Y0108482D01*
X0051331Y0145104D02*
X0051333Y0145151D01*
X0051339Y0145197D01*
X0051348Y0145243D01*
X0051362Y0145287D01*
X0051379Y0145331D01*
X0051400Y0145372D01*
X0051424Y0145412D01*
X0051451Y0145450D01*
X0051482Y0145485D01*
X0051515Y0145518D01*
X0051551Y0145548D01*
X0051590Y0145574D01*
X0051630Y0145598D01*
X0051672Y0145617D01*
X0051716Y0145634D01*
X0051761Y0145646D01*
X0051807Y0145655D01*
X0051853Y0145660D01*
X0051900Y0145661D01*
X0051946Y0145658D01*
X0051992Y0145651D01*
X0052038Y0145640D01*
X0052082Y0145626D01*
X0052125Y0145608D01*
X0052166Y0145586D01*
X0052206Y0145561D01*
X0052243Y0145533D01*
X0052278Y0145502D01*
X0052310Y0145468D01*
X0052339Y0145431D01*
X0052364Y0145393D01*
X0052387Y0145352D01*
X0052406Y0145309D01*
X0052421Y0145265D01*
X0052433Y0145220D01*
X0052441Y0145174D01*
X0052445Y0145127D01*
X0052445Y0145081D01*
X0052441Y0145034D01*
X0052433Y0144988D01*
X0052421Y0144943D01*
X0052406Y0144899D01*
X0052387Y0144856D01*
X0052364Y0144815D01*
X0052339Y0144777D01*
X0052310Y0144740D01*
X0052278Y0144706D01*
X0052243Y0144675D01*
X0052206Y0144647D01*
X0052167Y0144622D01*
X0052125Y0144600D01*
X0052082Y0144582D01*
X0052038Y0144568D01*
X0051992Y0144557D01*
X0051946Y0144550D01*
X0051900Y0144547D01*
X0051853Y0144548D01*
X0051807Y0144553D01*
X0051761Y0144562D01*
X0051716Y0144574D01*
X0051672Y0144591D01*
X0051630Y0144610D01*
X0051590Y0144634D01*
X0051551Y0144660D01*
X0051515Y0144690D01*
X0051482Y0144723D01*
X0051451Y0144758D01*
X0051424Y0144796D01*
X0051400Y0144836D01*
X0051379Y0144877D01*
X0051362Y0144921D01*
X0051348Y0144965D01*
X0051339Y0145011D01*
X0051333Y0145057D01*
X0051331Y0145104D01*
X0064323Y0145104D02*
X0064325Y0145151D01*
X0064331Y0145197D01*
X0064340Y0145243D01*
X0064354Y0145287D01*
X0064371Y0145331D01*
X0064392Y0145372D01*
X0064416Y0145412D01*
X0064443Y0145450D01*
X0064474Y0145485D01*
X0064507Y0145518D01*
X0064543Y0145548D01*
X0064582Y0145574D01*
X0064622Y0145598D01*
X0064664Y0145617D01*
X0064708Y0145634D01*
X0064753Y0145646D01*
X0064799Y0145655D01*
X0064845Y0145660D01*
X0064892Y0145661D01*
X0064938Y0145658D01*
X0064984Y0145651D01*
X0065030Y0145640D01*
X0065074Y0145626D01*
X0065117Y0145608D01*
X0065158Y0145586D01*
X0065198Y0145561D01*
X0065235Y0145533D01*
X0065270Y0145502D01*
X0065302Y0145468D01*
X0065331Y0145431D01*
X0065356Y0145393D01*
X0065379Y0145352D01*
X0065398Y0145309D01*
X0065413Y0145265D01*
X0065425Y0145220D01*
X0065433Y0145174D01*
X0065437Y0145127D01*
X0065437Y0145081D01*
X0065433Y0145034D01*
X0065425Y0144988D01*
X0065413Y0144943D01*
X0065398Y0144899D01*
X0065379Y0144856D01*
X0065356Y0144815D01*
X0065331Y0144777D01*
X0065302Y0144740D01*
X0065270Y0144706D01*
X0065235Y0144675D01*
X0065198Y0144647D01*
X0065159Y0144622D01*
X0065117Y0144600D01*
X0065074Y0144582D01*
X0065030Y0144568D01*
X0064984Y0144557D01*
X0064938Y0144550D01*
X0064892Y0144547D01*
X0064845Y0144548D01*
X0064799Y0144553D01*
X0064753Y0144562D01*
X0064708Y0144574D01*
X0064664Y0144591D01*
X0064622Y0144610D01*
X0064582Y0144634D01*
X0064543Y0144660D01*
X0064507Y0144690D01*
X0064474Y0144723D01*
X0064443Y0144758D01*
X0064416Y0144796D01*
X0064392Y0144836D01*
X0064371Y0144877D01*
X0064354Y0144921D01*
X0064340Y0144965D01*
X0064331Y0145011D01*
X0064325Y0145057D01*
X0064323Y0145104D01*
D12*
X0068426Y0084637D02*
X0088106Y0084637D01*
X0088106Y0068957D01*
X0068426Y0068957D01*
X0068426Y0084637D01*
X0088106Y0078797D02*
X0088018Y0078795D01*
X0087929Y0078789D01*
X0087841Y0078779D01*
X0087754Y0078766D01*
X0087667Y0078748D01*
X0087581Y0078727D01*
X0087496Y0078702D01*
X0087413Y0078673D01*
X0087330Y0078640D01*
X0087250Y0078604D01*
X0087171Y0078565D01*
X0087093Y0078522D01*
X0087018Y0078475D01*
X0086945Y0078425D01*
X0086874Y0078372D01*
X0086805Y0078316D01*
X0086739Y0078257D01*
X0086676Y0078195D01*
X0086616Y0078131D01*
X0086558Y0078064D01*
X0086504Y0077994D01*
X0086452Y0077922D01*
X0086404Y0077848D01*
X0086359Y0077771D01*
X0086318Y0077693D01*
X0086280Y0077613D01*
X0086246Y0077532D01*
X0086215Y0077449D01*
X0086188Y0077364D01*
X0086165Y0077279D01*
X0086146Y0077193D01*
X0086130Y0077105D01*
X0086118Y0077018D01*
X0086110Y0076930D01*
X0086106Y0076841D01*
X0086106Y0076753D01*
X0086110Y0076664D01*
X0086118Y0076576D01*
X0086130Y0076489D01*
X0086146Y0076401D01*
X0086165Y0076315D01*
X0086188Y0076230D01*
X0086215Y0076145D01*
X0086246Y0076062D01*
X0086280Y0075981D01*
X0086318Y0075901D01*
X0086359Y0075823D01*
X0086404Y0075746D01*
X0086452Y0075672D01*
X0086504Y0075600D01*
X0086558Y0075530D01*
X0086616Y0075463D01*
X0086676Y0075399D01*
X0086739Y0075337D01*
X0086805Y0075278D01*
X0086874Y0075222D01*
X0086945Y0075169D01*
X0087018Y0075119D01*
X0087093Y0075072D01*
X0087171Y0075029D01*
X0087250Y0074990D01*
X0087330Y0074954D01*
X0087413Y0074921D01*
X0087496Y0074892D01*
X0087581Y0074867D01*
X0087667Y0074846D01*
X0087754Y0074828D01*
X0087841Y0074815D01*
X0087929Y0074805D01*
X0088018Y0074799D01*
X0088106Y0074797D01*
X0091123Y0071737D02*
X0091123Y0070336D01*
X0091824Y0069635D01*
X0091824Y0067834D02*
X0091123Y0067133D01*
X0091123Y0065732D01*
X0091824Y0065031D01*
X0094626Y0065031D01*
X0095327Y0065732D01*
X0095327Y0067133D01*
X0094626Y0067834D01*
X0094626Y0069635D02*
X0095327Y0070336D01*
X0095327Y0071737D01*
X0094626Y0072438D01*
X0093926Y0072438D01*
X0093225Y0071737D01*
X0093225Y0071037D01*
X0093225Y0071737D02*
X0092524Y0072438D01*
X0091824Y0072438D01*
X0091123Y0071737D01*
X0097344Y0071676D02*
X0098919Y0070101D01*
X0103250Y0070101D01*
X0097344Y0071676D02*
X0097344Y0077975D01*
X0098919Y0079550D01*
X0103250Y0079550D01*
X0111124Y0079550D02*
X0117029Y0079550D01*
X0117029Y0070101D01*
X0111124Y0070101D01*
X0096376Y0062820D02*
X0090077Y0062820D01*
X0090077Y0062821D02*
X0090018Y0062807D01*
X0089960Y0062790D01*
X0089903Y0062769D01*
X0089847Y0062745D01*
X0089793Y0062717D01*
X0089741Y0062687D01*
X0089690Y0062653D01*
X0089642Y0062616D01*
X0089596Y0062577D01*
X0089553Y0062534D01*
X0089512Y0062490D01*
X0089474Y0062442D01*
X0089439Y0062393D01*
X0089407Y0062341D01*
X0089378Y0062288D01*
X0089352Y0062233D01*
X0089330Y0062177D01*
X0089311Y0062119D01*
X0089295Y0062060D01*
X0089284Y0062001D01*
X0089275Y0061941D01*
X0089271Y0061880D01*
X0089270Y0061820D01*
X0089273Y0061759D01*
X0089279Y0061699D01*
X0089289Y0061639D01*
X0089289Y0056128D02*
X0089279Y0056068D01*
X0089273Y0056008D01*
X0089270Y0055947D01*
X0089271Y0055887D01*
X0089275Y0055826D01*
X0089284Y0055766D01*
X0089295Y0055707D01*
X0089311Y0055648D01*
X0089330Y0055590D01*
X0089352Y0055534D01*
X0089378Y0055479D01*
X0089407Y0055426D01*
X0089439Y0055374D01*
X0089474Y0055325D01*
X0089512Y0055277D01*
X0089553Y0055233D01*
X0089596Y0055190D01*
X0089642Y0055151D01*
X0089690Y0055114D01*
X0089741Y0055080D01*
X0089793Y0055050D01*
X0089847Y0055022D01*
X0089903Y0054998D01*
X0089960Y0054977D01*
X0090018Y0054960D01*
X0090077Y0054946D01*
X0096376Y0054946D01*
X0096377Y0054946D02*
X0096436Y0054960D01*
X0096494Y0054977D01*
X0096551Y0054998D01*
X0096607Y0055022D01*
X0096661Y0055050D01*
X0096713Y0055080D01*
X0096764Y0055114D01*
X0096812Y0055151D01*
X0096858Y0055190D01*
X0096901Y0055233D01*
X0096942Y0055277D01*
X0096980Y0055325D01*
X0097015Y0055374D01*
X0097047Y0055426D01*
X0097076Y0055479D01*
X0097102Y0055534D01*
X0097124Y0055590D01*
X0097143Y0055648D01*
X0097159Y0055707D01*
X0097170Y0055766D01*
X0097179Y0055826D01*
X0097183Y0055887D01*
X0097184Y0055947D01*
X0097181Y0056008D01*
X0097175Y0056068D01*
X0097165Y0056128D01*
X0097165Y0061639D02*
X0097175Y0061699D01*
X0097181Y0061759D01*
X0097184Y0061820D01*
X0097183Y0061880D01*
X0097179Y0061941D01*
X0097170Y0062001D01*
X0097159Y0062060D01*
X0097143Y0062119D01*
X0097124Y0062177D01*
X0097102Y0062233D01*
X0097076Y0062288D01*
X0097047Y0062341D01*
X0097015Y0062393D01*
X0096980Y0062442D01*
X0096942Y0062490D01*
X0096901Y0062534D01*
X0096858Y0062577D01*
X0096812Y0062616D01*
X0096764Y0062653D01*
X0096713Y0062687D01*
X0096661Y0062717D01*
X0096607Y0062745D01*
X0096551Y0062769D01*
X0096494Y0062790D01*
X0096436Y0062807D01*
X0096377Y0062821D01*
D13*
X0073345Y0146482D02*
X0071967Y0146482D01*
X0073345Y0147860D01*
X0073345Y0146482D01*
X0073345Y0147860D02*
X0073345Y0154356D01*
X0067833Y0154356D01*
X0067833Y0146482D01*
X0071967Y0146482D01*
X0072361Y0147663D02*
X0072361Y0153175D01*
X0068817Y0153175D01*
X0068817Y0147663D01*
X0072361Y0147663D01*
X0060353Y0147860D02*
X0058975Y0146482D01*
X0054841Y0146482D01*
X0054841Y0154356D01*
X0060353Y0154356D01*
X0060353Y0147860D01*
X0060353Y0146482D01*
X0058975Y0146482D01*
X0059369Y0147663D02*
X0059369Y0153175D01*
X0055825Y0153175D01*
X0055825Y0147663D01*
X0059369Y0147663D01*
D14*
X0057499Y0149533D03*
X0070491Y0149533D03*
D15*
X0070589Y0155143D03*
X0057597Y0155143D03*
D16*
X0057597Y0145596D03*
X0070589Y0145596D03*
D17*
X0065274Y0150419D02*
X0065276Y0150564D01*
X0065282Y0150709D01*
X0065292Y0150854D01*
X0065306Y0150999D01*
X0065324Y0151143D01*
X0065345Y0151286D01*
X0065371Y0151429D01*
X0065400Y0151571D01*
X0065434Y0151713D01*
X0065471Y0151853D01*
X0065512Y0151992D01*
X0065557Y0152130D01*
X0065606Y0152267D01*
X0065658Y0152403D01*
X0065714Y0152537D01*
X0065774Y0152669D01*
X0065837Y0152800D01*
X0065904Y0152928D01*
X0065974Y0153056D01*
X0066048Y0153181D01*
X0066125Y0153304D01*
X0066205Y0153424D01*
X0066289Y0153543D01*
X0066376Y0153659D01*
X0066466Y0153773D01*
X0066559Y0153885D01*
X0066655Y0153993D01*
X0066755Y0154099D01*
X0066856Y0154203D01*
X0066961Y0154303D01*
X0067069Y0154401D01*
X0067179Y0154496D01*
X0067291Y0154587D01*
X0067406Y0154676D01*
X0067524Y0154761D01*
X0067644Y0154843D01*
X0067766Y0154922D01*
X0067890Y0154998D01*
X0068016Y0155070D01*
X0068144Y0155138D01*
X0068274Y0155203D01*
X0068405Y0155265D01*
X0068538Y0155322D01*
X0068673Y0155377D01*
X0068809Y0155427D01*
X0068947Y0155474D01*
X0069085Y0155517D01*
X0069225Y0155556D01*
X0069366Y0155591D01*
X0069508Y0155623D01*
X0069650Y0155650D01*
X0069793Y0155674D01*
X0069937Y0155694D01*
X0070082Y0155710D01*
X0070226Y0155722D01*
X0070371Y0155730D01*
X0070516Y0155734D01*
X0070662Y0155734D01*
X0070807Y0155730D01*
X0070952Y0155722D01*
X0071096Y0155710D01*
X0071241Y0155694D01*
X0071385Y0155674D01*
X0071528Y0155650D01*
X0071670Y0155623D01*
X0071812Y0155591D01*
X0071953Y0155556D01*
X0072093Y0155517D01*
X0072231Y0155474D01*
X0072369Y0155427D01*
X0072505Y0155377D01*
X0072640Y0155322D01*
X0072773Y0155265D01*
X0072904Y0155203D01*
X0073034Y0155138D01*
X0073162Y0155070D01*
X0073288Y0154998D01*
X0073412Y0154922D01*
X0073534Y0154843D01*
X0073654Y0154761D01*
X0073772Y0154676D01*
X0073887Y0154587D01*
X0073999Y0154496D01*
X0074109Y0154401D01*
X0074217Y0154303D01*
X0074322Y0154203D01*
X0074423Y0154099D01*
X0074523Y0153993D01*
X0074619Y0153885D01*
X0074712Y0153773D01*
X0074802Y0153659D01*
X0074889Y0153543D01*
X0074973Y0153424D01*
X0075053Y0153304D01*
X0075130Y0153181D01*
X0075204Y0153056D01*
X0075274Y0152928D01*
X0075341Y0152800D01*
X0075404Y0152669D01*
X0075464Y0152537D01*
X0075520Y0152403D01*
X0075572Y0152267D01*
X0075621Y0152130D01*
X0075666Y0151992D01*
X0075707Y0151853D01*
X0075744Y0151713D01*
X0075778Y0151571D01*
X0075807Y0151429D01*
X0075833Y0151286D01*
X0075854Y0151143D01*
X0075872Y0150999D01*
X0075886Y0150854D01*
X0075896Y0150709D01*
X0075902Y0150564D01*
X0075904Y0150419D01*
X0075902Y0150274D01*
X0075896Y0150129D01*
X0075886Y0149984D01*
X0075872Y0149839D01*
X0075854Y0149695D01*
X0075833Y0149552D01*
X0075807Y0149409D01*
X0075778Y0149267D01*
X0075744Y0149125D01*
X0075707Y0148985D01*
X0075666Y0148846D01*
X0075621Y0148708D01*
X0075572Y0148571D01*
X0075520Y0148435D01*
X0075464Y0148301D01*
X0075404Y0148169D01*
X0075341Y0148038D01*
X0075274Y0147910D01*
X0075204Y0147782D01*
X0075130Y0147657D01*
X0075053Y0147534D01*
X0074973Y0147414D01*
X0074889Y0147295D01*
X0074802Y0147179D01*
X0074712Y0147065D01*
X0074619Y0146953D01*
X0074523Y0146845D01*
X0074423Y0146739D01*
X0074322Y0146635D01*
X0074217Y0146535D01*
X0074109Y0146437D01*
X0073999Y0146342D01*
X0073887Y0146251D01*
X0073772Y0146162D01*
X0073654Y0146077D01*
X0073534Y0145995D01*
X0073412Y0145916D01*
X0073288Y0145840D01*
X0073162Y0145768D01*
X0073034Y0145700D01*
X0072904Y0145635D01*
X0072773Y0145573D01*
X0072640Y0145516D01*
X0072505Y0145461D01*
X0072369Y0145411D01*
X0072231Y0145364D01*
X0072093Y0145321D01*
X0071953Y0145282D01*
X0071812Y0145247D01*
X0071670Y0145215D01*
X0071528Y0145188D01*
X0071385Y0145164D01*
X0071241Y0145144D01*
X0071096Y0145128D01*
X0070952Y0145116D01*
X0070807Y0145108D01*
X0070662Y0145104D01*
X0070516Y0145104D01*
X0070371Y0145108D01*
X0070226Y0145116D01*
X0070082Y0145128D01*
X0069937Y0145144D01*
X0069793Y0145164D01*
X0069650Y0145188D01*
X0069508Y0145215D01*
X0069366Y0145247D01*
X0069225Y0145282D01*
X0069085Y0145321D01*
X0068947Y0145364D01*
X0068809Y0145411D01*
X0068673Y0145461D01*
X0068538Y0145516D01*
X0068405Y0145573D01*
X0068274Y0145635D01*
X0068144Y0145700D01*
X0068016Y0145768D01*
X0067890Y0145840D01*
X0067766Y0145916D01*
X0067644Y0145995D01*
X0067524Y0146077D01*
X0067406Y0146162D01*
X0067291Y0146251D01*
X0067179Y0146342D01*
X0067069Y0146437D01*
X0066961Y0146535D01*
X0066856Y0146635D01*
X0066755Y0146739D01*
X0066655Y0146845D01*
X0066559Y0146953D01*
X0066466Y0147065D01*
X0066376Y0147179D01*
X0066289Y0147295D01*
X0066205Y0147414D01*
X0066125Y0147534D01*
X0066048Y0147657D01*
X0065974Y0147782D01*
X0065904Y0147910D01*
X0065837Y0148038D01*
X0065774Y0148169D01*
X0065714Y0148301D01*
X0065658Y0148435D01*
X0065606Y0148571D01*
X0065557Y0148708D01*
X0065512Y0148846D01*
X0065471Y0148985D01*
X0065434Y0149125D01*
X0065400Y0149267D01*
X0065371Y0149409D01*
X0065345Y0149552D01*
X0065324Y0149695D01*
X0065306Y0149839D01*
X0065292Y0149984D01*
X0065282Y0150129D01*
X0065276Y0150274D01*
X0065274Y0150419D01*
X0052282Y0150419D02*
X0052284Y0150564D01*
X0052290Y0150709D01*
X0052300Y0150854D01*
X0052314Y0150999D01*
X0052332Y0151143D01*
X0052353Y0151286D01*
X0052379Y0151429D01*
X0052408Y0151571D01*
X0052442Y0151713D01*
X0052479Y0151853D01*
X0052520Y0151992D01*
X0052565Y0152130D01*
X0052614Y0152267D01*
X0052666Y0152403D01*
X0052722Y0152537D01*
X0052782Y0152669D01*
X0052845Y0152800D01*
X0052912Y0152928D01*
X0052982Y0153056D01*
X0053056Y0153181D01*
X0053133Y0153304D01*
X0053213Y0153424D01*
X0053297Y0153543D01*
X0053384Y0153659D01*
X0053474Y0153773D01*
X0053567Y0153885D01*
X0053663Y0153993D01*
X0053763Y0154099D01*
X0053864Y0154203D01*
X0053969Y0154303D01*
X0054077Y0154401D01*
X0054187Y0154496D01*
X0054299Y0154587D01*
X0054414Y0154676D01*
X0054532Y0154761D01*
X0054652Y0154843D01*
X0054774Y0154922D01*
X0054898Y0154998D01*
X0055024Y0155070D01*
X0055152Y0155138D01*
X0055282Y0155203D01*
X0055413Y0155265D01*
X0055546Y0155322D01*
X0055681Y0155377D01*
X0055817Y0155427D01*
X0055955Y0155474D01*
X0056093Y0155517D01*
X0056233Y0155556D01*
X0056374Y0155591D01*
X0056516Y0155623D01*
X0056658Y0155650D01*
X0056801Y0155674D01*
X0056945Y0155694D01*
X0057090Y0155710D01*
X0057234Y0155722D01*
X0057379Y0155730D01*
X0057524Y0155734D01*
X0057670Y0155734D01*
X0057815Y0155730D01*
X0057960Y0155722D01*
X0058104Y0155710D01*
X0058249Y0155694D01*
X0058393Y0155674D01*
X0058536Y0155650D01*
X0058678Y0155623D01*
X0058820Y0155591D01*
X0058961Y0155556D01*
X0059101Y0155517D01*
X0059239Y0155474D01*
X0059377Y0155427D01*
X0059513Y0155377D01*
X0059648Y0155322D01*
X0059781Y0155265D01*
X0059912Y0155203D01*
X0060042Y0155138D01*
X0060170Y0155070D01*
X0060296Y0154998D01*
X0060420Y0154922D01*
X0060542Y0154843D01*
X0060662Y0154761D01*
X0060780Y0154676D01*
X0060895Y0154587D01*
X0061007Y0154496D01*
X0061117Y0154401D01*
X0061225Y0154303D01*
X0061330Y0154203D01*
X0061431Y0154099D01*
X0061531Y0153993D01*
X0061627Y0153885D01*
X0061720Y0153773D01*
X0061810Y0153659D01*
X0061897Y0153543D01*
X0061981Y0153424D01*
X0062061Y0153304D01*
X0062138Y0153181D01*
X0062212Y0153056D01*
X0062282Y0152928D01*
X0062349Y0152800D01*
X0062412Y0152669D01*
X0062472Y0152537D01*
X0062528Y0152403D01*
X0062580Y0152267D01*
X0062629Y0152130D01*
X0062674Y0151992D01*
X0062715Y0151853D01*
X0062752Y0151713D01*
X0062786Y0151571D01*
X0062815Y0151429D01*
X0062841Y0151286D01*
X0062862Y0151143D01*
X0062880Y0150999D01*
X0062894Y0150854D01*
X0062904Y0150709D01*
X0062910Y0150564D01*
X0062912Y0150419D01*
X0062910Y0150274D01*
X0062904Y0150129D01*
X0062894Y0149984D01*
X0062880Y0149839D01*
X0062862Y0149695D01*
X0062841Y0149552D01*
X0062815Y0149409D01*
X0062786Y0149267D01*
X0062752Y0149125D01*
X0062715Y0148985D01*
X0062674Y0148846D01*
X0062629Y0148708D01*
X0062580Y0148571D01*
X0062528Y0148435D01*
X0062472Y0148301D01*
X0062412Y0148169D01*
X0062349Y0148038D01*
X0062282Y0147910D01*
X0062212Y0147782D01*
X0062138Y0147657D01*
X0062061Y0147534D01*
X0061981Y0147414D01*
X0061897Y0147295D01*
X0061810Y0147179D01*
X0061720Y0147065D01*
X0061627Y0146953D01*
X0061531Y0146845D01*
X0061431Y0146739D01*
X0061330Y0146635D01*
X0061225Y0146535D01*
X0061117Y0146437D01*
X0061007Y0146342D01*
X0060895Y0146251D01*
X0060780Y0146162D01*
X0060662Y0146077D01*
X0060542Y0145995D01*
X0060420Y0145916D01*
X0060296Y0145840D01*
X0060170Y0145768D01*
X0060042Y0145700D01*
X0059912Y0145635D01*
X0059781Y0145573D01*
X0059648Y0145516D01*
X0059513Y0145461D01*
X0059377Y0145411D01*
X0059239Y0145364D01*
X0059101Y0145321D01*
X0058961Y0145282D01*
X0058820Y0145247D01*
X0058678Y0145215D01*
X0058536Y0145188D01*
X0058393Y0145164D01*
X0058249Y0145144D01*
X0058104Y0145128D01*
X0057960Y0145116D01*
X0057815Y0145108D01*
X0057670Y0145104D01*
X0057524Y0145104D01*
X0057379Y0145108D01*
X0057234Y0145116D01*
X0057090Y0145128D01*
X0056945Y0145144D01*
X0056801Y0145164D01*
X0056658Y0145188D01*
X0056516Y0145215D01*
X0056374Y0145247D01*
X0056233Y0145282D01*
X0056093Y0145321D01*
X0055955Y0145364D01*
X0055817Y0145411D01*
X0055681Y0145461D01*
X0055546Y0145516D01*
X0055413Y0145573D01*
X0055282Y0145635D01*
X0055152Y0145700D01*
X0055024Y0145768D01*
X0054898Y0145840D01*
X0054774Y0145916D01*
X0054652Y0145995D01*
X0054532Y0146077D01*
X0054414Y0146162D01*
X0054299Y0146251D01*
X0054187Y0146342D01*
X0054077Y0146437D01*
X0053969Y0146535D01*
X0053864Y0146635D01*
X0053763Y0146739D01*
X0053663Y0146845D01*
X0053567Y0146953D01*
X0053474Y0147065D01*
X0053384Y0147179D01*
X0053297Y0147295D01*
X0053213Y0147414D01*
X0053133Y0147534D01*
X0053056Y0147657D01*
X0052982Y0147782D01*
X0052912Y0147910D01*
X0052845Y0148038D01*
X0052782Y0148169D01*
X0052722Y0148301D01*
X0052666Y0148435D01*
X0052614Y0148571D01*
X0052565Y0148708D01*
X0052520Y0148846D01*
X0052479Y0148985D01*
X0052442Y0149125D01*
X0052408Y0149267D01*
X0052379Y0149409D01*
X0052353Y0149552D01*
X0052332Y0149695D01*
X0052314Y0149839D01*
X0052300Y0149984D01*
X0052290Y0150129D01*
X0052284Y0150274D01*
X0052282Y0150419D01*
D18*
X0104054Y0055537D02*
X0106416Y0055537D01*
X0106416Y0050813D02*
X0104054Y0050813D01*
M02*
