G75*
%MOIN*%
%OFA0B0*%
%FSLAX25Y25*%
%IPPOS*%
%LPD*%
%AMOC8*
5,1,8,0,0,1.08239X$1,22.5*
%
%ADD10C,0.00600*%
%ADD11R,0.01600X0.03600*%
%ADD12R,0.03937X0.04331*%
%ADD13R,0.04331X0.03937*%
%ADD14R,0.06299X0.06299*%
%ADD15R,0.06000X0.16000*%
%ADD16C,0.03937*%
%ADD17R,0.03150X0.04724*%
%ADD18R,0.05512X0.06299*%
%ADD19R,0.02500X0.05000*%
%ADD20C,0.08858*%
%ADD21C,0.07087*%
%ADD22C,0.01200*%
%ADD23C,0.02381*%
%ADD24C,0.01600*%
%ADD25C,0.02400*%
%ADD26C,0.01000*%
D10*
X0117024Y0013113D02*
X0118158Y0014247D01*
X0120427Y0014247D01*
X0120427Y0015662D02*
X0117024Y0015662D01*
X0117024Y0017363D01*
X0117591Y0017930D01*
X0118725Y0017930D01*
X0119293Y0017363D01*
X0119293Y0015662D01*
X0118725Y0014247D02*
X0118725Y0011979D01*
X0118158Y0011979D02*
X0117024Y0013113D01*
X0118158Y0011979D02*
X0120427Y0011979D01*
X0120427Y0019345D02*
X0117024Y0019345D01*
X0117024Y0021046D01*
X0117591Y0021614D01*
X0118725Y0021614D01*
X0119293Y0021046D01*
X0119293Y0019345D01*
X0119293Y0020479D02*
X0120427Y0021614D01*
X0120427Y0023028D02*
X0119860Y0023028D01*
X0119860Y0023595D01*
X0120427Y0023595D01*
X0120427Y0023028D01*
X0118725Y0023028D02*
X0118158Y0023028D01*
X0118158Y0023595D01*
X0118725Y0023595D01*
X0118725Y0023028D01*
X0118725Y0024870D02*
X0118725Y0027138D01*
X0118158Y0027138D02*
X0120427Y0027138D01*
X0120427Y0028553D02*
X0120427Y0030821D01*
X0120427Y0029687D02*
X0117024Y0029687D01*
X0118158Y0028553D01*
X0118158Y0027138D02*
X0117024Y0026004D01*
X0118158Y0024870D01*
X0120427Y0024870D01*
X0120427Y0032236D02*
X0120427Y0034505D01*
X0120427Y0033370D02*
X0117024Y0033370D01*
X0118158Y0032236D01*
D11*
X0087016Y0066097D03*
X0084516Y0066097D03*
X0082016Y0066097D03*
X0079516Y0066097D03*
X0077016Y0066097D03*
X0074516Y0066097D03*
X0072016Y0066097D03*
X0069516Y0066097D03*
X0069516Y0087497D03*
X0072016Y0087497D03*
X0074516Y0087497D03*
X0077016Y0087497D03*
X0079516Y0087497D03*
X0082016Y0087497D03*
X0084516Y0087497D03*
X0087016Y0087497D03*
D12*
X0088896Y0050025D03*
X0088896Y0043332D03*
X0064684Y0043332D03*
X0064684Y0050025D03*
D13*
X0072754Y0050025D03*
X0072754Y0043332D03*
X0080825Y0043332D03*
X0080825Y0050025D03*
X0102085Y0043135D03*
X0108778Y0043135D03*
X0108384Y0063214D03*
X0101691Y0063214D03*
X0101691Y0091167D03*
X0108384Y0091167D03*
X0070589Y0125419D03*
X0070589Y0132112D03*
X0057597Y0132112D03*
X0057597Y0125419D03*
D14*
X0057597Y0141757D03*
X0070589Y0141757D03*
X0070589Y0159080D03*
X0057597Y0159080D03*
D15*
X0097046Y0158687D03*
X0117046Y0158687D03*
D16*
X0083384Y0149828D03*
X0053266Y0042939D03*
X0119605Y0042939D03*
D17*
X0108778Y0053175D03*
X0101691Y0053175D03*
D18*
X0101675Y0074825D03*
X0112699Y0074825D03*
D19*
X0094999Y0058883D03*
X0091455Y0058883D03*
D20*
X0106416Y0011049D03*
X0067439Y0011049D03*
D21*
X0067439Y0026797D03*
X0106416Y0026797D03*
D22*
X0048836Y0010224D02*
X0048082Y0012545D01*
X0047986Y0013765D01*
X0047986Y0135232D01*
X0048317Y0134550D01*
X0048317Y0134195D01*
X0048681Y0133317D01*
X0049353Y0132644D01*
X0050232Y0132280D01*
X0051183Y0132280D01*
X0052061Y0132644D01*
X0052734Y0133317D01*
X0053098Y0134195D01*
X0053098Y0135146D01*
X0052734Y0136025D01*
X0052061Y0136697D01*
X0051183Y0137061D01*
X0051174Y0137061D01*
X0050840Y0137751D01*
X0050736Y0138410D01*
X0050736Y0148914D01*
X0051735Y0146502D01*
X0053247Y0144989D01*
X0053247Y0138111D01*
X0053950Y0137408D01*
X0055797Y0137408D01*
X0055797Y0135280D01*
X0054935Y0135280D01*
X0054232Y0134577D01*
X0054232Y0129646D01*
X0054935Y0128943D01*
X0060259Y0128943D01*
X0060962Y0129646D01*
X0060962Y0134577D01*
X0060259Y0135280D01*
X0059397Y0135280D01*
X0059397Y0137408D01*
X0061244Y0137408D01*
X0061947Y0138111D01*
X0061947Y0144989D01*
X0063459Y0146502D01*
X0064093Y0148032D01*
X0064727Y0146502D01*
X0066239Y0144989D01*
X0066239Y0138111D01*
X0066942Y0137408D01*
X0068789Y0137408D01*
X0068789Y0135280D01*
X0067927Y0135280D01*
X0067224Y0134577D01*
X0067224Y0129646D01*
X0067927Y0128943D01*
X0073251Y0128943D01*
X0073954Y0129646D01*
X0073954Y0134577D01*
X0073251Y0135280D01*
X0072389Y0135280D01*
X0072389Y0137408D01*
X0074236Y0137408D01*
X0074939Y0138111D01*
X0074939Y0144989D01*
X0076451Y0146502D01*
X0077504Y0149043D01*
X0077504Y0151794D01*
X0076451Y0154336D01*
X0074939Y0155849D01*
X0074939Y0162727D01*
X0074236Y0163430D01*
X0066942Y0163430D01*
X0066239Y0162727D01*
X0066239Y0161080D01*
X0061947Y0161080D01*
X0061947Y0162727D01*
X0061244Y0163430D01*
X0053950Y0163430D01*
X0053247Y0162727D01*
X0053247Y0160900D01*
X0052576Y0160682D01*
X0052576Y0160682D01*
X0049996Y0158808D01*
X0049996Y0158808D01*
X0048121Y0156228D01*
X0048121Y0156228D01*
X0047986Y0155812D01*
X0047986Y0156364D01*
X0048082Y0157584D01*
X0048836Y0159905D01*
X0050270Y0161879D01*
X0052245Y0163314D01*
X0054566Y0164068D01*
X0055786Y0164164D01*
X0092846Y0164164D01*
X0092846Y0150190D01*
X0093549Y0149487D01*
X0100543Y0149487D01*
X0101246Y0150190D01*
X0101246Y0164164D01*
X0112846Y0164164D01*
X0112846Y0150190D01*
X0113549Y0149487D01*
X0120543Y0149487D01*
X0121246Y0150190D01*
X0121246Y0163293D01*
X0123191Y0161879D01*
X0124626Y0159905D01*
X0125380Y0157584D01*
X0125476Y0156364D01*
X0125476Y0013765D01*
X0125380Y0012545D01*
X0124626Y0010224D01*
X0123191Y0008250D01*
X0121217Y0006815D01*
X0118896Y0006061D01*
X0117676Y0005965D01*
X0108853Y0005965D01*
X0109604Y0006277D01*
X0111188Y0007860D01*
X0112045Y0009929D01*
X0112045Y0012169D01*
X0111188Y0014237D01*
X0109604Y0015821D01*
X0107536Y0016678D01*
X0105296Y0016678D01*
X0105073Y0016585D01*
X0105073Y0022219D01*
X0105472Y0022054D01*
X0107359Y0022054D01*
X0109103Y0022776D01*
X0110437Y0024110D01*
X0111159Y0025853D01*
X0111159Y0027740D01*
X0110437Y0029484D01*
X0109103Y0030818D01*
X0107359Y0031540D01*
X0105472Y0031540D01*
X0103729Y0030818D01*
X0102395Y0029484D01*
X0101785Y0028013D01*
X0101159Y0028013D01*
X0100400Y0028053D01*
X0110417Y0038070D01*
X0110417Y0038070D01*
X0110699Y0038351D01*
X0111093Y0038745D01*
X0111147Y0038800D01*
X0111572Y0039825D01*
X0111572Y0040098D01*
X0112143Y0040670D01*
X0112143Y0045601D01*
X0111440Y0046304D01*
X0110778Y0046304D01*
X0110778Y0049613D01*
X0110850Y0049613D01*
X0111553Y0050316D01*
X0111553Y0056034D01*
X0110850Y0056737D01*
X0106706Y0056737D01*
X0106003Y0056034D01*
X0106003Y0050316D01*
X0106706Y0049613D01*
X0106778Y0049613D01*
X0106778Y0046304D01*
X0106116Y0046304D01*
X0105665Y0045854D01*
X0105531Y0046086D01*
X0105233Y0046384D01*
X0104868Y0046595D01*
X0104461Y0046704D01*
X0102469Y0046704D01*
X0102469Y0043520D01*
X0101701Y0043520D01*
X0101701Y0046704D01*
X0099709Y0046704D01*
X0099302Y0046595D01*
X0098937Y0046384D01*
X0098639Y0046086D01*
X0098429Y0045722D01*
X0098320Y0045315D01*
X0098320Y0043520D01*
X0101701Y0043520D01*
X0101701Y0042751D01*
X0102469Y0042751D01*
X0102469Y0039567D01*
X0104461Y0039567D01*
X0104868Y0039676D01*
X0105233Y0039887D01*
X0105531Y0040184D01*
X0105665Y0040417D01*
X0105821Y0040262D01*
X0097118Y0031559D01*
X0095702Y0031559D01*
X0094820Y0031194D01*
X0094145Y0030519D01*
X0093780Y0029636D01*
X0093780Y0028682D01*
X0094057Y0028013D01*
X0072070Y0028013D01*
X0071461Y0029484D01*
X0070126Y0030818D01*
X0068383Y0031540D01*
X0066496Y0031540D01*
X0064753Y0030818D01*
X0063418Y0029484D01*
X0062696Y0027740D01*
X0062696Y0025853D01*
X0063418Y0024110D01*
X0064753Y0022776D01*
X0066496Y0022054D01*
X0068383Y0022054D01*
X0068783Y0022219D01*
X0068783Y0016585D01*
X0068559Y0016678D01*
X0066320Y0016678D01*
X0064251Y0015821D01*
X0062667Y0014237D01*
X0061810Y0012169D01*
X0061810Y0009929D01*
X0062667Y0007860D01*
X0064251Y0006277D01*
X0065002Y0005965D01*
X0055786Y0005965D01*
X0054566Y0006061D01*
X0052245Y0006815D01*
X0050270Y0008250D01*
X0048836Y0010224D01*
X0048851Y0010204D02*
X0061810Y0010204D01*
X0061810Y0011402D02*
X0048453Y0011402D01*
X0048078Y0012601D02*
X0061989Y0012601D01*
X0062486Y0013799D02*
X0047986Y0013799D01*
X0047986Y0014998D02*
X0063428Y0014998D01*
X0065157Y0016196D02*
X0047986Y0016196D01*
X0047986Y0017395D02*
X0068783Y0017395D01*
X0068783Y0018593D02*
X0047986Y0018593D01*
X0047986Y0019792D02*
X0068783Y0019792D01*
X0068783Y0020990D02*
X0047986Y0020990D01*
X0047986Y0022189D02*
X0066169Y0022189D01*
X0064141Y0023387D02*
X0047986Y0023387D01*
X0047986Y0024586D02*
X0063221Y0024586D01*
X0062725Y0025784D02*
X0047986Y0025784D01*
X0047986Y0026983D02*
X0062696Y0026983D01*
X0062879Y0028182D02*
X0047986Y0028182D01*
X0047986Y0029380D02*
X0063375Y0029380D01*
X0064513Y0030579D02*
X0047986Y0030579D01*
X0047986Y0031777D02*
X0097336Y0031777D01*
X0098535Y0032976D02*
X0047986Y0032976D01*
X0047986Y0034174D02*
X0099733Y0034174D01*
X0100932Y0035373D02*
X0047986Y0035373D01*
X0047986Y0036571D02*
X0071017Y0036571D01*
X0070728Y0036860D02*
X0071400Y0036188D01*
X0072279Y0035824D01*
X0073230Y0035824D01*
X0074109Y0036188D01*
X0074781Y0036860D01*
X0075145Y0037739D01*
X0075145Y0038690D01*
X0074781Y0039568D01*
X0074554Y0039795D01*
X0074554Y0040164D01*
X0075417Y0040164D01*
X0076120Y0040867D01*
X0076120Y0045798D01*
X0075417Y0046501D01*
X0070092Y0046501D01*
X0069389Y0045798D01*
X0069389Y0045132D01*
X0067852Y0045132D01*
X0067852Y0045995D01*
X0067402Y0046445D01*
X0067634Y0046580D01*
X0067932Y0046877D01*
X0068143Y0047242D01*
X0068252Y0047649D01*
X0068252Y0049641D01*
X0065068Y0049641D01*
X0065068Y0050409D01*
X0068252Y0050409D01*
X0068252Y0052401D01*
X0068143Y0052808D01*
X0067932Y0053173D01*
X0067634Y0053471D01*
X0067270Y0053682D01*
X0066863Y0053791D01*
X0065068Y0053791D01*
X0065068Y0050410D01*
X0064299Y0050410D01*
X0064299Y0053791D01*
X0062504Y0053791D01*
X0062097Y0053682D01*
X0061733Y0053471D01*
X0061435Y0053173D01*
X0061224Y0052808D01*
X0061115Y0052401D01*
X0061115Y0050409D01*
X0064299Y0050409D01*
X0064299Y0049641D01*
X0061115Y0049641D01*
X0061115Y0047649D01*
X0061224Y0047242D01*
X0061435Y0046877D01*
X0061733Y0046580D01*
X0061965Y0046445D01*
X0061515Y0045995D01*
X0061515Y0040670D01*
X0062218Y0039967D01*
X0067149Y0039967D01*
X0067852Y0040670D01*
X0067852Y0041532D01*
X0069389Y0041532D01*
X0069389Y0040867D01*
X0070092Y0040164D01*
X0070954Y0040164D01*
X0070954Y0039795D01*
X0070728Y0039568D01*
X0070364Y0038690D01*
X0070364Y0037739D01*
X0070728Y0036860D01*
X0070364Y0037770D02*
X0047986Y0037770D01*
X0047986Y0038968D02*
X0070479Y0038968D01*
X0070089Y0040167D02*
X0067349Y0040167D01*
X0067852Y0041365D02*
X0069389Y0041365D01*
X0072754Y0042742D02*
X0072754Y0038214D01*
X0074492Y0036571D02*
X0079088Y0036571D01*
X0078799Y0036860D02*
X0079471Y0036188D01*
X0080350Y0035824D01*
X0081301Y0035824D01*
X0082179Y0036188D01*
X0082852Y0036860D01*
X0083216Y0037739D01*
X0083216Y0038690D01*
X0082852Y0039568D01*
X0082625Y0039795D01*
X0082625Y0040164D01*
X0083488Y0040164D01*
X0084191Y0040867D01*
X0084191Y0041532D01*
X0085728Y0041532D01*
X0085728Y0040670D01*
X0086431Y0039967D01*
X0091362Y0039967D01*
X0092065Y0040670D01*
X0092065Y0045995D01*
X0091614Y0046445D01*
X0091847Y0046580D01*
X0092145Y0046877D01*
X0092356Y0047242D01*
X0092465Y0047649D01*
X0092465Y0049641D01*
X0089280Y0049641D01*
X0089280Y0050409D01*
X0089280Y0050410D02*
X0088512Y0050410D01*
X0088512Y0053791D01*
X0086717Y0053791D01*
X0086310Y0053682D01*
X0085945Y0053471D01*
X0085647Y0053173D01*
X0085437Y0052808D01*
X0085328Y0052401D01*
X0085328Y0050409D01*
X0088512Y0050409D01*
X0088512Y0049641D01*
X0085328Y0049641D01*
X0085328Y0047649D01*
X0085437Y0047242D01*
X0085647Y0046877D01*
X0085945Y0046580D01*
X0086178Y0046445D01*
X0085728Y0045995D01*
X0085728Y0045132D01*
X0084191Y0045132D01*
X0084191Y0045798D01*
X0083488Y0046501D01*
X0078163Y0046501D01*
X0077460Y0045798D01*
X0077460Y0040867D01*
X0078163Y0040164D01*
X0079025Y0040164D01*
X0079025Y0039795D01*
X0078799Y0039568D01*
X0078435Y0038690D01*
X0078435Y0037739D01*
X0078799Y0036860D01*
X0078435Y0037770D02*
X0075145Y0037770D01*
X0075030Y0038968D02*
X0078550Y0038968D01*
X0078160Y0040167D02*
X0075420Y0040167D01*
X0076120Y0041365D02*
X0077460Y0041365D01*
X0077460Y0042564D02*
X0076120Y0042564D01*
X0076120Y0043762D02*
X0077460Y0043762D01*
X0077460Y0044961D02*
X0076120Y0044961D01*
X0075758Y0046159D02*
X0077821Y0046159D01*
X0078163Y0046857D02*
X0083488Y0046857D01*
X0084191Y0047560D01*
X0084191Y0052491D01*
X0083488Y0053194D01*
X0080399Y0053194D01*
X0071610Y0061983D01*
X0071523Y0062089D01*
X0071418Y0062341D01*
X0071405Y0062478D01*
X0071405Y0063097D01*
X0077653Y0063097D01*
X0077734Y0063017D01*
X0078099Y0062806D01*
X0078506Y0062697D01*
X0079516Y0062697D01*
X0079516Y0066097D01*
X0079516Y0069497D01*
X0079016Y0069497D01*
X0079016Y0070891D01*
X0079053Y0071269D01*
X0079343Y0071967D01*
X0079877Y0072502D01*
X0080575Y0072791D01*
X0080953Y0072828D01*
X0096221Y0072828D01*
X0096224Y0072831D01*
X0097719Y0072831D01*
X0097719Y0071179D01*
X0098422Y0070476D01*
X0099708Y0070476D01*
X0099708Y0066383D01*
X0099029Y0066383D01*
X0098326Y0065680D01*
X0098326Y0060749D01*
X0099029Y0060046D01*
X0099691Y0060046D01*
X0099691Y0056737D01*
X0099620Y0056737D01*
X0098917Y0056034D01*
X0098917Y0050316D01*
X0099620Y0049613D01*
X0103763Y0049613D01*
X0104466Y0050316D01*
X0104466Y0056034D01*
X0103763Y0056737D01*
X0103691Y0056737D01*
X0103691Y0060046D01*
X0104354Y0060046D01*
X0104804Y0060496D01*
X0104939Y0060263D01*
X0105237Y0059965D01*
X0105601Y0059755D01*
X0106008Y0059646D01*
X0108000Y0059646D01*
X0108000Y0062830D01*
X0108769Y0062830D01*
X0108769Y0063598D01*
X0112150Y0063598D01*
X0112150Y0065393D01*
X0112041Y0065800D01*
X0111830Y0066165D01*
X0111532Y0066463D01*
X0111167Y0066674D01*
X0110760Y0066783D01*
X0108769Y0066783D01*
X0108769Y0063598D01*
X0108000Y0063598D01*
X0108000Y0066783D01*
X0106008Y0066783D01*
X0105601Y0066674D01*
X0105237Y0066463D01*
X0104939Y0066165D01*
X0104804Y0065932D01*
X0104354Y0066383D01*
X0103708Y0066383D01*
X0103708Y0070476D01*
X0104928Y0070476D01*
X0105631Y0071179D01*
X0105631Y0078472D01*
X0104928Y0079175D01*
X0098422Y0079175D01*
X0097719Y0078472D01*
X0097719Y0076831D01*
X0094567Y0076831D01*
X0094564Y0076828D01*
X0079772Y0076828D01*
X0078132Y0076149D01*
X0080430Y0078343D01*
X0080513Y0078343D01*
X0081392Y0078707D01*
X0082064Y0079380D01*
X0082428Y0080258D01*
X0082428Y0080493D01*
X0083112Y0081177D01*
X0083112Y0081177D01*
X0083296Y0081620D01*
X0083750Y0080656D01*
X0083750Y0080258D01*
X0084114Y0079380D01*
X0084786Y0078707D01*
X0085665Y0078343D01*
X0086616Y0078343D01*
X0087494Y0078707D01*
X0088167Y0079380D01*
X0088531Y0080258D01*
X0088531Y0081209D01*
X0088167Y0082088D01*
X0087494Y0082760D01*
X0086637Y0083115D01*
X0086435Y0083545D01*
X0086365Y0084112D01*
X0086360Y0084497D01*
X0088313Y0084497D01*
X0089016Y0085200D01*
X0089016Y0085824D01*
X0089678Y0085824D01*
X0089904Y0085597D01*
X0090783Y0085233D01*
X0091734Y0085233D01*
X0092612Y0085597D01*
X0093285Y0086269D01*
X0093649Y0087148D01*
X0093649Y0088099D01*
X0093285Y0088978D01*
X0092896Y0089367D01*
X0098326Y0089367D01*
X0098326Y0088701D01*
X0099029Y0087998D01*
X0104354Y0087998D01*
X0104804Y0088449D01*
X0104939Y0088216D01*
X0105237Y0087918D01*
X0105601Y0087707D01*
X0106008Y0087598D01*
X0108000Y0087598D01*
X0108000Y0090783D01*
X0108769Y0090783D01*
X0108769Y0091551D01*
X0112150Y0091551D01*
X0112150Y0093346D01*
X0112041Y0093753D01*
X0111830Y0094118D01*
X0111532Y0094416D01*
X0111167Y0094626D01*
X0110760Y0094735D01*
X0108769Y0094735D01*
X0108769Y0091551D01*
X0108000Y0091551D01*
X0108000Y0094735D01*
X0106008Y0094735D01*
X0105601Y0094626D01*
X0105237Y0094416D01*
X0104939Y0094118D01*
X0104804Y0093885D01*
X0104354Y0094335D01*
X0099029Y0094335D01*
X0098326Y0093632D01*
X0098326Y0092967D01*
X0083644Y0092967D01*
X0084230Y0093553D01*
X0084594Y0094432D01*
X0084594Y0095383D01*
X0084230Y0096261D01*
X0083557Y0096934D01*
X0082679Y0097298D01*
X0081728Y0097298D01*
X0080849Y0096934D01*
X0080177Y0096261D01*
X0080095Y0096063D01*
X0078769Y0095132D01*
X0078769Y0095132D01*
X0077647Y0092974D01*
X0077647Y0090897D01*
X0077016Y0090897D01*
X0076326Y0090897D01*
X0076326Y0092244D01*
X0076360Y0092282D01*
X0076326Y0092982D01*
X0076326Y0093098D01*
X0076353Y0094011D01*
X0076869Y0095908D01*
X0077945Y0097552D01*
X0079476Y0098783D01*
X0080941Y0099339D01*
X0081728Y0099013D01*
X0082679Y0099013D01*
X0083557Y0099377D01*
X0084230Y0100049D01*
X0084594Y0100928D01*
X0084594Y0101879D01*
X0084230Y0102757D01*
X0083557Y0103430D01*
X0082679Y0103794D01*
X0081728Y0103794D01*
X0080849Y0103430D01*
X0080539Y0103120D01*
X0077627Y0102014D01*
X0077627Y0102014D01*
X0075187Y0100053D01*
X0073473Y0097434D01*
X0072652Y0094414D01*
X0072652Y0094414D01*
X0072726Y0092895D01*
X0072726Y0092363D01*
X0072586Y0092503D01*
X0072586Y0122250D01*
X0073251Y0122250D01*
X0073954Y0122953D01*
X0073954Y0127884D01*
X0073251Y0128587D01*
X0067927Y0128587D01*
X0067224Y0127884D01*
X0067224Y0122953D01*
X0067927Y0122250D01*
X0068986Y0122250D01*
X0068986Y0091012D01*
X0069501Y0090497D01*
X0068219Y0090497D01*
X0067516Y0089794D01*
X0067516Y0088833D01*
X0066246Y0088100D01*
X0066246Y0088100D01*
X0066246Y0088100D01*
X0065049Y0086027D01*
X0065049Y0060160D01*
X0065922Y0058052D01*
X0065922Y0058052D01*
X0066202Y0057772D01*
X0070780Y0053194D01*
X0070092Y0053194D01*
X0069389Y0052491D01*
X0069389Y0047560D01*
X0070092Y0046857D01*
X0075417Y0046857D01*
X0076120Y0047560D01*
X0076120Y0052382D01*
X0077460Y0051042D01*
X0077460Y0047560D01*
X0078163Y0046857D01*
X0077662Y0047358D02*
X0075918Y0047358D01*
X0076120Y0048556D02*
X0077460Y0048556D01*
X0077460Y0049755D02*
X0076120Y0049755D01*
X0076120Y0050953D02*
X0077460Y0050953D01*
X0076350Y0052152D02*
X0076120Y0052152D01*
X0073647Y0051115D02*
X0073573Y0051073D01*
X0073501Y0051028D01*
X0073431Y0050979D01*
X0073363Y0050928D01*
X0073298Y0050873D01*
X0073236Y0050815D01*
X0073176Y0050755D01*
X0073119Y0050691D01*
X0073065Y0050626D01*
X0073015Y0050557D01*
X0072967Y0050487D01*
X0072923Y0050414D01*
X0072882Y0050340D01*
X0072844Y0050263D01*
X0072811Y0050185D01*
X0072780Y0050106D01*
X0072754Y0050025D01*
X0073647Y0051115D02*
X0073542Y0051600D01*
X0073263Y0053256D02*
X0068002Y0058518D01*
X0067028Y0056946D02*
X0047986Y0056946D01*
X0047986Y0058144D02*
X0065884Y0058144D01*
X0066202Y0057772D02*
X0066202Y0057772D01*
X0065388Y0059343D02*
X0047986Y0059343D01*
X0047986Y0060541D02*
X0065049Y0060541D01*
X0065049Y0061740D02*
X0047986Y0061740D01*
X0047986Y0062938D02*
X0065049Y0062938D01*
X0065049Y0064137D02*
X0047986Y0064137D01*
X0047986Y0065335D02*
X0065049Y0065335D01*
X0065049Y0066534D02*
X0047986Y0066534D01*
X0047986Y0067732D02*
X0065049Y0067732D01*
X0065049Y0068931D02*
X0047986Y0068931D01*
X0047986Y0070129D02*
X0065049Y0070129D01*
X0065049Y0071328D02*
X0063641Y0071328D01*
X0063872Y0071424D02*
X0062994Y0071060D01*
X0062043Y0071060D01*
X0061164Y0071424D01*
X0060492Y0072096D01*
X0060128Y0072975D01*
X0060128Y0073295D01*
X0059158Y0074265D01*
X0058697Y0074726D01*
X0058103Y0075320D01*
X0057730Y0075693D01*
X0057730Y0075693D01*
X0056456Y0077899D01*
X0056456Y0077899D01*
X0055797Y0080360D01*
X0055797Y0122250D01*
X0054935Y0122250D01*
X0054232Y0122953D01*
X0054232Y0127884D01*
X0054935Y0128587D01*
X0060259Y0128587D01*
X0060962Y0127884D01*
X0060962Y0122953D01*
X0060259Y0122250D01*
X0059397Y0122250D01*
X0059397Y0081633D01*
X0059449Y0080840D01*
X0059859Y0079309D01*
X0060652Y0077936D01*
X0061176Y0077338D01*
X0061231Y0077283D01*
X0061703Y0076811D01*
X0062673Y0075841D01*
X0062994Y0075841D01*
X0063872Y0075477D01*
X0064545Y0074805D01*
X0064909Y0073926D01*
X0064909Y0072975D01*
X0064545Y0072096D01*
X0063872Y0071424D01*
X0064723Y0072526D02*
X0065049Y0072526D01*
X0065049Y0073725D02*
X0064909Y0073725D01*
X0065049Y0074923D02*
X0064426Y0074923D01*
X0065049Y0076122D02*
X0062392Y0076122D01*
X0061194Y0077320D02*
X0065049Y0077320D01*
X0065049Y0078519D02*
X0060315Y0078519D01*
X0059750Y0079717D02*
X0065049Y0079717D01*
X0065049Y0080916D02*
X0059444Y0080916D01*
X0059397Y0082115D02*
X0065049Y0082115D01*
X0057597Y0081633D02*
X0057599Y0081446D01*
X0057606Y0081258D01*
X0057617Y0081071D01*
X0057633Y0080885D01*
X0057653Y0080698D01*
X0057677Y0080512D01*
X0057706Y0080327D01*
X0057739Y0080143D01*
X0057777Y0079959D01*
X0057819Y0079777D01*
X0057865Y0079595D01*
X0057916Y0079415D01*
X0057971Y0079235D01*
X0058030Y0079058D01*
X0058093Y0078881D01*
X0058161Y0078707D01*
X0058233Y0078533D01*
X0058309Y0078362D01*
X0058388Y0078192D01*
X0058472Y0078025D01*
X0058560Y0077859D01*
X0058652Y0077696D01*
X0058748Y0077535D01*
X0058847Y0077376D01*
X0058950Y0077220D01*
X0059057Y0077066D01*
X0059168Y0076914D01*
X0059282Y0076766D01*
X0059399Y0076620D01*
X0059520Y0076477D01*
X0059645Y0076336D01*
X0059772Y0076199D01*
X0059903Y0076065D01*
X0062518Y0073450D01*
X0060313Y0072526D02*
X0047986Y0072526D01*
X0047986Y0071328D02*
X0061395Y0071328D01*
X0059698Y0073725D02*
X0047986Y0073725D01*
X0047986Y0074923D02*
X0058500Y0074923D01*
X0057482Y0076122D02*
X0047986Y0076122D01*
X0047986Y0077320D02*
X0056790Y0077320D01*
X0056290Y0078519D02*
X0047986Y0078519D01*
X0047986Y0079717D02*
X0055969Y0079717D01*
X0055797Y0080916D02*
X0047986Y0080916D01*
X0047986Y0082115D02*
X0055797Y0082115D01*
X0055797Y0083313D02*
X0047986Y0083313D01*
X0047986Y0084512D02*
X0055797Y0084512D01*
X0055797Y0085710D02*
X0047986Y0085710D01*
X0047986Y0086909D02*
X0055797Y0086909D01*
X0055797Y0088107D02*
X0047986Y0088107D01*
X0047986Y0089306D02*
X0055797Y0089306D01*
X0055797Y0090504D02*
X0047986Y0090504D01*
X0047986Y0091703D02*
X0055797Y0091703D01*
X0055797Y0092901D02*
X0047986Y0092901D01*
X0047986Y0094100D02*
X0055797Y0094100D01*
X0055797Y0095298D02*
X0047986Y0095298D01*
X0047986Y0096497D02*
X0055797Y0096497D01*
X0055797Y0097695D02*
X0047986Y0097695D01*
X0047986Y0098894D02*
X0055797Y0098894D01*
X0055797Y0100092D02*
X0047986Y0100092D01*
X0047986Y0101291D02*
X0055797Y0101291D01*
X0055797Y0102489D02*
X0047986Y0102489D01*
X0047986Y0103688D02*
X0055797Y0103688D01*
X0055797Y0104886D02*
X0047986Y0104886D01*
X0047986Y0106085D02*
X0055797Y0106085D01*
X0055797Y0107283D02*
X0047986Y0107283D01*
X0047986Y0108482D02*
X0055797Y0108482D01*
X0055797Y0109680D02*
X0047986Y0109680D01*
X0047986Y0110879D02*
X0055797Y0110879D01*
X0055797Y0112077D02*
X0047986Y0112077D01*
X0047986Y0113276D02*
X0055797Y0113276D01*
X0055797Y0114474D02*
X0047986Y0114474D01*
X0047986Y0115673D02*
X0055797Y0115673D01*
X0055797Y0116871D02*
X0047986Y0116871D01*
X0047986Y0118070D02*
X0055797Y0118070D01*
X0055797Y0119268D02*
X0047986Y0119268D01*
X0047986Y0120467D02*
X0055797Y0120467D01*
X0055797Y0121665D02*
X0047986Y0121665D01*
X0047986Y0122864D02*
X0054321Y0122864D01*
X0054232Y0124062D02*
X0047986Y0124062D01*
X0047986Y0125261D02*
X0054232Y0125261D01*
X0054232Y0126459D02*
X0047986Y0126459D01*
X0047986Y0127658D02*
X0054232Y0127658D01*
X0054232Y0130055D02*
X0047986Y0130055D01*
X0047986Y0131253D02*
X0054232Y0131253D01*
X0054232Y0132452D02*
X0051597Y0132452D01*
X0052872Y0133651D02*
X0054232Y0133651D01*
X0054503Y0134849D02*
X0053098Y0134849D01*
X0052711Y0136048D02*
X0055797Y0136048D01*
X0055797Y0137246D02*
X0051085Y0137246D01*
X0050736Y0138445D02*
X0053247Y0138445D01*
X0048936Y0138324D02*
X0048947Y0138181D01*
X0048961Y0138038D01*
X0048979Y0137895D01*
X0049001Y0137753D01*
X0049027Y0137612D01*
X0049056Y0137471D01*
X0049090Y0137332D01*
X0049127Y0137193D01*
X0049168Y0137055D01*
X0049213Y0136919D01*
X0049261Y0136783D01*
X0049313Y0136650D01*
X0049369Y0136517D01*
X0049428Y0136386D01*
X0049490Y0136257D01*
X0049557Y0136129D01*
X0049626Y0136004D01*
X0049699Y0135880D01*
X0049775Y0135758D01*
X0049855Y0135639D01*
X0049938Y0135521D01*
X0050024Y0135406D01*
X0050113Y0135294D01*
X0050205Y0135183D01*
X0050300Y0135075D01*
X0050398Y0134970D01*
X0050498Y0134868D01*
X0050602Y0134768D01*
X0050708Y0134671D01*
X0049817Y0132452D02*
X0047986Y0132452D01*
X0047986Y0133651D02*
X0048542Y0133651D01*
X0048171Y0134849D02*
X0047986Y0134849D01*
X0048936Y0138324D02*
X0048936Y0151600D01*
X0050736Y0148033D02*
X0051101Y0148033D01*
X0050736Y0146834D02*
X0051597Y0146834D01*
X0050736Y0145636D02*
X0052601Y0145636D01*
X0053247Y0144437D02*
X0050736Y0144437D01*
X0050736Y0143239D02*
X0053247Y0143239D01*
X0053247Y0142040D02*
X0050736Y0142040D01*
X0050736Y0140842D02*
X0053247Y0140842D01*
X0053247Y0139643D02*
X0050736Y0139643D01*
X0057597Y0141757D02*
X0057597Y0132112D01*
X0060962Y0132452D02*
X0067224Y0132452D01*
X0067224Y0133651D02*
X0060962Y0133651D01*
X0060691Y0134849D02*
X0067495Y0134849D01*
X0068789Y0136048D02*
X0059397Y0136048D01*
X0059397Y0137246D02*
X0068789Y0137246D01*
X0066239Y0138445D02*
X0061947Y0138445D01*
X0061947Y0139643D02*
X0066239Y0139643D01*
X0066239Y0140842D02*
X0061947Y0140842D01*
X0061947Y0142040D02*
X0066239Y0142040D01*
X0066239Y0143239D02*
X0061947Y0143239D01*
X0061947Y0144437D02*
X0066239Y0144437D01*
X0065593Y0145636D02*
X0062593Y0145636D01*
X0063597Y0146834D02*
X0064589Y0146834D01*
X0070589Y0141757D02*
X0070589Y0132112D01*
X0073954Y0132452D02*
X0125476Y0132452D01*
X0125476Y0133651D02*
X0073954Y0133651D01*
X0073683Y0134849D02*
X0125476Y0134849D01*
X0125476Y0136048D02*
X0072389Y0136048D01*
X0072389Y0137246D02*
X0125476Y0137246D01*
X0125476Y0138445D02*
X0074939Y0138445D01*
X0074939Y0139643D02*
X0125476Y0139643D01*
X0125476Y0140842D02*
X0074939Y0140842D01*
X0074939Y0142040D02*
X0125476Y0142040D01*
X0125476Y0143239D02*
X0074939Y0143239D01*
X0074939Y0144437D02*
X0125476Y0144437D01*
X0125476Y0145636D02*
X0075585Y0145636D01*
X0076589Y0146834D02*
X0082333Y0146834D01*
X0082754Y0146660D02*
X0081590Y0147142D01*
X0080698Y0148034D01*
X0080216Y0149198D01*
X0080216Y0150459D01*
X0080698Y0151623D01*
X0081590Y0152514D01*
X0082754Y0152997D01*
X0084015Y0152997D01*
X0085179Y0152514D01*
X0086070Y0151623D01*
X0086553Y0150459D01*
X0086553Y0149198D01*
X0086070Y0148034D01*
X0085179Y0147142D01*
X0084015Y0146660D01*
X0082754Y0146660D01*
X0084435Y0146834D02*
X0125476Y0146834D01*
X0125476Y0148033D02*
X0086070Y0148033D01*
X0086553Y0149231D02*
X0125476Y0149231D01*
X0125476Y0150430D02*
X0121246Y0150430D01*
X0121246Y0151628D02*
X0125476Y0151628D01*
X0125476Y0152827D02*
X0121246Y0152827D01*
X0121246Y0154025D02*
X0125476Y0154025D01*
X0125476Y0155224D02*
X0121246Y0155224D01*
X0121246Y0156422D02*
X0125471Y0156422D01*
X0125368Y0157621D02*
X0121246Y0157621D01*
X0121246Y0158819D02*
X0124978Y0158819D01*
X0124544Y0160018D02*
X0121246Y0160018D01*
X0121246Y0161216D02*
X0123673Y0161216D01*
X0122454Y0162415D02*
X0121246Y0162415D01*
X0112846Y0162415D02*
X0101246Y0162415D01*
X0101246Y0163613D02*
X0112846Y0163613D01*
X0112846Y0161216D02*
X0101246Y0161216D01*
X0101246Y0160018D02*
X0112846Y0160018D01*
X0112846Y0158819D02*
X0101246Y0158819D01*
X0101246Y0157621D02*
X0112846Y0157621D01*
X0112846Y0156422D02*
X0101246Y0156422D01*
X0101246Y0155224D02*
X0112846Y0155224D01*
X0112846Y0154025D02*
X0101246Y0154025D01*
X0101246Y0152827D02*
X0112846Y0152827D01*
X0112846Y0151628D02*
X0101246Y0151628D01*
X0101246Y0150430D02*
X0112846Y0150430D01*
X0125476Y0131253D02*
X0073954Y0131253D01*
X0073954Y0130055D02*
X0125476Y0130055D01*
X0125476Y0128856D02*
X0047986Y0128856D01*
X0057597Y0125419D02*
X0057597Y0081633D01*
X0059397Y0083313D02*
X0065049Y0083313D01*
X0065049Y0084512D02*
X0059397Y0084512D01*
X0059397Y0085710D02*
X0065049Y0085710D01*
X0065558Y0086909D02*
X0059397Y0086909D01*
X0059397Y0088107D02*
X0066258Y0088107D01*
X0067516Y0089306D02*
X0059397Y0089306D01*
X0059397Y0090504D02*
X0069494Y0090504D01*
X0068986Y0091703D02*
X0059397Y0091703D01*
X0059397Y0092901D02*
X0068986Y0092901D01*
X0068986Y0094100D02*
X0059397Y0094100D01*
X0059397Y0095298D02*
X0068986Y0095298D01*
X0068986Y0096497D02*
X0059397Y0096497D01*
X0059397Y0097695D02*
X0068986Y0097695D01*
X0068986Y0098894D02*
X0059397Y0098894D01*
X0059397Y0100092D02*
X0068986Y0100092D01*
X0068986Y0101291D02*
X0059397Y0101291D01*
X0059397Y0102489D02*
X0068986Y0102489D01*
X0068986Y0103688D02*
X0059397Y0103688D01*
X0059397Y0104886D02*
X0068986Y0104886D01*
X0068986Y0106085D02*
X0059397Y0106085D01*
X0059397Y0107283D02*
X0068986Y0107283D01*
X0068986Y0108482D02*
X0059397Y0108482D01*
X0059397Y0109680D02*
X0068986Y0109680D01*
X0068986Y0110879D02*
X0059397Y0110879D01*
X0059397Y0112077D02*
X0068986Y0112077D01*
X0068986Y0113276D02*
X0059397Y0113276D01*
X0059397Y0114474D02*
X0068986Y0114474D01*
X0068986Y0115673D02*
X0059397Y0115673D01*
X0059397Y0116871D02*
X0068986Y0116871D01*
X0068986Y0118070D02*
X0059397Y0118070D01*
X0059397Y0119268D02*
X0068986Y0119268D01*
X0068986Y0120467D02*
X0059397Y0120467D01*
X0059397Y0121665D02*
X0068986Y0121665D01*
X0067313Y0122864D02*
X0060873Y0122864D01*
X0060962Y0124062D02*
X0067224Y0124062D01*
X0067224Y0125261D02*
X0060962Y0125261D01*
X0060962Y0126459D02*
X0067224Y0126459D01*
X0067224Y0127658D02*
X0060962Y0127658D01*
X0060962Y0130055D02*
X0067224Y0130055D01*
X0067224Y0131253D02*
X0060962Y0131253D01*
X0070589Y0125419D02*
X0070786Y0125222D01*
X0070786Y0091757D01*
X0072016Y0090527D01*
X0072016Y0087497D01*
X0074516Y0087497D02*
X0074521Y0087504D01*
X0074525Y0087512D01*
X0074526Y0087521D01*
X0074526Y0092939D01*
X0076330Y0092901D02*
X0077647Y0092901D01*
X0077647Y0091703D02*
X0076326Y0091703D01*
X0077016Y0090897D02*
X0077016Y0087497D01*
X0077016Y0087497D01*
X0077016Y0090897D01*
X0077016Y0090504D02*
X0077016Y0090504D01*
X0077016Y0089306D02*
X0077016Y0089306D01*
X0077016Y0088107D02*
X0077016Y0088107D01*
X0077016Y0087497D02*
X0077016Y0084097D01*
X0077016Y0087497D01*
X0077016Y0087497D01*
X0077016Y0086909D02*
X0077016Y0086909D01*
X0077016Y0085710D02*
X0077016Y0085710D01*
X0077016Y0084512D02*
X0077016Y0084512D01*
X0077016Y0084097D02*
X0076006Y0084097D01*
X0075599Y0084206D01*
X0075234Y0084417D01*
X0075153Y0084497D01*
X0068649Y0084497D01*
X0068649Y0069097D01*
X0072526Y0069097D01*
X0072526Y0074617D01*
X0072526Y0074969D01*
X0073430Y0077151D01*
X0073430Y0077151D01*
X0073698Y0077420D01*
X0073699Y0077446D01*
X0074281Y0078003D01*
X0074851Y0078572D01*
X0074878Y0078572D01*
X0077652Y0081221D01*
X0078011Y0082088D01*
X0078684Y0082760D01*
X0079291Y0083012D01*
X0079374Y0083095D01*
X0079709Y0083510D01*
X0079979Y0084162D01*
X0080012Y0084497D01*
X0078879Y0084497D01*
X0078799Y0084417D01*
X0078434Y0084206D01*
X0078027Y0084097D01*
X0077016Y0084097D01*
X0078038Y0082115D02*
X0068649Y0082115D01*
X0068649Y0083313D02*
X0079550Y0083313D01*
X0077333Y0080916D02*
X0068649Y0080916D01*
X0068649Y0079717D02*
X0076077Y0079717D01*
X0074798Y0078519D02*
X0068649Y0078519D01*
X0068649Y0077320D02*
X0073599Y0077320D01*
X0073004Y0076122D02*
X0068649Y0076122D01*
X0068649Y0074923D02*
X0072526Y0074923D01*
X0072526Y0073725D02*
X0068649Y0073725D01*
X0068649Y0072526D02*
X0072526Y0072526D01*
X0072526Y0071328D02*
X0068649Y0071328D01*
X0068649Y0070129D02*
X0072526Y0070129D01*
X0072016Y0066097D02*
X0074516Y0066097D01*
X0069605Y0062478D02*
X0069607Y0062380D01*
X0069613Y0062282D01*
X0069622Y0062184D01*
X0069636Y0062087D01*
X0069653Y0061990D01*
X0069674Y0061894D01*
X0069699Y0061799D01*
X0069727Y0061705D01*
X0069760Y0061613D01*
X0069795Y0061521D01*
X0069835Y0061431D01*
X0069877Y0061343D01*
X0069924Y0061256D01*
X0069973Y0061172D01*
X0070026Y0061089D01*
X0070082Y0061009D01*
X0070142Y0060930D01*
X0070204Y0060854D01*
X0070269Y0060781D01*
X0070337Y0060710D01*
X0080686Y0050361D01*
X0080714Y0050330D01*
X0080739Y0050297D01*
X0080761Y0050263D01*
X0080780Y0050226D01*
X0080796Y0050187D01*
X0080809Y0050148D01*
X0080818Y0050107D01*
X0080823Y0050066D01*
X0080825Y0050025D01*
X0080243Y0053350D02*
X0085825Y0053350D01*
X0085328Y0052152D02*
X0084191Y0052152D01*
X0084191Y0050953D02*
X0085328Y0050953D01*
X0084191Y0049755D02*
X0088512Y0049755D01*
X0089280Y0049755D02*
X0099477Y0049755D01*
X0098917Y0050953D02*
X0092465Y0050953D01*
X0092465Y0050409D02*
X0092465Y0052401D01*
X0092356Y0052808D01*
X0092145Y0053173D01*
X0091847Y0053471D01*
X0091482Y0053682D01*
X0091075Y0053791D01*
X0089280Y0053791D01*
X0089280Y0050410D01*
X0089280Y0050409D02*
X0092465Y0050409D01*
X0092465Y0052152D02*
X0098917Y0052152D01*
X0098917Y0053350D02*
X0091968Y0053350D01*
X0092766Y0055103D02*
X0093131Y0054892D01*
X0093538Y0054783D01*
X0094973Y0054783D01*
X0094973Y0058858D01*
X0095024Y0058858D01*
X0095024Y0058908D01*
X0097848Y0058908D01*
X0097848Y0061594D01*
X0097739Y0062001D01*
X0097529Y0062366D01*
X0097231Y0062664D01*
X0096866Y0062874D01*
X0096459Y0062983D01*
X0095024Y0062983D01*
X0095024Y0058909D01*
X0094973Y0058909D01*
X0094973Y0062983D01*
X0093538Y0062983D01*
X0093131Y0062874D01*
X0092766Y0062664D01*
X0092686Y0062583D01*
X0089708Y0062583D01*
X0089005Y0061881D01*
X0089005Y0060878D01*
X0088884Y0060948D01*
X0088736Y0061205D01*
X0088716Y0061354D01*
X0088716Y0063500D01*
X0089016Y0063800D01*
X0089016Y0068394D01*
X0088313Y0069097D01*
X0081379Y0069097D01*
X0081299Y0069177D01*
X0080934Y0069388D01*
X0080527Y0069497D01*
X0079516Y0069497D01*
X0079516Y0066097D01*
X0079516Y0066097D01*
X0079516Y0066097D01*
X0079516Y0062697D01*
X0080206Y0062697D01*
X0080206Y0061645D01*
X0079980Y0061419D01*
X0079616Y0060540D01*
X0079616Y0059589D01*
X0079980Y0058710D01*
X0080652Y0058038D01*
X0081531Y0057674D01*
X0082482Y0057674D01*
X0083361Y0058038D01*
X0084033Y0058710D01*
X0084397Y0059589D01*
X0084397Y0060540D01*
X0084033Y0061419D01*
X0083806Y0061645D01*
X0083806Y0063097D01*
X0085316Y0063097D01*
X0085316Y0060289D01*
X0086381Y0058445D01*
X0088225Y0057380D01*
X0089005Y0057380D01*
X0089005Y0055886D01*
X0089708Y0055183D01*
X0092686Y0055183D01*
X0092766Y0055103D01*
X0095024Y0054783D02*
X0095024Y0058858D01*
X0097848Y0058858D01*
X0097848Y0056173D01*
X0097739Y0055766D01*
X0097529Y0055401D01*
X0097231Y0055103D01*
X0096866Y0054892D01*
X0096459Y0054783D01*
X0095024Y0054783D01*
X0095024Y0055747D02*
X0094973Y0055747D01*
X0094973Y0056946D02*
X0095024Y0056946D01*
X0095024Y0058144D02*
X0094973Y0058144D01*
X0094973Y0059343D02*
X0095024Y0059343D01*
X0095024Y0060541D02*
X0094973Y0060541D01*
X0094973Y0061740D02*
X0095024Y0061740D01*
X0095024Y0062938D02*
X0094973Y0062938D01*
X0093369Y0062938D02*
X0088716Y0062938D01*
X0088716Y0061740D02*
X0089005Y0061740D01*
X0089016Y0064137D02*
X0098326Y0064137D01*
X0098326Y0065335D02*
X0089016Y0065335D01*
X0089016Y0066534D02*
X0099708Y0066534D01*
X0099708Y0067732D02*
X0089016Y0067732D01*
X0088479Y0068931D02*
X0099708Y0068931D01*
X0099708Y0070129D02*
X0079016Y0070129D01*
X0079078Y0071328D02*
X0097719Y0071328D01*
X0097719Y0072526D02*
X0079936Y0072526D01*
X0079516Y0068931D02*
X0079516Y0068931D01*
X0079516Y0067732D02*
X0079516Y0067732D01*
X0079516Y0066534D02*
X0079516Y0066534D01*
X0079516Y0065335D02*
X0079516Y0065335D01*
X0079516Y0064137D02*
X0079516Y0064137D01*
X0079516Y0062938D02*
X0079516Y0062938D01*
X0080206Y0061740D02*
X0071853Y0061740D01*
X0068002Y0058518D02*
X0067916Y0058607D01*
X0067833Y0058698D01*
X0067752Y0058792D01*
X0067675Y0058889D01*
X0067601Y0058988D01*
X0067530Y0059089D01*
X0067462Y0059192D01*
X0067397Y0059298D01*
X0067336Y0059405D01*
X0067278Y0059515D01*
X0067224Y0059626D01*
X0067173Y0059738D01*
X0067125Y0059853D01*
X0067082Y0059968D01*
X0067042Y0060085D01*
X0067005Y0060204D01*
X0066973Y0060323D01*
X0066944Y0060443D01*
X0066919Y0060564D01*
X0066897Y0060686D01*
X0066880Y0060809D01*
X0066866Y0060931D01*
X0066857Y0061055D01*
X0066851Y0061178D01*
X0066849Y0061302D01*
X0066849Y0084830D01*
X0066851Y0084932D01*
X0066857Y0085034D01*
X0066867Y0085136D01*
X0066880Y0085237D01*
X0066898Y0085338D01*
X0066919Y0085438D01*
X0066944Y0085537D01*
X0066973Y0085635D01*
X0067006Y0085731D01*
X0067042Y0085827D01*
X0067082Y0085921D01*
X0067126Y0086013D01*
X0067173Y0086104D01*
X0067224Y0086193D01*
X0067277Y0086280D01*
X0067335Y0086364D01*
X0067395Y0086447D01*
X0067458Y0086527D01*
X0067525Y0086604D01*
X0067594Y0086679D01*
X0067667Y0086752D01*
X0067742Y0086821D01*
X0067819Y0086888D01*
X0067899Y0086951D01*
X0067982Y0087011D01*
X0068066Y0087069D01*
X0068153Y0087122D01*
X0068242Y0087173D01*
X0068333Y0087220D01*
X0068425Y0087264D01*
X0068519Y0087304D01*
X0068615Y0087340D01*
X0068711Y0087373D01*
X0068809Y0087402D01*
X0068908Y0087427D01*
X0069008Y0087448D01*
X0069109Y0087466D01*
X0069210Y0087479D01*
X0069312Y0087489D01*
X0069414Y0087495D01*
X0069516Y0087497D01*
X0072586Y0092901D02*
X0072726Y0092901D01*
X0072667Y0094100D02*
X0072586Y0094100D01*
X0072586Y0095298D02*
X0072892Y0095298D01*
X0072586Y0096497D02*
X0073218Y0096497D01*
X0073473Y0097434D02*
X0073473Y0097434D01*
X0073644Y0097695D02*
X0072586Y0097695D01*
X0072586Y0098894D02*
X0074428Y0098894D01*
X0075187Y0100053D02*
X0075187Y0100053D01*
X0075187Y0100053D01*
X0075236Y0100092D02*
X0072586Y0100092D01*
X0072586Y0101291D02*
X0076727Y0101291D01*
X0078879Y0102489D02*
X0072586Y0102489D01*
X0072586Y0103688D02*
X0081472Y0103688D01*
X0082935Y0103688D02*
X0125476Y0103688D01*
X0125476Y0104886D02*
X0072586Y0104886D01*
X0072586Y0106085D02*
X0125476Y0106085D01*
X0125476Y0107283D02*
X0072586Y0107283D01*
X0072586Y0108482D02*
X0125476Y0108482D01*
X0125476Y0109680D02*
X0072586Y0109680D01*
X0072586Y0110879D02*
X0125476Y0110879D01*
X0125476Y0112077D02*
X0072586Y0112077D01*
X0072586Y0113276D02*
X0125476Y0113276D01*
X0125476Y0114474D02*
X0072586Y0114474D01*
X0072586Y0115673D02*
X0125476Y0115673D01*
X0125476Y0116871D02*
X0072586Y0116871D01*
X0072586Y0118070D02*
X0125476Y0118070D01*
X0125476Y0119268D02*
X0072586Y0119268D01*
X0072586Y0120467D02*
X0125476Y0120467D01*
X0125476Y0121665D02*
X0072586Y0121665D01*
X0073865Y0122864D02*
X0125476Y0122864D01*
X0125476Y0124062D02*
X0073954Y0124062D01*
X0073954Y0125261D02*
X0125476Y0125261D01*
X0125476Y0126459D02*
X0073954Y0126459D01*
X0073954Y0127658D02*
X0125476Y0127658D01*
X0125476Y0102489D02*
X0084341Y0102489D01*
X0084594Y0101291D02*
X0125476Y0101291D01*
X0125476Y0100092D02*
X0084248Y0100092D01*
X0083994Y0096497D02*
X0125476Y0096497D01*
X0125476Y0097695D02*
X0078123Y0097695D01*
X0077254Y0096497D02*
X0080412Y0096497D01*
X0079006Y0095298D02*
X0076703Y0095298D01*
X0076377Y0094100D02*
X0078232Y0094100D01*
X0078769Y0095132D02*
X0078769Y0095132D01*
X0079447Y0091757D02*
X0079447Y0087663D01*
X0079448Y0087663D02*
X0079449Y0087637D01*
X0079454Y0087611D01*
X0079461Y0087585D01*
X0079471Y0087561D01*
X0079484Y0087538D01*
X0079499Y0087516D01*
X0079517Y0087497D01*
X0082006Y0089592D02*
X0082008Y0089669D01*
X0082014Y0089746D01*
X0082023Y0089823D01*
X0082036Y0089899D01*
X0082053Y0089975D01*
X0082074Y0090049D01*
X0082098Y0090123D01*
X0082126Y0090195D01*
X0082157Y0090265D01*
X0082192Y0090334D01*
X0082230Y0090402D01*
X0082271Y0090467D01*
X0082316Y0090530D01*
X0082364Y0090591D01*
X0082414Y0090650D01*
X0082467Y0090706D01*
X0082523Y0090759D01*
X0082582Y0090809D01*
X0082643Y0090857D01*
X0082706Y0090902D01*
X0082771Y0090943D01*
X0082839Y0090981D01*
X0082908Y0091016D01*
X0082978Y0091047D01*
X0083050Y0091075D01*
X0083124Y0091099D01*
X0083198Y0091120D01*
X0083274Y0091137D01*
X0083350Y0091150D01*
X0083427Y0091159D01*
X0083504Y0091165D01*
X0083581Y0091167D01*
X0101691Y0091167D01*
X0098793Y0094100D02*
X0084456Y0094100D01*
X0084594Y0095298D02*
X0125476Y0095298D01*
X0125476Y0094100D02*
X0111841Y0094100D01*
X0112150Y0092901D02*
X0125476Y0092901D01*
X0125476Y0091703D02*
X0112150Y0091703D01*
X0112150Y0090783D02*
X0108769Y0090783D01*
X0108769Y0087598D01*
X0110760Y0087598D01*
X0111167Y0087707D01*
X0111532Y0087918D01*
X0111830Y0088216D01*
X0112041Y0088581D01*
X0112150Y0088988D01*
X0112150Y0090783D01*
X0112150Y0090504D02*
X0125476Y0090504D01*
X0125476Y0089306D02*
X0112150Y0089306D01*
X0111721Y0088107D02*
X0125476Y0088107D01*
X0125476Y0086909D02*
X0093550Y0086909D01*
X0093646Y0088107D02*
X0098920Y0088107D01*
X0098326Y0089306D02*
X0092957Y0089306D01*
X0091258Y0087624D02*
X0087124Y0087624D01*
X0087016Y0087497D01*
X0089016Y0085710D02*
X0089791Y0085710D01*
X0084565Y0084080D02*
X0084569Y0083949D01*
X0084577Y0083818D01*
X0084589Y0083687D01*
X0084605Y0083557D01*
X0084624Y0083427D01*
X0084647Y0083297D01*
X0084674Y0083169D01*
X0084705Y0083041D01*
X0084739Y0082914D01*
X0084777Y0082788D01*
X0084819Y0082664D01*
X0084865Y0082540D01*
X0084914Y0082419D01*
X0084966Y0082298D01*
X0085022Y0082179D01*
X0085081Y0082062D01*
X0085144Y0081946D01*
X0085210Y0081833D01*
X0085280Y0081721D01*
X0085352Y0081612D01*
X0085428Y0081504D01*
X0085507Y0081399D01*
X0085589Y0081297D01*
X0085674Y0081196D01*
X0085761Y0081098D01*
X0085852Y0081003D01*
X0085945Y0080911D01*
X0086041Y0080821D01*
X0086140Y0080734D01*
X0085241Y0078519D02*
X0080938Y0078519D01*
X0082204Y0079717D02*
X0083974Y0079717D01*
X0083627Y0080916D02*
X0082852Y0080916D01*
X0084565Y0084080D02*
X0084516Y0087497D01*
X0079447Y0091757D02*
X0079449Y0091868D01*
X0079455Y0091980D01*
X0079465Y0092091D01*
X0079478Y0092201D01*
X0079496Y0092311D01*
X0079517Y0092421D01*
X0079542Y0092529D01*
X0079571Y0092637D01*
X0079604Y0092743D01*
X0079640Y0092849D01*
X0079680Y0092953D01*
X0079724Y0093055D01*
X0079772Y0093156D01*
X0079822Y0093255D01*
X0079877Y0093353D01*
X0079934Y0093448D01*
X0079995Y0093541D01*
X0080059Y0093632D01*
X0080127Y0093721D01*
X0080197Y0093807D01*
X0080270Y0093891D01*
X0080347Y0093973D01*
X0080426Y0094051D01*
X0080507Y0094127D01*
X0080592Y0094200D01*
X0080679Y0094269D01*
X0080768Y0094336D01*
X0080860Y0094400D01*
X0080953Y0094460D01*
X0081049Y0094517D01*
X0081147Y0094570D01*
X0081246Y0094620D01*
X0081348Y0094667D01*
X0081450Y0094710D01*
X0081555Y0094749D01*
X0081660Y0094785D01*
X0081767Y0094817D01*
X0081875Y0094845D01*
X0081983Y0094870D01*
X0082093Y0094890D01*
X0082203Y0094907D01*
X0082203Y0101402D02*
X0082008Y0101391D01*
X0081814Y0101374D01*
X0081620Y0101353D01*
X0081426Y0101327D01*
X0081233Y0101296D01*
X0081041Y0101261D01*
X0080850Y0101221D01*
X0080660Y0101176D01*
X0080471Y0101127D01*
X0080283Y0101074D01*
X0080097Y0101016D01*
X0079912Y0100953D01*
X0079729Y0100886D01*
X0079547Y0100814D01*
X0079367Y0100738D01*
X0079189Y0100658D01*
X0079013Y0100574D01*
X0078839Y0100485D01*
X0078667Y0100392D01*
X0078498Y0100295D01*
X0078331Y0100194D01*
X0078166Y0100089D01*
X0078004Y0099980D01*
X0077845Y0099867D01*
X0077688Y0099750D01*
X0077535Y0099630D01*
X0077384Y0099506D01*
X0077236Y0099378D01*
X0077092Y0099246D01*
X0076951Y0099112D01*
X0076813Y0098974D01*
X0076678Y0098832D01*
X0076547Y0098688D01*
X0076419Y0098540D01*
X0076295Y0098389D01*
X0076175Y0098235D01*
X0076058Y0098079D01*
X0075945Y0097919D01*
X0075837Y0097757D01*
X0075732Y0097593D01*
X0075631Y0097425D01*
X0075534Y0097256D01*
X0075441Y0097084D01*
X0075352Y0096910D01*
X0075268Y0096734D01*
X0075188Y0096556D01*
X0075112Y0096376D01*
X0075041Y0096194D01*
X0074974Y0096011D01*
X0074911Y0095826D01*
X0074853Y0095639D01*
X0074800Y0095451D01*
X0074751Y0095262D01*
X0074707Y0095072D01*
X0074667Y0094881D01*
X0074632Y0094689D01*
X0074601Y0094496D01*
X0074576Y0094303D01*
X0074554Y0094109D01*
X0074538Y0093914D01*
X0074526Y0093719D01*
X0074519Y0093524D01*
X0074517Y0093329D01*
X0074519Y0093133D01*
X0074527Y0092938D01*
X0079769Y0098894D02*
X0125476Y0098894D01*
X0125476Y0085710D02*
X0092726Y0085710D01*
X0088328Y0084512D02*
X0125476Y0084512D01*
X0125476Y0083313D02*
X0086544Y0083313D01*
X0088140Y0082115D02*
X0125476Y0082115D01*
X0125476Y0080916D02*
X0088531Y0080916D01*
X0088307Y0079717D02*
X0125476Y0079717D01*
X0125476Y0078519D02*
X0116965Y0078519D01*
X0116945Y0078592D02*
X0116735Y0078957D01*
X0116437Y0079255D01*
X0116072Y0079466D01*
X0115665Y0079575D01*
X0113298Y0079575D01*
X0113298Y0075425D01*
X0112099Y0075425D01*
X0112099Y0079575D01*
X0109732Y0079575D01*
X0109325Y0079466D01*
X0108960Y0079255D01*
X0108662Y0078957D01*
X0108452Y0078592D01*
X0108343Y0078185D01*
X0108343Y0075425D01*
X0112098Y0075425D01*
X0112098Y0074225D01*
X0108343Y0074225D01*
X0108343Y0071465D01*
X0108452Y0071058D01*
X0108662Y0070693D01*
X0108960Y0070395D01*
X0109325Y0070185D01*
X0109732Y0070076D01*
X0112099Y0070076D01*
X0112099Y0074225D01*
X0113298Y0074225D01*
X0113298Y0070076D01*
X0115665Y0070076D01*
X0116072Y0070185D01*
X0116437Y0070395D01*
X0116735Y0070693D01*
X0116945Y0071058D01*
X0117054Y0071465D01*
X0117054Y0074225D01*
X0113299Y0074225D01*
X0113299Y0075425D01*
X0117054Y0075425D01*
X0117054Y0078185D01*
X0116945Y0078592D01*
X0117054Y0077320D02*
X0125476Y0077320D01*
X0125476Y0076122D02*
X0117054Y0076122D01*
X0117054Y0073725D02*
X0125476Y0073725D01*
X0125476Y0074923D02*
X0113299Y0074923D01*
X0113298Y0073725D02*
X0112099Y0073725D01*
X0112098Y0074923D02*
X0105631Y0074923D01*
X0105631Y0073725D02*
X0108343Y0073725D01*
X0108343Y0072526D02*
X0105631Y0072526D01*
X0105631Y0071328D02*
X0108379Y0071328D01*
X0109531Y0070129D02*
X0103708Y0070129D01*
X0103708Y0068931D02*
X0125476Y0068931D01*
X0125476Y0070129D02*
X0115866Y0070129D01*
X0117018Y0071328D02*
X0125476Y0071328D01*
X0125476Y0072526D02*
X0117054Y0072526D01*
X0113298Y0072526D02*
X0112099Y0072526D01*
X0112099Y0071328D02*
X0113298Y0071328D01*
X0113298Y0070129D02*
X0112099Y0070129D01*
X0111409Y0066534D02*
X0125476Y0066534D01*
X0125476Y0067732D02*
X0103708Y0067732D01*
X0103708Y0066534D02*
X0105359Y0066534D01*
X0108000Y0066534D02*
X0108769Y0066534D01*
X0108769Y0065335D02*
X0108000Y0065335D01*
X0108000Y0064137D02*
X0108769Y0064137D01*
X0108769Y0062938D02*
X0125476Y0062938D01*
X0125476Y0061740D02*
X0112150Y0061740D01*
X0112150Y0061035D02*
X0112150Y0062830D01*
X0108769Y0062830D01*
X0108769Y0059646D01*
X0110760Y0059646D01*
X0111167Y0059755D01*
X0111532Y0059965D01*
X0111830Y0060263D01*
X0112041Y0060628D01*
X0112150Y0061035D01*
X0111991Y0060541D02*
X0125476Y0060541D01*
X0125476Y0059343D02*
X0103691Y0059343D01*
X0103691Y0058144D02*
X0125476Y0058144D01*
X0125476Y0056946D02*
X0103691Y0056946D01*
X0104466Y0055747D02*
X0106003Y0055747D01*
X0106003Y0054549D02*
X0104466Y0054549D01*
X0104466Y0053350D02*
X0106003Y0053350D01*
X0106003Y0052152D02*
X0104466Y0052152D01*
X0104466Y0050953D02*
X0106003Y0050953D01*
X0106564Y0049755D02*
X0103905Y0049755D01*
X0106778Y0048556D02*
X0092465Y0048556D01*
X0092387Y0047358D02*
X0106778Y0047358D01*
X0105971Y0046159D02*
X0105458Y0046159D01*
X0102469Y0046159D02*
X0101701Y0046159D01*
X0101701Y0044961D02*
X0102469Y0044961D01*
X0102469Y0043762D02*
X0101701Y0043762D01*
X0101701Y0042751D02*
X0098320Y0042751D01*
X0098320Y0040956D01*
X0098429Y0040549D01*
X0098639Y0040184D01*
X0098937Y0039887D01*
X0099302Y0039676D01*
X0099709Y0039567D01*
X0101701Y0039567D01*
X0101701Y0042751D01*
X0101701Y0042564D02*
X0102469Y0042564D01*
X0102469Y0041365D02*
X0101701Y0041365D01*
X0101701Y0040167D02*
X0102469Y0040167D01*
X0104527Y0038968D02*
X0083100Y0038968D01*
X0083216Y0037770D02*
X0103329Y0037770D01*
X0102130Y0036571D02*
X0082563Y0036571D01*
X0080825Y0038214D02*
X0080825Y0042545D01*
X0080825Y0043332D02*
X0088896Y0043332D01*
X0085728Y0041365D02*
X0084191Y0041365D01*
X0083491Y0040167D02*
X0086231Y0040167D01*
X0085892Y0046159D02*
X0083829Y0046159D01*
X0083989Y0047358D02*
X0085406Y0047358D01*
X0085328Y0048556D02*
X0084191Y0048556D01*
X0088512Y0050953D02*
X0089280Y0050953D01*
X0089280Y0052152D02*
X0088512Y0052152D01*
X0088512Y0053350D02*
X0089280Y0053350D01*
X0089144Y0055747D02*
X0077846Y0055747D01*
X0079044Y0054549D02*
X0098917Y0054549D01*
X0098917Y0055747D02*
X0097729Y0055747D01*
X0097848Y0056946D02*
X0099691Y0056946D01*
X0099691Y0058144D02*
X0097848Y0058144D01*
X0097848Y0059343D02*
X0099691Y0059343D01*
X0098533Y0060541D02*
X0097848Y0060541D01*
X0097809Y0061740D02*
X0098326Y0061740D01*
X0098326Y0062938D02*
X0096628Y0062938D01*
X0089005Y0056946D02*
X0076647Y0056946D01*
X0075449Y0058144D02*
X0080546Y0058144D01*
X0079718Y0059343D02*
X0074250Y0059343D01*
X0073052Y0060541D02*
X0079616Y0060541D01*
X0082006Y0060065D02*
X0082006Y0066087D01*
X0082016Y0066097D01*
X0083806Y0062938D02*
X0085316Y0062938D01*
X0085316Y0061740D02*
X0083806Y0061740D01*
X0084396Y0060541D02*
X0085316Y0060541D01*
X0085863Y0059343D02*
X0084295Y0059343D01*
X0083467Y0058144D02*
X0086902Y0058144D01*
X0086381Y0058445D02*
X0086381Y0058445D01*
X0086381Y0058445D01*
X0077869Y0062938D02*
X0071405Y0062938D01*
X0069605Y0062478D02*
X0069605Y0065883D01*
X0069604Y0065883D02*
X0069602Y0065917D01*
X0069596Y0065950D01*
X0069587Y0065983D01*
X0069574Y0066014D01*
X0069558Y0066044D01*
X0069538Y0066071D01*
X0069516Y0066097D01*
X0068227Y0055747D02*
X0047986Y0055747D01*
X0047986Y0054549D02*
X0069425Y0054549D01*
X0070624Y0053350D02*
X0067755Y0053350D01*
X0068252Y0052152D02*
X0069389Y0052152D01*
X0069389Y0050953D02*
X0068252Y0050953D01*
X0069389Y0049755D02*
X0065068Y0049755D01*
X0064299Y0049755D02*
X0047986Y0049755D01*
X0047986Y0050953D02*
X0061115Y0050953D01*
X0061115Y0052152D02*
X0047986Y0052152D01*
X0047986Y0053350D02*
X0061612Y0053350D01*
X0064299Y0053350D02*
X0065068Y0053350D01*
X0065068Y0052152D02*
X0064299Y0052152D01*
X0064299Y0050953D02*
X0065068Y0050953D01*
X0061193Y0047358D02*
X0047986Y0047358D01*
X0047986Y0048556D02*
X0061115Y0048556D01*
X0061680Y0046159D02*
X0047986Y0046159D01*
X0047986Y0044961D02*
X0050807Y0044961D01*
X0050580Y0044733D02*
X0050098Y0043569D01*
X0050098Y0042308D01*
X0050580Y0041144D01*
X0051471Y0040252D01*
X0052636Y0039770D01*
X0053896Y0039770D01*
X0055061Y0040252D01*
X0055952Y0041144D01*
X0056435Y0042308D01*
X0056435Y0043569D01*
X0055952Y0044733D01*
X0055061Y0045625D01*
X0053896Y0046107D01*
X0052636Y0046107D01*
X0051471Y0045625D01*
X0050580Y0044733D01*
X0050178Y0043762D02*
X0047986Y0043762D01*
X0047986Y0042564D02*
X0050098Y0042564D01*
X0050488Y0041365D02*
X0047986Y0041365D01*
X0047986Y0040167D02*
X0051679Y0040167D01*
X0054854Y0040167D02*
X0062018Y0040167D01*
X0061515Y0041365D02*
X0056044Y0041365D01*
X0056435Y0042564D02*
X0061515Y0042564D01*
X0061515Y0043762D02*
X0056355Y0043762D01*
X0055725Y0044961D02*
X0061515Y0044961D01*
X0064684Y0043332D02*
X0072754Y0043332D01*
X0069750Y0046159D02*
X0067688Y0046159D01*
X0068174Y0047358D02*
X0069591Y0047358D01*
X0069389Y0048556D02*
X0068252Y0048556D01*
X0073541Y0051600D02*
X0073560Y0051689D01*
X0073574Y0051778D01*
X0073586Y0051868D01*
X0073593Y0051959D01*
X0073597Y0052049D01*
X0073596Y0052140D01*
X0073593Y0052231D01*
X0073585Y0052321D01*
X0073574Y0052411D01*
X0073559Y0052500D01*
X0073540Y0052589D01*
X0073518Y0052677D01*
X0073492Y0052764D01*
X0073462Y0052850D01*
X0073429Y0052934D01*
X0073392Y0053017D01*
X0073353Y0053098D01*
X0073309Y0053178D01*
X0073263Y0053256D01*
X0091561Y0040167D02*
X0098657Y0040167D01*
X0098320Y0041365D02*
X0092065Y0041365D01*
X0092065Y0042564D02*
X0098320Y0042564D01*
X0098320Y0043762D02*
X0092065Y0043762D01*
X0092065Y0044961D02*
X0098320Y0044961D01*
X0098712Y0046159D02*
X0091900Y0046159D01*
X0094205Y0030579D02*
X0070366Y0030579D01*
X0071504Y0029380D02*
X0093780Y0029380D01*
X0093987Y0028182D02*
X0072000Y0028182D01*
X0068783Y0022189D02*
X0068710Y0022189D01*
X0062193Y0009005D02*
X0049722Y0009005D01*
X0050880Y0007807D02*
X0062721Y0007807D01*
X0063919Y0006608D02*
X0052882Y0006608D01*
X0100529Y0028182D02*
X0101855Y0028182D01*
X0101727Y0029380D02*
X0102352Y0029380D01*
X0102926Y0030579D02*
X0103489Y0030579D01*
X0104124Y0031777D02*
X0116496Y0031777D01*
X0116403Y0031870D02*
X0117086Y0031187D01*
X0116403Y0031187D01*
X0115524Y0030309D01*
X0115524Y0029066D01*
X0116403Y0028187D01*
X0116744Y0027846D01*
X0116658Y0027760D01*
X0115524Y0026625D01*
X0115524Y0025383D01*
X0116403Y0024504D01*
X0116674Y0024233D01*
X0116658Y0024217D01*
X0116658Y0022802D01*
X0116091Y0022235D01*
X0115524Y0021668D01*
X0115524Y0018724D01*
X0115893Y0018354D01*
X0115524Y0017985D01*
X0115524Y0015041D01*
X0116177Y0014387D01*
X0115524Y0013734D01*
X0115524Y0012492D01*
X0116403Y0011613D01*
X0117537Y0010479D01*
X0119347Y0010479D01*
X0121048Y0010479D01*
X0121927Y0011357D01*
X0121927Y0012600D01*
X0121414Y0013113D01*
X0121927Y0013626D01*
X0121927Y0014869D01*
X0121841Y0014955D01*
X0121927Y0015041D01*
X0121927Y0016283D01*
X0121048Y0017162D01*
X0120793Y0017162D01*
X0120793Y0017845D01*
X0121048Y0017845D01*
X0121927Y0018724D01*
X0121927Y0019966D01*
X0121414Y0020479D01*
X0121927Y0020992D01*
X0121927Y0022235D01*
X0121841Y0022321D01*
X0121927Y0022407D01*
X0121927Y0024217D01*
X0121911Y0024233D01*
X0121927Y0024248D01*
X0121927Y0025491D01*
X0121414Y0026004D01*
X0121927Y0026517D01*
X0121927Y0027760D01*
X0121841Y0027846D01*
X0121927Y0027932D01*
X0121927Y0031443D01*
X0121841Y0031529D01*
X0121927Y0031615D01*
X0121927Y0035126D01*
X0121048Y0036005D01*
X0119806Y0036005D01*
X0118927Y0035126D01*
X0118927Y0034870D01*
X0116403Y0034870D01*
X0115524Y0033992D01*
X0115524Y0032749D01*
X0116403Y0031870D01*
X0115524Y0032976D02*
X0105323Y0032976D01*
X0106521Y0034174D02*
X0115706Y0034174D01*
X0115794Y0030579D02*
X0109342Y0030579D01*
X0110480Y0029380D02*
X0115524Y0029380D01*
X0116408Y0028182D02*
X0110976Y0028182D01*
X0111159Y0026983D02*
X0115882Y0026983D01*
X0115524Y0025784D02*
X0111131Y0025784D01*
X0110634Y0024586D02*
X0116321Y0024586D01*
X0116658Y0023387D02*
X0109714Y0023387D01*
X0107686Y0022189D02*
X0116045Y0022189D01*
X0115524Y0020990D02*
X0105073Y0020990D01*
X0105073Y0019792D02*
X0115524Y0019792D01*
X0115654Y0018593D02*
X0105073Y0018593D01*
X0105073Y0017395D02*
X0115524Y0017395D01*
X0115524Y0016196D02*
X0108698Y0016196D01*
X0110428Y0014998D02*
X0115567Y0014998D01*
X0115589Y0013799D02*
X0111369Y0013799D01*
X0111866Y0012601D02*
X0115524Y0012601D01*
X0116613Y0011402D02*
X0112045Y0011402D01*
X0112045Y0010204D02*
X0124611Y0010204D01*
X0125008Y0011402D02*
X0121927Y0011402D01*
X0121926Y0012601D02*
X0125384Y0012601D01*
X0125476Y0013799D02*
X0121927Y0013799D01*
X0121884Y0014998D02*
X0125476Y0014998D01*
X0125476Y0016196D02*
X0121927Y0016196D01*
X0120793Y0017395D02*
X0125476Y0017395D01*
X0125476Y0018593D02*
X0121797Y0018593D01*
X0121927Y0019792D02*
X0125476Y0019792D01*
X0125476Y0020990D02*
X0121925Y0020990D01*
X0121927Y0022189D02*
X0125476Y0022189D01*
X0125476Y0023387D02*
X0121927Y0023387D01*
X0121927Y0024586D02*
X0125476Y0024586D01*
X0125476Y0025784D02*
X0121633Y0025784D01*
X0121927Y0026983D02*
X0125476Y0026983D01*
X0125476Y0028182D02*
X0121927Y0028182D01*
X0121927Y0029380D02*
X0125476Y0029380D01*
X0125476Y0030579D02*
X0121927Y0030579D01*
X0121927Y0031777D02*
X0125476Y0031777D01*
X0125476Y0032976D02*
X0121927Y0032976D01*
X0121927Y0034174D02*
X0125476Y0034174D01*
X0125476Y0035373D02*
X0121680Y0035373D01*
X0119173Y0035373D02*
X0107720Y0035373D01*
X0108918Y0036571D02*
X0125476Y0036571D01*
X0125476Y0037770D02*
X0110117Y0037770D01*
X0111093Y0038745D02*
X0111093Y0038745D01*
X0111147Y0038800D02*
X0111147Y0038800D01*
X0111217Y0038968D02*
X0125476Y0038968D01*
X0125476Y0040167D02*
X0121192Y0040167D01*
X0121400Y0040252D02*
X0122291Y0041144D01*
X0122773Y0042308D01*
X0122773Y0043569D01*
X0122291Y0044733D01*
X0121400Y0045625D01*
X0120235Y0046107D01*
X0118975Y0046107D01*
X0117810Y0045625D01*
X0116919Y0044733D01*
X0116436Y0043569D01*
X0116436Y0042308D01*
X0116919Y0041144D01*
X0117810Y0040252D01*
X0118975Y0039770D01*
X0120235Y0039770D01*
X0121400Y0040252D01*
X0122383Y0041365D02*
X0125476Y0041365D01*
X0125476Y0042564D02*
X0122773Y0042564D01*
X0122693Y0043762D02*
X0125476Y0043762D01*
X0125476Y0044961D02*
X0122064Y0044961D01*
X0125476Y0046159D02*
X0111585Y0046159D01*
X0112143Y0044961D02*
X0117146Y0044961D01*
X0116516Y0043762D02*
X0112143Y0043762D01*
X0112143Y0042564D02*
X0116436Y0042564D01*
X0116827Y0041365D02*
X0112143Y0041365D01*
X0111640Y0040167D02*
X0118017Y0040167D01*
X0110778Y0047358D02*
X0125476Y0047358D01*
X0125476Y0048556D02*
X0110778Y0048556D01*
X0110992Y0049755D02*
X0125476Y0049755D01*
X0125476Y0050953D02*
X0111553Y0050953D01*
X0111553Y0052152D02*
X0125476Y0052152D01*
X0125476Y0053350D02*
X0111553Y0053350D01*
X0111553Y0054549D02*
X0125476Y0054549D01*
X0125476Y0055747D02*
X0111553Y0055747D01*
X0108769Y0060541D02*
X0108000Y0060541D01*
X0108000Y0061740D02*
X0108769Y0061740D01*
X0112150Y0064137D02*
X0125476Y0064137D01*
X0125476Y0065335D02*
X0112150Y0065335D01*
X0112099Y0076122D02*
X0113298Y0076122D01*
X0113298Y0077320D02*
X0112099Y0077320D01*
X0112099Y0078519D02*
X0113298Y0078519D01*
X0108432Y0078519D02*
X0105584Y0078519D01*
X0105631Y0077320D02*
X0108343Y0077320D01*
X0108343Y0076122D02*
X0105631Y0076122D01*
X0097719Y0077320D02*
X0079359Y0077320D01*
X0087040Y0078519D02*
X0097766Y0078519D01*
X0104462Y0088107D02*
X0105048Y0088107D01*
X0108000Y0088107D02*
X0108769Y0088107D01*
X0108769Y0089306D02*
X0108000Y0089306D01*
X0108000Y0090504D02*
X0108769Y0090504D01*
X0108769Y0091703D02*
X0108000Y0091703D01*
X0108000Y0092901D02*
X0108769Y0092901D01*
X0108769Y0094100D02*
X0108000Y0094100D01*
X0104928Y0094100D02*
X0104590Y0094100D01*
X0105513Y0040167D02*
X0105726Y0040167D01*
X0105145Y0022189D02*
X0105073Y0022189D01*
X0111662Y0009005D02*
X0123740Y0009005D01*
X0122581Y0007807D02*
X0111135Y0007807D01*
X0109936Y0006608D02*
X0120579Y0006608D01*
X0080699Y0148033D02*
X0077085Y0148033D01*
X0077504Y0149231D02*
X0080216Y0149231D01*
X0080216Y0150430D02*
X0077504Y0150430D01*
X0077504Y0151628D02*
X0080703Y0151628D01*
X0082343Y0152827D02*
X0077076Y0152827D01*
X0076580Y0154025D02*
X0092846Y0154025D01*
X0092846Y0152827D02*
X0084425Y0152827D01*
X0086065Y0151628D02*
X0092846Y0151628D01*
X0092846Y0150430D02*
X0086553Y0150430D01*
X0092846Y0155224D02*
X0075563Y0155224D01*
X0074939Y0156422D02*
X0092846Y0156422D01*
X0092846Y0157621D02*
X0074939Y0157621D01*
X0074939Y0158819D02*
X0092846Y0158819D01*
X0092846Y0160018D02*
X0074939Y0160018D01*
X0074939Y0161216D02*
X0092846Y0161216D01*
X0092846Y0162415D02*
X0074939Y0162415D01*
X0066239Y0162415D02*
X0061947Y0162415D01*
X0061947Y0161216D02*
X0066239Y0161216D01*
X0057597Y0159080D02*
X0057203Y0159868D01*
X0053247Y0161216D02*
X0049789Y0161216D01*
X0048918Y0160018D02*
X0051661Y0160018D01*
X0050011Y0158819D02*
X0048483Y0158819D01*
X0048094Y0157621D02*
X0049133Y0157621D01*
X0049996Y0158808D02*
X0049996Y0158808D01*
X0048262Y0156422D02*
X0047990Y0156422D01*
X0051008Y0162415D02*
X0053247Y0162415D01*
X0053167Y0163613D02*
X0092846Y0163613D01*
X0057203Y0159868D02*
X0057003Y0159866D01*
X0056804Y0159858D01*
X0056604Y0159846D01*
X0056405Y0159829D01*
X0056206Y0159808D01*
X0056008Y0159781D01*
X0055811Y0159750D01*
X0055614Y0159714D01*
X0055419Y0159673D01*
X0055224Y0159628D01*
X0055031Y0159578D01*
X0054839Y0159523D01*
X0054648Y0159463D01*
X0054459Y0159399D01*
X0054271Y0159331D01*
X0054085Y0159258D01*
X0053901Y0159180D01*
X0053719Y0159098D01*
X0053539Y0159012D01*
X0053361Y0158921D01*
X0053185Y0158826D01*
X0053011Y0158727D01*
X0052840Y0158623D01*
X0052672Y0158516D01*
X0052506Y0158404D01*
X0052343Y0158289D01*
X0052183Y0158170D01*
X0052026Y0158046D01*
X0051871Y0157919D01*
X0051720Y0157789D01*
X0051572Y0157654D01*
X0051428Y0157517D01*
X0051286Y0157375D01*
X0051149Y0157231D01*
X0051014Y0157083D01*
X0050884Y0156932D01*
X0050757Y0156777D01*
X0050633Y0156620D01*
X0050514Y0156460D01*
X0050399Y0156297D01*
X0050287Y0156131D01*
X0050180Y0155963D01*
X0050076Y0155792D01*
X0049977Y0155618D01*
X0049882Y0155442D01*
X0049791Y0155264D01*
X0049705Y0155084D01*
X0049623Y0154902D01*
X0049545Y0154718D01*
X0049472Y0154532D01*
X0049404Y0154344D01*
X0049340Y0154155D01*
X0049280Y0153964D01*
X0049225Y0153772D01*
X0049175Y0153579D01*
X0049130Y0153384D01*
X0049089Y0153189D01*
X0049053Y0152992D01*
X0049022Y0152795D01*
X0048995Y0152597D01*
X0048974Y0152398D01*
X0048957Y0152199D01*
X0048945Y0151999D01*
X0048937Y0151800D01*
X0048935Y0151600D01*
X0082006Y0089592D02*
X0082016Y0087497D01*
D23*
X0080038Y0080734D03*
X0086140Y0080734D03*
X0091258Y0087624D03*
X0082203Y0094907D03*
X0082203Y0101403D03*
X0062715Y0083687D03*
X0062518Y0073450D03*
X0082006Y0060065D03*
X0080825Y0038214D03*
X0072754Y0038214D03*
X0063109Y0031128D03*
X0096180Y0029159D03*
X0110550Y0031324D03*
X0112715Y0134277D03*
X0112715Y0139002D03*
X0112715Y0143726D03*
X0100707Y0143726D03*
X0100707Y0139002D03*
X0100707Y0134277D03*
X0050707Y0134671D03*
D24*
X0057597Y0159080D02*
X0070589Y0159080D01*
X0082016Y0087497D02*
X0082016Y0084540D01*
X0080863Y0081756D02*
X0080038Y0080734D01*
X0075679Y0076572D01*
X0074526Y0073788D02*
X0074526Y0066121D01*
X0074525Y0066112D01*
X0074521Y0066104D01*
X0074516Y0066097D01*
X0077016Y0066097D02*
X0077016Y0070891D01*
X0074526Y0073788D02*
X0074528Y0073912D01*
X0074534Y0074035D01*
X0074543Y0074159D01*
X0074557Y0074281D01*
X0074574Y0074404D01*
X0074596Y0074526D01*
X0074621Y0074647D01*
X0074650Y0074767D01*
X0074682Y0074886D01*
X0074719Y0075005D01*
X0074759Y0075122D01*
X0074802Y0075237D01*
X0074850Y0075352D01*
X0074901Y0075464D01*
X0074955Y0075575D01*
X0075013Y0075685D01*
X0075074Y0075792D01*
X0075139Y0075898D01*
X0075207Y0076001D01*
X0075278Y0076102D01*
X0075352Y0076201D01*
X0075429Y0076298D01*
X0075510Y0076392D01*
X0075593Y0076483D01*
X0075679Y0076572D01*
X0080953Y0074828D02*
X0095392Y0074828D01*
X0095392Y0074830D01*
X0095394Y0074831D01*
X0095395Y0074831D01*
X0101708Y0074831D01*
X0101708Y0063231D01*
X0101707Y0063224D01*
X0101703Y0063219D01*
X0101698Y0063215D01*
X0101691Y0063214D01*
X0101691Y0053175D01*
X0108778Y0053175D02*
X0108778Y0043135D01*
X0080953Y0074828D02*
X0080829Y0074826D01*
X0080706Y0074820D01*
X0080582Y0074811D01*
X0080460Y0074797D01*
X0080337Y0074780D01*
X0080215Y0074758D01*
X0080094Y0074733D01*
X0079974Y0074704D01*
X0079855Y0074672D01*
X0079736Y0074635D01*
X0079619Y0074595D01*
X0079504Y0074552D01*
X0079389Y0074504D01*
X0079277Y0074453D01*
X0079166Y0074399D01*
X0079056Y0074341D01*
X0078949Y0074280D01*
X0078843Y0074215D01*
X0078740Y0074147D01*
X0078639Y0074076D01*
X0078540Y0074002D01*
X0078443Y0073925D01*
X0078349Y0073844D01*
X0078258Y0073761D01*
X0078169Y0073675D01*
X0078083Y0073586D01*
X0078000Y0073495D01*
X0077919Y0073401D01*
X0077842Y0073304D01*
X0077768Y0073205D01*
X0077697Y0073104D01*
X0077629Y0073001D01*
X0077564Y0072895D01*
X0077503Y0072788D01*
X0077445Y0072678D01*
X0077391Y0072567D01*
X0077340Y0072455D01*
X0077292Y0072340D01*
X0077249Y0072225D01*
X0077209Y0072108D01*
X0077172Y0071989D01*
X0077140Y0071870D01*
X0077111Y0071750D01*
X0077086Y0071629D01*
X0077064Y0071507D01*
X0077047Y0071384D01*
X0077033Y0071262D01*
X0077024Y0071138D01*
X0077018Y0071015D01*
X0077016Y0070891D01*
X0080863Y0081756D02*
X0080949Y0081845D01*
X0081032Y0081936D01*
X0081113Y0082030D01*
X0081190Y0082127D01*
X0081264Y0082226D01*
X0081335Y0082327D01*
X0081403Y0082430D01*
X0081468Y0082536D01*
X0081529Y0082643D01*
X0081587Y0082753D01*
X0081641Y0082864D01*
X0081692Y0082976D01*
X0081740Y0083091D01*
X0081783Y0083206D01*
X0081823Y0083323D01*
X0081860Y0083442D01*
X0081892Y0083561D01*
X0081921Y0083681D01*
X0081946Y0083802D01*
X0081968Y0083924D01*
X0081985Y0084047D01*
X0081999Y0084169D01*
X0082008Y0084293D01*
X0082014Y0084416D01*
X0082016Y0084540D01*
D25*
X0109172Y0042939D02*
X0109172Y0040380D01*
X0109058Y0040105D02*
X0098226Y0029273D01*
X0097951Y0029159D02*
X0096180Y0029159D01*
X0097951Y0029159D02*
X0097989Y0029161D01*
X0098027Y0029166D01*
X0098064Y0029176D01*
X0098100Y0029189D01*
X0098134Y0029205D01*
X0098167Y0029225D01*
X0098198Y0029247D01*
X0098226Y0029273D01*
X0109058Y0040105D02*
X0109084Y0040133D01*
X0109106Y0040164D01*
X0109126Y0040197D01*
X0109142Y0040231D01*
X0109155Y0040267D01*
X0109165Y0040304D01*
X0109170Y0040342D01*
X0109172Y0040380D01*
X0117046Y0146088D02*
X0117046Y0153569D01*
X0124329Y0158687D02*
X0091062Y0158687D01*
X0096967Y0153569D02*
X0096967Y0146088D01*
D26*
X0087016Y0066097D02*
X0087016Y0061354D01*
X0087018Y0061260D01*
X0087024Y0061166D01*
X0087033Y0061073D01*
X0087047Y0060980D01*
X0087064Y0060887D01*
X0087086Y0060796D01*
X0087111Y0060705D01*
X0087139Y0060616D01*
X0087172Y0060527D01*
X0087208Y0060441D01*
X0087247Y0060355D01*
X0087290Y0060272D01*
X0087337Y0060190D01*
X0087386Y0060110D01*
X0087439Y0060033D01*
X0087495Y0059957D01*
X0087555Y0059884D01*
X0087617Y0059814D01*
X0087682Y0059746D01*
X0087750Y0059681D01*
X0087820Y0059619D01*
X0087893Y0059559D01*
X0087969Y0059503D01*
X0088046Y0059450D01*
X0088126Y0059401D01*
X0088208Y0059354D01*
X0088291Y0059311D01*
X0088377Y0059272D01*
X0088463Y0059236D01*
X0088552Y0059203D01*
X0088641Y0059175D01*
X0088732Y0059150D01*
X0088823Y0059128D01*
X0088916Y0059111D01*
X0089009Y0059097D01*
X0089102Y0059088D01*
X0089196Y0059082D01*
X0089290Y0059080D01*
X0091258Y0059080D01*
X0091284Y0059078D01*
X0091309Y0059073D01*
X0091333Y0059065D01*
X0091357Y0059054D01*
X0091378Y0059039D01*
X0091397Y0059022D01*
X0091414Y0059003D01*
X0091429Y0058982D01*
X0091440Y0058958D01*
X0091448Y0058934D01*
X0091453Y0058909D01*
X0091455Y0058883D01*
M02*
