%
M48
M72
T01C0.0118
T02C0.0472
T03C0.0591
T04C0.1063
%
T01
X6311Y3113
X7275Y3821
X8083Y3821
X9618Y2916
X11055Y3132
X8201Y6006
X8004Y8073
X8614Y8073
X9126Y8762
X8220Y9491
X8220Y10140
X6272Y8369
X6252Y7345
X5071Y13467
X10071Y13428
X10071Y13900
X10071Y14373
X11272Y14373
X11272Y13900
X11272Y13428
T02
X10642Y2680
X6744Y2680
T03
X6744Y1105
X10642Y1105
T04
X7059Y15042
X5760Y15042
M30
