G75*
%MOIN*%
%OFA0B0*%
%FSLAX25Y25*%
%IPPOS*%
%LPD*%
%AMOC8*
5,1,8,0,0,1.08239X$1,22.5*
%
%ADD10C,0.01600*%
%ADD11C,0.01200*%
%ADD12C,0.00800*%
D10*
X0055432Y0048647D02*
X0055432Y0054159D01*
X0055432Y0048647D02*
X0061140Y0048647D01*
X0111140Y0048647D02*
X0116849Y0048647D01*
X0116849Y0048844D02*
X0116849Y0054356D01*
X0116849Y0123450D02*
X0116849Y0128962D01*
X0111140Y0128962D01*
X0062124Y0128765D02*
X0056416Y0128765D01*
X0056416Y0123254D01*
D11*
X0099799Y0112820D02*
X0099801Y0112961D01*
X0099807Y0113103D01*
X0099817Y0113244D01*
X0099831Y0113385D01*
X0099849Y0113525D01*
X0099870Y0113665D01*
X0099896Y0113804D01*
X0099925Y0113942D01*
X0099959Y0114079D01*
X0099996Y0114216D01*
X0100037Y0114351D01*
X0100082Y0114485D01*
X0100131Y0114618D01*
X0100183Y0114749D01*
X0100239Y0114879D01*
X0100298Y0115008D01*
X0100361Y0115134D01*
X0100428Y0115259D01*
X0100498Y0115382D01*
X0100572Y0115503D01*
X0100649Y0115621D01*
X0100729Y0115738D01*
X0100812Y0115852D01*
X0100899Y0115964D01*
X0100989Y0116073D01*
X0101081Y0116180D01*
X0101177Y0116284D01*
X0101276Y0116385D01*
X0101377Y0116484D01*
X0101481Y0116580D01*
X0101588Y0116672D01*
X0101697Y0116762D01*
X0101809Y0116849D01*
X0101923Y0116932D01*
X0102040Y0117012D01*
X0102158Y0117089D01*
X0102279Y0117163D01*
X0102402Y0117233D01*
X0102527Y0117300D01*
X0102653Y0117363D01*
X0102782Y0117422D01*
X0102912Y0117478D01*
X0103043Y0117530D01*
X0103176Y0117579D01*
X0103310Y0117624D01*
X0103445Y0117665D01*
X0103582Y0117702D01*
X0103719Y0117736D01*
X0103857Y0117765D01*
X0103996Y0117791D01*
X0104136Y0117812D01*
X0104276Y0117830D01*
X0104417Y0117844D01*
X0104558Y0117854D01*
X0104700Y0117860D01*
X0104841Y0117862D01*
X0104982Y0117860D01*
X0105124Y0117854D01*
X0105265Y0117844D01*
X0105406Y0117830D01*
X0105546Y0117812D01*
X0105686Y0117791D01*
X0105825Y0117765D01*
X0105963Y0117736D01*
X0106100Y0117702D01*
X0106237Y0117665D01*
X0106372Y0117624D01*
X0106506Y0117579D01*
X0106639Y0117530D01*
X0106770Y0117478D01*
X0106900Y0117422D01*
X0107029Y0117363D01*
X0107155Y0117300D01*
X0107280Y0117233D01*
X0107403Y0117163D01*
X0107524Y0117089D01*
X0107642Y0117012D01*
X0107759Y0116932D01*
X0107873Y0116849D01*
X0107985Y0116762D01*
X0108094Y0116672D01*
X0108201Y0116580D01*
X0108305Y0116484D01*
X0108406Y0116385D01*
X0108505Y0116284D01*
X0108601Y0116180D01*
X0108693Y0116073D01*
X0108783Y0115964D01*
X0108870Y0115852D01*
X0108953Y0115738D01*
X0109033Y0115621D01*
X0109110Y0115503D01*
X0109184Y0115382D01*
X0109254Y0115259D01*
X0109321Y0115134D01*
X0109384Y0115008D01*
X0109443Y0114879D01*
X0109499Y0114749D01*
X0109551Y0114618D01*
X0109600Y0114485D01*
X0109645Y0114351D01*
X0109686Y0114216D01*
X0109723Y0114079D01*
X0109757Y0113942D01*
X0109786Y0113804D01*
X0109812Y0113665D01*
X0109833Y0113525D01*
X0109851Y0113385D01*
X0109865Y0113244D01*
X0109875Y0113103D01*
X0109881Y0112961D01*
X0109883Y0112820D01*
X0109881Y0112679D01*
X0109875Y0112537D01*
X0109865Y0112396D01*
X0109851Y0112255D01*
X0109833Y0112115D01*
X0109812Y0111975D01*
X0109786Y0111836D01*
X0109757Y0111698D01*
X0109723Y0111561D01*
X0109686Y0111424D01*
X0109645Y0111289D01*
X0109600Y0111155D01*
X0109551Y0111022D01*
X0109499Y0110891D01*
X0109443Y0110761D01*
X0109384Y0110632D01*
X0109321Y0110506D01*
X0109254Y0110381D01*
X0109184Y0110258D01*
X0109110Y0110137D01*
X0109033Y0110019D01*
X0108953Y0109902D01*
X0108870Y0109788D01*
X0108783Y0109676D01*
X0108693Y0109567D01*
X0108601Y0109460D01*
X0108505Y0109356D01*
X0108406Y0109255D01*
X0108305Y0109156D01*
X0108201Y0109060D01*
X0108094Y0108968D01*
X0107985Y0108878D01*
X0107873Y0108791D01*
X0107759Y0108708D01*
X0107642Y0108628D01*
X0107524Y0108551D01*
X0107403Y0108477D01*
X0107280Y0108407D01*
X0107155Y0108340D01*
X0107029Y0108277D01*
X0106900Y0108218D01*
X0106770Y0108162D01*
X0106639Y0108110D01*
X0106506Y0108061D01*
X0106372Y0108016D01*
X0106237Y0107975D01*
X0106100Y0107938D01*
X0105963Y0107904D01*
X0105825Y0107875D01*
X0105686Y0107849D01*
X0105546Y0107828D01*
X0105406Y0107810D01*
X0105265Y0107796D01*
X0105124Y0107786D01*
X0104982Y0107780D01*
X0104841Y0107778D01*
X0104700Y0107780D01*
X0104558Y0107786D01*
X0104417Y0107796D01*
X0104276Y0107810D01*
X0104136Y0107828D01*
X0103996Y0107849D01*
X0103857Y0107875D01*
X0103719Y0107904D01*
X0103582Y0107938D01*
X0103445Y0107975D01*
X0103310Y0108016D01*
X0103176Y0108061D01*
X0103043Y0108110D01*
X0102912Y0108162D01*
X0102782Y0108218D01*
X0102653Y0108277D01*
X0102527Y0108340D01*
X0102402Y0108407D01*
X0102279Y0108477D01*
X0102158Y0108551D01*
X0102040Y0108628D01*
X0101923Y0108708D01*
X0101809Y0108791D01*
X0101697Y0108878D01*
X0101588Y0108968D01*
X0101481Y0109060D01*
X0101377Y0109156D01*
X0101276Y0109255D01*
X0101177Y0109356D01*
X0101081Y0109460D01*
X0100989Y0109567D01*
X0100899Y0109676D01*
X0100812Y0109788D01*
X0100729Y0109902D01*
X0100649Y0110019D01*
X0100572Y0110137D01*
X0100498Y0110258D01*
X0100428Y0110381D01*
X0100361Y0110506D01*
X0100298Y0110632D01*
X0100239Y0110761D01*
X0100183Y0110891D01*
X0100131Y0111022D01*
X0100082Y0111155D01*
X0100037Y0111289D01*
X0099996Y0111424D01*
X0099959Y0111561D01*
X0099925Y0111698D01*
X0099896Y0111836D01*
X0099870Y0111975D01*
X0099849Y0112115D01*
X0099831Y0112255D01*
X0099817Y0112396D01*
X0099807Y0112537D01*
X0099801Y0112679D01*
X0099799Y0112820D01*
D12*
X0058204Y0014638D02*
X0054001Y0014638D01*
X0056103Y0014638D02*
X0056103Y0016039D01*
X0058204Y0014638D02*
X0058204Y0017440D01*
X0058204Y0019242D02*
X0058204Y0021344D01*
X0057504Y0022044D01*
X0056103Y0022044D01*
X0055402Y0021344D01*
X0055402Y0019242D01*
X0055402Y0020643D02*
X0054001Y0022044D01*
X0054701Y0023846D02*
X0054001Y0024546D01*
X0054001Y0025947D01*
X0054701Y0026648D01*
X0057504Y0026648D01*
X0058204Y0025947D01*
X0058204Y0024546D01*
X0057504Y0023846D01*
X0054701Y0023846D01*
X0055402Y0025247D02*
X0054001Y0026648D01*
X0054001Y0019242D02*
X0058204Y0019242D01*
M02*
