G75*
%MOIN*%
%OFA0B0*%
%FSLAX24Y24*%
%IPPOS*%
%LPD*%
%AMOC8*
5,1,8,0,0,1.08239X$1,22.5*
%
%ADD10C,0.0120*%
%ADD11C,0.0100*%
%ADD12C,0.0080*%
%ADD13C,0.0040*%
%ADD14R,0.0138X0.0138*%
%ADD15R,0.0394X0.0157*%
%ADD16R,0.0394X0.0138*%
%ADD17C,0.0000*%
%ADD18C,0.0060*%
D10*
X004579Y001377D02*
X004579Y015636D01*
X004581Y015696D01*
X004586Y015757D01*
X004595Y015816D01*
X004608Y015875D01*
X004624Y015934D01*
X004644Y015991D01*
X004667Y016046D01*
X004694Y016101D01*
X004723Y016153D01*
X004756Y016204D01*
X004792Y016253D01*
X004830Y016299D01*
X004872Y016343D01*
X004916Y016385D01*
X004962Y016423D01*
X005011Y016459D01*
X005062Y016492D01*
X005114Y016521D01*
X005169Y016548D01*
X005224Y016571D01*
X005281Y016591D01*
X005340Y016607D01*
X005399Y016620D01*
X005458Y016629D01*
X005519Y016634D01*
X005579Y016636D01*
X011768Y016636D01*
X011828Y016634D01*
X011889Y016629D01*
X011948Y016620D01*
X012007Y016607D01*
X012066Y016591D01*
X012123Y016571D01*
X012178Y016548D01*
X012233Y016521D01*
X012285Y016492D01*
X012336Y016459D01*
X012385Y016423D01*
X012431Y016385D01*
X012475Y016343D01*
X012517Y016299D01*
X012555Y016253D01*
X012591Y016204D01*
X012624Y016153D01*
X012653Y016101D01*
X012680Y016046D01*
X012703Y015991D01*
X012723Y015934D01*
X012739Y015875D01*
X012752Y015816D01*
X012761Y015757D01*
X012766Y015696D01*
X012768Y015636D01*
X012768Y001377D01*
X012766Y001317D01*
X012761Y001256D01*
X012752Y001197D01*
X012739Y001138D01*
X012723Y001079D01*
X012703Y001022D01*
X012680Y000967D01*
X012653Y000912D01*
X012624Y000860D01*
X012591Y000809D01*
X012555Y000760D01*
X012517Y000714D01*
X012475Y000670D01*
X012431Y000628D01*
X012385Y000590D01*
X012336Y000554D01*
X012285Y000521D01*
X012233Y000492D01*
X012178Y000465D01*
X012123Y000442D01*
X012066Y000422D01*
X012007Y000406D01*
X011948Y000393D01*
X011889Y000384D01*
X011828Y000379D01*
X011768Y000377D01*
X010287Y000377D01*
X010287Y002384D01*
X010110Y002581D02*
X007295Y002581D01*
X007269Y002579D01*
X007244Y002574D01*
X007220Y002566D01*
X007197Y002555D01*
X007175Y002540D01*
X007156Y002523D01*
X007139Y002504D01*
X007124Y002483D01*
X007113Y002459D01*
X007105Y002435D01*
X007100Y002410D01*
X007098Y002384D01*
X007098Y000377D01*
X005579Y000377D01*
X005519Y000379D01*
X005458Y000384D01*
X005399Y000393D01*
X005340Y000406D01*
X005281Y000422D01*
X005224Y000442D01*
X005169Y000465D01*
X005114Y000492D01*
X005062Y000521D01*
X005011Y000554D01*
X004962Y000590D01*
X004916Y000628D01*
X004872Y000670D01*
X004830Y000714D01*
X004792Y000760D01*
X004756Y000809D01*
X004723Y000860D01*
X004694Y000912D01*
X004667Y000967D01*
X004644Y001022D01*
X004624Y001079D01*
X004608Y001138D01*
X004595Y001197D01*
X004586Y001256D01*
X004581Y001317D01*
X004579Y001377D01*
X010110Y002581D02*
X010136Y002577D01*
X010162Y002570D01*
X010187Y002560D01*
X010209Y002546D01*
X010230Y002529D01*
X010248Y002509D01*
X010262Y002487D01*
X010274Y002463D01*
X010282Y002437D01*
X010286Y002411D01*
X010287Y002384D01*
D11*
X006169Y006477D02*
X005608Y006477D01*
X005608Y006197D01*
X005702Y006103D01*
X005888Y006103D01*
X005982Y006197D01*
X005982Y006477D01*
X005888Y006711D02*
X005982Y006805D01*
X005982Y007085D01*
X005608Y007085D01*
X005608Y007319D02*
X005608Y007412D01*
X005982Y007412D01*
X005982Y007319D02*
X005982Y007506D01*
X005982Y007724D02*
X005982Y007911D01*
X005982Y007817D02*
X005421Y007817D01*
X005421Y007724D01*
X005421Y007412D02*
X005328Y007412D01*
X005608Y006711D02*
X005888Y006711D01*
X005982Y008129D02*
X005982Y008316D01*
X005982Y008223D02*
X005608Y008223D01*
X005608Y008129D01*
X005421Y008223D02*
X005328Y008223D01*
X005608Y008534D02*
X005982Y008908D01*
X005982Y009142D02*
X005982Y009235D01*
X005888Y009235D01*
X005888Y009142D01*
X005982Y009142D01*
X005888Y009446D02*
X005702Y009446D01*
X005608Y009539D01*
X005608Y009820D01*
X005702Y010054D02*
X005888Y010054D01*
X005982Y010147D01*
X005982Y010334D01*
X005888Y010427D01*
X005702Y010427D01*
X005608Y010334D01*
X005608Y010147D01*
X005702Y010054D01*
X005982Y009820D02*
X005982Y009539D01*
X005888Y009446D01*
X005608Y008908D02*
X005982Y008534D01*
X005982Y010661D02*
X005608Y010661D01*
X005608Y010755D01*
X005702Y010848D01*
X005608Y010942D01*
X005702Y011035D01*
X005982Y011035D01*
X005982Y010848D02*
X005702Y010848D01*
X005133Y014510D02*
X005135Y014524D01*
X005141Y014538D01*
X005149Y014550D01*
X005161Y014558D01*
X005175Y014564D01*
X005189Y014566D01*
X005203Y014564D01*
X005217Y014558D01*
X005229Y014550D01*
X005237Y014538D01*
X005243Y014524D01*
X005245Y014510D01*
X005243Y014496D01*
X005237Y014482D01*
X005229Y014470D01*
X005217Y014462D01*
X005203Y014456D01*
X005189Y014454D01*
X005175Y014456D01*
X005161Y014462D01*
X005149Y014470D01*
X005141Y014482D01*
X005135Y014496D01*
X005133Y014510D01*
X006432Y014510D02*
X006434Y014524D01*
X006440Y014538D01*
X006448Y014550D01*
X006460Y014558D01*
X006474Y014564D01*
X006488Y014566D01*
X006502Y014564D01*
X006516Y014558D01*
X006528Y014550D01*
X006536Y014538D01*
X006542Y014524D01*
X006544Y014510D01*
X006542Y014496D01*
X006536Y014482D01*
X006528Y014470D01*
X006516Y014462D01*
X006502Y014456D01*
X006488Y014454D01*
X006474Y014456D01*
X006460Y014462D01*
X006448Y014470D01*
X006440Y014482D01*
X006434Y014496D01*
X006432Y014510D01*
D12*
X006843Y008464D02*
X008811Y008464D01*
X008811Y006896D01*
X006843Y006896D01*
X006843Y008464D01*
X008811Y007880D02*
X008784Y007878D01*
X008757Y007873D01*
X008731Y007863D01*
X008707Y007851D01*
X008685Y007835D01*
X008665Y007817D01*
X008648Y007795D01*
X008633Y007772D01*
X008623Y007747D01*
X008615Y007721D01*
X008611Y007694D01*
X008611Y007666D01*
X008615Y007639D01*
X008623Y007613D01*
X008633Y007588D01*
X008648Y007565D01*
X008665Y007543D01*
X008685Y007525D01*
X008707Y007509D01*
X008731Y007497D01*
X008757Y007487D01*
X008784Y007482D01*
X008811Y007480D01*
X009738Y007011D02*
X009738Y007956D01*
X010328Y007956D01*
X010328Y007011D02*
X009738Y007011D01*
X011116Y007011D02*
X011549Y007011D01*
X011706Y007168D01*
X011706Y007798D01*
X011549Y007956D01*
X011116Y007956D01*
D13*
X007334Y014648D02*
X007197Y014648D01*
X007334Y014786D01*
X007334Y014648D01*
X007197Y014648D02*
X006783Y014648D01*
X006783Y015436D01*
X007334Y015436D01*
X007334Y014786D01*
X007236Y014766D02*
X007236Y015317D01*
X006882Y015317D01*
X006882Y014766D01*
X007236Y014766D01*
X006035Y014786D02*
X005897Y014648D01*
X005484Y014648D01*
X005484Y015436D01*
X006035Y015436D01*
X006035Y014786D01*
X006035Y014648D01*
X005897Y014648D01*
X005937Y014766D02*
X005937Y015317D01*
X005583Y015317D01*
X005583Y014766D01*
X005937Y014766D01*
D14*
X005750Y014953D03*
X007049Y014953D03*
D15*
X007059Y015514D03*
X005760Y015514D03*
D16*
X005760Y014560D03*
X007059Y014560D03*
D17*
X006528Y015042D02*
X006530Y015088D01*
X006536Y015133D01*
X006546Y015178D01*
X006559Y015221D01*
X006576Y015264D01*
X006597Y015304D01*
X006621Y015343D01*
X006649Y015379D01*
X006680Y015413D01*
X006713Y015445D01*
X006749Y015473D01*
X006787Y015498D01*
X006827Y015520D01*
X006869Y015538D01*
X006912Y015552D01*
X006957Y015563D01*
X007002Y015570D01*
X007048Y015573D01*
X007093Y015572D01*
X007139Y015567D01*
X007184Y015558D01*
X007227Y015546D01*
X007270Y015529D01*
X007311Y015509D01*
X007350Y015486D01*
X007388Y015459D01*
X007422Y015429D01*
X007454Y015397D01*
X007483Y015361D01*
X007509Y015324D01*
X007532Y015284D01*
X007551Y015243D01*
X007566Y015200D01*
X007578Y015155D01*
X007586Y015110D01*
X007590Y015065D01*
X007590Y015019D01*
X007586Y014974D01*
X007578Y014929D01*
X007566Y014884D01*
X007551Y014841D01*
X007532Y014800D01*
X007509Y014760D01*
X007483Y014723D01*
X007454Y014687D01*
X007422Y014655D01*
X007388Y014625D01*
X007350Y014598D01*
X007311Y014575D01*
X007270Y014555D01*
X007227Y014538D01*
X007184Y014526D01*
X007139Y014517D01*
X007093Y014512D01*
X007048Y014511D01*
X007002Y014514D01*
X006957Y014521D01*
X006912Y014532D01*
X006869Y014546D01*
X006827Y014564D01*
X006787Y014586D01*
X006749Y014611D01*
X006713Y014639D01*
X006680Y014671D01*
X006649Y014705D01*
X006621Y014741D01*
X006597Y014780D01*
X006576Y014820D01*
X006559Y014863D01*
X006546Y014906D01*
X006536Y014951D01*
X006530Y014996D01*
X006528Y015042D01*
X005229Y015042D02*
X005231Y015088D01*
X005237Y015133D01*
X005247Y015178D01*
X005260Y015221D01*
X005277Y015264D01*
X005298Y015304D01*
X005322Y015343D01*
X005350Y015379D01*
X005381Y015413D01*
X005414Y015445D01*
X005450Y015473D01*
X005488Y015498D01*
X005528Y015520D01*
X005570Y015538D01*
X005613Y015552D01*
X005658Y015563D01*
X005703Y015570D01*
X005749Y015573D01*
X005794Y015572D01*
X005840Y015567D01*
X005885Y015558D01*
X005928Y015546D01*
X005971Y015529D01*
X006012Y015509D01*
X006051Y015486D01*
X006089Y015459D01*
X006123Y015429D01*
X006155Y015397D01*
X006184Y015361D01*
X006210Y015324D01*
X006233Y015284D01*
X006252Y015243D01*
X006267Y015200D01*
X006279Y015155D01*
X006287Y015110D01*
X006291Y015065D01*
X006291Y015019D01*
X006287Y014974D01*
X006279Y014929D01*
X006267Y014884D01*
X006252Y014841D01*
X006233Y014800D01*
X006210Y014760D01*
X006184Y014723D01*
X006155Y014687D01*
X006123Y014655D01*
X006089Y014625D01*
X006051Y014598D01*
X006012Y014575D01*
X005971Y014555D01*
X005928Y014538D01*
X005885Y014526D01*
X005840Y014517D01*
X005794Y014512D01*
X005749Y014511D01*
X005703Y014514D01*
X005658Y014521D01*
X005613Y014532D01*
X005570Y014546D01*
X005528Y014564D01*
X005488Y014586D01*
X005450Y014611D01*
X005414Y014639D01*
X005381Y014671D01*
X005350Y014705D01*
X005322Y014741D01*
X005298Y014780D01*
X005277Y014820D01*
X005260Y014863D01*
X005247Y014906D01*
X005237Y014951D01*
X005231Y014996D01*
X005229Y015042D01*
D18*
X010405Y005554D02*
X010642Y005554D01*
X010642Y005081D02*
X010405Y005081D01*
M02*
