G75*
%MOIN*%
%OFA0B0*%
%FSLAX25Y25*%
%IPPOS*%
%LPD*%
%AMOC8*
5,1,8,0,0,1.08239X$1,22.5*
%
%ADD10R,0.02000X0.04000*%
%ADD11R,0.04337X0.04731*%
%ADD12R,0.04731X0.04337*%
%ADD13R,0.04331X0.02362*%
%ADD14C,0.11030*%
%ADD15R,0.06400X0.16400*%
%ADD16C,0.05000*%
%ADD17C,0.04337*%
%ADD18R,0.03550X0.05124*%
%ADD19R,0.05912X0.06699*%
%ADD20R,0.02900X0.05400*%
%ADD21C,0.09258*%
%ADD22C,0.07487*%
D10*
X0069516Y0066097D03*
X0072016Y0066097D03*
X0074516Y0066097D03*
X0077016Y0066097D03*
X0079516Y0066097D03*
X0082016Y0066097D03*
X0084516Y0066097D03*
X0087016Y0066097D03*
X0087016Y0087497D03*
X0084516Y0087497D03*
X0082016Y0087497D03*
X0079516Y0087497D03*
X0077016Y0087497D03*
X0074516Y0087497D03*
X0072016Y0087497D03*
X0069516Y0087497D03*
D11*
X0064684Y0050025D03*
X0064684Y0043332D03*
X0088896Y0043332D03*
X0088896Y0050025D03*
D12*
X0080825Y0050025D03*
X0080825Y0043332D03*
X0072754Y0043332D03*
X0072754Y0050025D03*
X0102085Y0043135D03*
X0108778Y0043135D03*
X0108384Y0063214D03*
X0101691Y0063214D03*
X0101691Y0091167D03*
X0108384Y0091167D03*
X0070589Y0125419D03*
X0070589Y0132112D03*
X0057597Y0132112D03*
X0057597Y0125419D03*
D13*
X0057597Y0143332D03*
X0057597Y0157506D03*
X0070589Y0157506D03*
X0070589Y0143332D03*
D14*
X0070589Y0150419D03*
X0057597Y0150419D03*
D15*
X0097046Y0158687D03*
X0117046Y0158687D03*
D16*
X0081965Y0149828D02*
X0081967Y0149903D01*
X0081973Y0149978D01*
X0081983Y0150052D01*
X0081997Y0150125D01*
X0082014Y0150198D01*
X0082036Y0150270D01*
X0082061Y0150341D01*
X0082090Y0150410D01*
X0082122Y0150477D01*
X0082158Y0150543D01*
X0082198Y0150607D01*
X0082240Y0150668D01*
X0082286Y0150727D01*
X0082335Y0150784D01*
X0082387Y0150838D01*
X0082442Y0150889D01*
X0082499Y0150937D01*
X0082559Y0150983D01*
X0082621Y0151024D01*
X0082685Y0151063D01*
X0082751Y0151098D01*
X0082819Y0151130D01*
X0082889Y0151158D01*
X0082960Y0151182D01*
X0083032Y0151203D01*
X0083105Y0151219D01*
X0083179Y0151232D01*
X0083253Y0151241D01*
X0083328Y0151246D01*
X0083403Y0151247D01*
X0083478Y0151244D01*
X0083552Y0151237D01*
X0083626Y0151226D01*
X0083700Y0151211D01*
X0083772Y0151193D01*
X0083844Y0151170D01*
X0083914Y0151144D01*
X0083983Y0151114D01*
X0084050Y0151081D01*
X0084115Y0151044D01*
X0084178Y0151004D01*
X0084239Y0150960D01*
X0084298Y0150914D01*
X0084354Y0150864D01*
X0084407Y0150811D01*
X0084458Y0150756D01*
X0084505Y0150698D01*
X0084549Y0150638D01*
X0084590Y0150575D01*
X0084628Y0150510D01*
X0084662Y0150444D01*
X0084693Y0150375D01*
X0084720Y0150305D01*
X0084744Y0150234D01*
X0084763Y0150162D01*
X0084779Y0150089D01*
X0084791Y0150015D01*
X0084799Y0149940D01*
X0084803Y0149865D01*
X0084803Y0149791D01*
X0084799Y0149716D01*
X0084791Y0149641D01*
X0084779Y0149567D01*
X0084763Y0149494D01*
X0084744Y0149422D01*
X0084720Y0149351D01*
X0084693Y0149281D01*
X0084662Y0149212D01*
X0084628Y0149146D01*
X0084590Y0149081D01*
X0084549Y0149018D01*
X0084505Y0148958D01*
X0084458Y0148900D01*
X0084407Y0148845D01*
X0084354Y0148792D01*
X0084298Y0148742D01*
X0084239Y0148696D01*
X0084178Y0148652D01*
X0084115Y0148612D01*
X0084050Y0148575D01*
X0083983Y0148542D01*
X0083914Y0148512D01*
X0083844Y0148486D01*
X0083772Y0148463D01*
X0083700Y0148445D01*
X0083626Y0148430D01*
X0083552Y0148419D01*
X0083478Y0148412D01*
X0083403Y0148409D01*
X0083328Y0148410D01*
X0083253Y0148415D01*
X0083179Y0148424D01*
X0083105Y0148437D01*
X0083032Y0148453D01*
X0082960Y0148474D01*
X0082889Y0148498D01*
X0082819Y0148526D01*
X0082751Y0148558D01*
X0082685Y0148593D01*
X0082621Y0148632D01*
X0082559Y0148673D01*
X0082499Y0148719D01*
X0082442Y0148767D01*
X0082387Y0148818D01*
X0082335Y0148872D01*
X0082286Y0148929D01*
X0082240Y0148988D01*
X0082198Y0149049D01*
X0082158Y0149113D01*
X0082122Y0149179D01*
X0082090Y0149246D01*
X0082061Y0149315D01*
X0082036Y0149386D01*
X0082014Y0149458D01*
X0081997Y0149531D01*
X0081983Y0149604D01*
X0081973Y0149678D01*
X0081967Y0149753D01*
X0081965Y0149828D01*
X0051847Y0042939D02*
X0051849Y0043014D01*
X0051855Y0043089D01*
X0051865Y0043163D01*
X0051879Y0043236D01*
X0051896Y0043309D01*
X0051918Y0043381D01*
X0051943Y0043452D01*
X0051972Y0043521D01*
X0052004Y0043588D01*
X0052040Y0043654D01*
X0052080Y0043718D01*
X0052122Y0043779D01*
X0052168Y0043838D01*
X0052217Y0043895D01*
X0052269Y0043949D01*
X0052324Y0044000D01*
X0052381Y0044048D01*
X0052441Y0044094D01*
X0052503Y0044135D01*
X0052567Y0044174D01*
X0052633Y0044209D01*
X0052701Y0044241D01*
X0052771Y0044269D01*
X0052842Y0044293D01*
X0052914Y0044314D01*
X0052987Y0044330D01*
X0053061Y0044343D01*
X0053135Y0044352D01*
X0053210Y0044357D01*
X0053285Y0044358D01*
X0053360Y0044355D01*
X0053434Y0044348D01*
X0053508Y0044337D01*
X0053582Y0044322D01*
X0053654Y0044304D01*
X0053726Y0044281D01*
X0053796Y0044255D01*
X0053865Y0044225D01*
X0053932Y0044192D01*
X0053997Y0044155D01*
X0054060Y0044115D01*
X0054121Y0044071D01*
X0054180Y0044025D01*
X0054236Y0043975D01*
X0054289Y0043922D01*
X0054340Y0043867D01*
X0054387Y0043809D01*
X0054431Y0043749D01*
X0054472Y0043686D01*
X0054510Y0043621D01*
X0054544Y0043555D01*
X0054575Y0043486D01*
X0054602Y0043416D01*
X0054626Y0043345D01*
X0054645Y0043273D01*
X0054661Y0043200D01*
X0054673Y0043126D01*
X0054681Y0043051D01*
X0054685Y0042976D01*
X0054685Y0042902D01*
X0054681Y0042827D01*
X0054673Y0042752D01*
X0054661Y0042678D01*
X0054645Y0042605D01*
X0054626Y0042533D01*
X0054602Y0042462D01*
X0054575Y0042392D01*
X0054544Y0042323D01*
X0054510Y0042257D01*
X0054472Y0042192D01*
X0054431Y0042129D01*
X0054387Y0042069D01*
X0054340Y0042011D01*
X0054289Y0041956D01*
X0054236Y0041903D01*
X0054180Y0041853D01*
X0054121Y0041807D01*
X0054060Y0041763D01*
X0053997Y0041723D01*
X0053932Y0041686D01*
X0053865Y0041653D01*
X0053796Y0041623D01*
X0053726Y0041597D01*
X0053654Y0041574D01*
X0053582Y0041556D01*
X0053508Y0041541D01*
X0053434Y0041530D01*
X0053360Y0041523D01*
X0053285Y0041520D01*
X0053210Y0041521D01*
X0053135Y0041526D01*
X0053061Y0041535D01*
X0052987Y0041548D01*
X0052914Y0041564D01*
X0052842Y0041585D01*
X0052771Y0041609D01*
X0052701Y0041637D01*
X0052633Y0041669D01*
X0052567Y0041704D01*
X0052503Y0041743D01*
X0052441Y0041784D01*
X0052381Y0041830D01*
X0052324Y0041878D01*
X0052269Y0041929D01*
X0052217Y0041983D01*
X0052168Y0042040D01*
X0052122Y0042099D01*
X0052080Y0042160D01*
X0052040Y0042224D01*
X0052004Y0042290D01*
X0051972Y0042357D01*
X0051943Y0042426D01*
X0051918Y0042497D01*
X0051896Y0042569D01*
X0051879Y0042642D01*
X0051865Y0042715D01*
X0051855Y0042789D01*
X0051849Y0042864D01*
X0051847Y0042939D01*
X0118186Y0042939D02*
X0118188Y0043014D01*
X0118194Y0043089D01*
X0118204Y0043163D01*
X0118218Y0043236D01*
X0118235Y0043309D01*
X0118257Y0043381D01*
X0118282Y0043452D01*
X0118311Y0043521D01*
X0118343Y0043588D01*
X0118379Y0043654D01*
X0118419Y0043718D01*
X0118461Y0043779D01*
X0118507Y0043838D01*
X0118556Y0043895D01*
X0118608Y0043949D01*
X0118663Y0044000D01*
X0118720Y0044048D01*
X0118780Y0044094D01*
X0118842Y0044135D01*
X0118906Y0044174D01*
X0118972Y0044209D01*
X0119040Y0044241D01*
X0119110Y0044269D01*
X0119181Y0044293D01*
X0119253Y0044314D01*
X0119326Y0044330D01*
X0119400Y0044343D01*
X0119474Y0044352D01*
X0119549Y0044357D01*
X0119624Y0044358D01*
X0119699Y0044355D01*
X0119773Y0044348D01*
X0119847Y0044337D01*
X0119921Y0044322D01*
X0119993Y0044304D01*
X0120065Y0044281D01*
X0120135Y0044255D01*
X0120204Y0044225D01*
X0120271Y0044192D01*
X0120336Y0044155D01*
X0120399Y0044115D01*
X0120460Y0044071D01*
X0120519Y0044025D01*
X0120575Y0043975D01*
X0120628Y0043922D01*
X0120679Y0043867D01*
X0120726Y0043809D01*
X0120770Y0043749D01*
X0120811Y0043686D01*
X0120849Y0043621D01*
X0120883Y0043555D01*
X0120914Y0043486D01*
X0120941Y0043416D01*
X0120965Y0043345D01*
X0120984Y0043273D01*
X0121000Y0043200D01*
X0121012Y0043126D01*
X0121020Y0043051D01*
X0121024Y0042976D01*
X0121024Y0042902D01*
X0121020Y0042827D01*
X0121012Y0042752D01*
X0121000Y0042678D01*
X0120984Y0042605D01*
X0120965Y0042533D01*
X0120941Y0042462D01*
X0120914Y0042392D01*
X0120883Y0042323D01*
X0120849Y0042257D01*
X0120811Y0042192D01*
X0120770Y0042129D01*
X0120726Y0042069D01*
X0120679Y0042011D01*
X0120628Y0041956D01*
X0120575Y0041903D01*
X0120519Y0041853D01*
X0120460Y0041807D01*
X0120399Y0041763D01*
X0120336Y0041723D01*
X0120271Y0041686D01*
X0120204Y0041653D01*
X0120135Y0041623D01*
X0120065Y0041597D01*
X0119993Y0041574D01*
X0119921Y0041556D01*
X0119847Y0041541D01*
X0119773Y0041530D01*
X0119699Y0041523D01*
X0119624Y0041520D01*
X0119549Y0041521D01*
X0119474Y0041526D01*
X0119400Y0041535D01*
X0119326Y0041548D01*
X0119253Y0041564D01*
X0119181Y0041585D01*
X0119110Y0041609D01*
X0119040Y0041637D01*
X0118972Y0041669D01*
X0118906Y0041704D01*
X0118842Y0041743D01*
X0118780Y0041784D01*
X0118720Y0041830D01*
X0118663Y0041878D01*
X0118608Y0041929D01*
X0118556Y0041983D01*
X0118507Y0042040D01*
X0118461Y0042099D01*
X0118419Y0042160D01*
X0118379Y0042224D01*
X0118343Y0042290D01*
X0118311Y0042357D01*
X0118282Y0042426D01*
X0118257Y0042497D01*
X0118235Y0042569D01*
X0118218Y0042642D01*
X0118204Y0042715D01*
X0118194Y0042789D01*
X0118188Y0042864D01*
X0118186Y0042939D01*
D17*
X0053266Y0042939D03*
X0119605Y0042939D03*
X0083384Y0149828D03*
D18*
X0101691Y0053175D03*
X0108778Y0053175D03*
D19*
X0112699Y0074825D03*
X0101675Y0074825D03*
D20*
X0094999Y0058883D03*
X0091455Y0058883D03*
D21*
X0106416Y0011049D03*
X0067439Y0011049D03*
D22*
X0067439Y0026797D03*
X0106416Y0026797D03*
M02*
