G75*
%MOIN*%
%OFA0B0*%
%FSLAX25Y25*%
%IPPOS*%
%LPD*%
%AMOC8*
5,1,8,0,0,1.08239X$1,22.5*
%
%ADD10R,0.02165X0.04921*%
%ADD11C,0.11030*%
%ADD12R,0.06400X0.16400*%
%ADD13C,0.04731*%
%ADD14R,0.02900X0.05400*%
%ADD15C,0.09258*%
%ADD16C,0.07487*%
D10*
X0081711Y0029061D03*
X0084270Y0029061D03*
X0086829Y0029061D03*
X0089585Y0029061D03*
X0092144Y0029061D03*
D11*
X0070589Y0150419D03*
X0057597Y0150419D03*
D12*
X0097046Y0158687D03*
X0107046Y0158687D03*
X0117046Y0158687D03*
D13*
X0106810Y0128962D03*
X0116849Y0118923D03*
X0116849Y0108883D03*
X0116849Y0098844D03*
X0116849Y0089002D03*
X0116849Y0078765D03*
X0116849Y0068726D03*
X0116849Y0058883D03*
X0106810Y0048647D03*
X0096770Y0048647D03*
X0086928Y0048647D03*
X0077085Y0048647D03*
X0066849Y0048647D03*
X0056416Y0058883D03*
X0056219Y0068923D03*
X0056219Y0078962D03*
X0056416Y0088805D03*
X0056416Y0098844D03*
X0056416Y0108883D03*
X0056613Y0118923D03*
X0066849Y0128962D03*
X0076691Y0128962D03*
X0086731Y0128962D03*
X0096770Y0128962D03*
D14*
X0054250Y0034080D03*
X0057794Y0034080D03*
D15*
X0067439Y0011049D03*
X0106416Y0011049D03*
D16*
X0106416Y0026797D03*
X0067439Y0026797D03*
M02*
